G04*
G04 #@! TF.GenerationSoftware,Altium Limited,Altium Designer,25.8.1 (18)*
G04*
G04 Layer_Color=128*
%FSLAX44Y44*%
%MOMM*%
G71*
G04*
G04 #@! TF.SameCoordinates,1FDE67F6-59CD-4E7B-928E-2FBD7DFA4649*
G04*
G04*
G04 #@! TF.FilePolarity,Positive*
G04*
G01*
G75*
%ADD11C,0.1270*%
D11*
X734040Y304800D02*
X744240D01*
X739140Y299700D02*
Y309900D01*
X736580Y953770D02*
X746780D01*
X741680Y948670D02*
Y958870D01*
X1139220Y707390D02*
X1147720D01*
X1143470Y703140D02*
Y711640D01*
X1202670Y552450D02*
X1212870D01*
X1207770Y547350D02*
Y557550D01*
X1193800Y858520D02*
X1203960D01*
X1198880Y853440D02*
Y863600D01*
X314940Y323850D02*
X325140D01*
X320040Y318750D02*
Y328950D01*
X350500Y709930D02*
X360700D01*
X355600Y704830D02*
Y715030D01*
X920510Y318770D02*
X930510D01*
X925510Y313770D02*
Y323770D01*
X722610Y717550D02*
X732810D01*
X727710Y712450D02*
Y722650D01*
X493410Y869950D02*
X503610D01*
X498510Y864850D02*
Y875050D01*
X493410Y844550D02*
X503610D01*
X498510Y839450D02*
Y849650D01*
X493410Y819150D02*
X503610D01*
X498510Y814050D02*
Y824250D01*
X493410Y793750D02*
X503610D01*
X498510Y788650D02*
Y798850D01*
X493410Y539750D02*
X503610D01*
X498510Y534650D02*
Y544850D01*
X493410Y387350D02*
X503610D01*
X498510Y382250D02*
Y392450D01*
X853560Y574040D02*
X862060D01*
X857810Y569790D02*
Y578290D01*
X759440Y304800D02*
X769640D01*
X764540Y299700D02*
Y309900D01*
X722610Y819150D02*
X732810D01*
X727710Y814050D02*
Y824250D01*
X722610Y793750D02*
X732810D01*
X727710Y788650D02*
Y798850D01*
X711180Y953770D02*
X721380D01*
X716280Y948670D02*
Y958870D01*
X722610Y387350D02*
X732810D01*
X727710Y382250D02*
Y392450D01*
X722610Y768350D02*
X732810D01*
X727710Y763250D02*
Y773450D01*
X888560Y574040D02*
X897060D01*
X892810Y569790D02*
Y578290D01*
X1089220Y707390D02*
X1097720D01*
X1093470Y703140D02*
Y711640D01*
X761980Y953770D02*
X772180D01*
X767080Y948670D02*
Y958870D01*
X708640Y304800D02*
X718840D01*
X713740Y299700D02*
Y309900D01*
X493410Y768350D02*
X503610D01*
X498510Y763250D02*
Y773450D01*
X493410Y742950D02*
X503610D01*
X498510Y737850D02*
Y748050D01*
X493410Y717550D02*
X503610D01*
X498510Y712450D02*
Y722650D01*
X493410Y692150D02*
X503610D01*
X498510Y687050D02*
Y697250D01*
X493410Y666750D02*
X503610D01*
X498510Y661650D02*
Y671850D01*
X493410Y641350D02*
X503610D01*
X498510Y636250D02*
Y646450D01*
X493410Y615950D02*
X503610D01*
X498510Y610850D02*
Y621050D01*
X493410Y590550D02*
X503610D01*
X498510Y585450D02*
Y595650D01*
X493410Y565150D02*
X503610D01*
X498510Y560050D02*
Y570250D01*
X493410Y514350D02*
X503610D01*
X498510Y509250D02*
Y519450D01*
X493410Y488950D02*
X503610D01*
X498510Y483850D02*
Y494050D01*
X493410Y463550D02*
X503610D01*
X498510Y458450D02*
Y468650D01*
X493410Y438150D02*
X503610D01*
X498510Y433050D02*
Y443250D01*
X493410Y412750D02*
X503610D01*
X498510Y407650D02*
Y417850D01*
X722610Y869950D02*
X732810D01*
X727710Y864850D02*
Y875050D01*
X722610Y844550D02*
X732810D01*
X727710Y839450D02*
Y849650D01*
X722610Y742950D02*
X732810D01*
X727710Y737850D02*
Y748050D01*
X722610Y692150D02*
X732810D01*
X727710Y687050D02*
Y697250D01*
X722610Y666750D02*
X732810D01*
X727710Y661650D02*
Y671850D01*
X722610Y641350D02*
X732810D01*
X727710Y636250D02*
Y646450D01*
X722610Y615950D02*
X732810D01*
X727710Y610850D02*
Y621050D01*
X722610Y590550D02*
X732810D01*
X727710Y585450D02*
Y595650D01*
X722610Y565150D02*
X732810D01*
X727710Y560050D02*
Y570250D01*
X722610Y539750D02*
X732810D01*
X727710Y534650D02*
Y544850D01*
X722610Y514350D02*
X732810D01*
X727710Y509250D02*
Y519450D01*
X722610Y488950D02*
X732810D01*
X727710Y483850D02*
Y494050D01*
X722610Y463550D02*
X732810D01*
X727710Y458450D02*
Y468650D01*
X722610Y438150D02*
X732810D01*
X727710Y433050D02*
Y443250D01*
X722610Y412750D02*
X732810D01*
X727710Y407650D02*
Y417850D01*
X314940Y374650D02*
X325140D01*
X320040Y369550D02*
Y379750D01*
X314940Y501650D02*
X325140D01*
X320040Y496550D02*
Y506750D01*
X308590Y850900D02*
X318790D01*
X313690Y845800D02*
Y856000D01*
X1193800Y833120D02*
X1203960D01*
X1198880Y828040D02*
Y838200D01*
X314940Y400050D02*
X325140D01*
X320040Y394950D02*
Y405150D01*
X314940Y450850D02*
X325140D01*
X320040Y445750D02*
Y455950D01*
X1202670Y501650D02*
X1212870D01*
X1207770Y496550D02*
Y506750D01*
X1193800Y807720D02*
X1203960D01*
X1198880Y802640D02*
Y812800D01*
X308590Y774700D02*
X318790D01*
X313690Y769600D02*
Y779800D01*
X308590Y825500D02*
X318790D01*
X313690Y820400D02*
Y830600D01*
X1202670Y527050D02*
X1212870D01*
X1207770Y521950D02*
Y532150D01*
X1193800Y883920D02*
X1203960D01*
X1198880Y878840D02*
Y889000D01*
X375900Y709930D02*
X386100D01*
X381000Y704830D02*
Y715030D01*
X308590Y876300D02*
X318790D01*
X313690Y871200D02*
Y881400D01*
X314940Y425450D02*
X325140D01*
X320040Y420350D02*
Y430550D01*
X314940Y476250D02*
X325140D01*
X320040Y471150D02*
Y481350D01*
X308590Y800100D02*
X318790D01*
X313690Y795000D02*
Y805200D01*
X900510Y318770D02*
X910510D01*
X905510Y313770D02*
Y323770D01*
X1033590Y312420D02*
X1041590D01*
X1037590Y308420D02*
Y316420D01*
X1058990Y312420D02*
X1066990D01*
X1062990Y308420D02*
Y316420D01*
X1008190Y312420D02*
X1016190D01*
X1012190Y308420D02*
Y316420D01*
X314940Y349250D02*
X325140D01*
X320040Y344150D02*
Y354350D01*
X834200Y381000D02*
X842200D01*
X838200Y377000D02*
Y385000D01*
X752920Y797560D02*
X760920D01*
X756920Y793560D02*
Y801560D01*
X1109790Y373380D02*
X1117790D01*
X1113790Y369380D02*
Y377380D01*
X876125Y642224D02*
X884125D01*
X880125Y638224D02*
Y646224D01*
X957390Y335710D02*
X965390D01*
X961390Y331710D02*
Y339710D01*
X633984Y647700D02*
X641096D01*
X637540Y644144D02*
Y651256D01*
X630151Y906820D02*
X637263D01*
X633707Y903264D02*
Y910376D01*
X672084Y811530D02*
X679196D01*
X675640Y807974D02*
Y815086D01*
X626364Y934720D02*
X633476D01*
X629920Y931164D02*
Y938276D01*
X594614Y933450D02*
X601726D01*
X598170Y929894D02*
Y937006D01*
X655574Y842010D02*
X662686D01*
X659130Y838454D02*
Y845566D01*
X598424Y445770D02*
X605536D01*
X601980Y442214D02*
Y449326D01*
X532384Y381000D02*
X539496D01*
X535940Y377444D02*
Y384556D01*
X614934Y430530D02*
X622046D01*
X618490Y426974D02*
Y434086D01*
X548894Y367030D02*
X556006D01*
X552450Y363474D02*
Y370586D01*
X757134Y615950D02*
X764246D01*
X760690Y612394D02*
Y619506D01*
X778764Y579120D02*
X785876D01*
X782320Y575564D02*
Y582676D01*
X1124394Y419100D02*
X1131506D01*
X1127950Y415544D02*
Y422656D01*
M02*
