G04*
G04 #@! TF.GenerationSoftware,Altium Limited,Altium Designer,25.8.1 (18)*
G04*
G04 Layer_Color=255*
%FSLAX44Y44*%
%MOMM*%
G71*
G04*
G04 #@! TF.SameCoordinates,1FDE67F6-59CD-4E7B-928E-2FBD7DFA4649*
G04*
G04*
G04 #@! TF.FilePolarity,Positive*
G04*
G01*
G75*
%ADD48C,1.3700*%
%ADD49C,1.2000*%
%ADD50C,1.5240*%
%ADD51C,1.5000*%
%ADD52C,1.5300*%
%ADD53R,1.5300X1.5300*%
%ADD54C,1.2750*%
%ADD55R,1.3700X1.3700*%
%ADD56R,1.2750X1.2750*%
%ADD57R,1.2000X1.2000*%
%ADD58R,1.3700X1.3700*%
%ADD59R,1.5240X1.5240*%
%ADD60R,1.5000X1.5000*%
%ADD61C,1.3080*%
D48*
X739140Y304800D02*
D03*
X741680Y953770D02*
D03*
X1207770Y552450D02*
D03*
X320040Y323850D02*
D03*
X355600Y709930D02*
D03*
X767080Y953770D02*
D03*
X713740Y304800D02*
D03*
X320040Y374650D02*
D03*
X313690Y850900D02*
D03*
X320040Y400050D02*
D03*
Y450850D02*
D03*
X313690Y825500D02*
D03*
X1207770Y527050D02*
D03*
X313690Y876300D02*
D03*
X320040Y425450D02*
D03*
Y476250D02*
D03*
X313690Y800100D02*
D03*
X320040Y349250D02*
D03*
D49*
X1143470Y707390D02*
D03*
D50*
X1198880Y858520D02*
D03*
Y833120D02*
D03*
Y807720D02*
D03*
D51*
X925510Y318770D02*
D03*
D52*
X727710Y717550D02*
D03*
X498510Y869950D02*
D03*
Y844550D02*
D03*
Y819150D02*
D03*
Y793750D02*
D03*
Y539750D02*
D03*
X727710Y819150D02*
D03*
Y793750D02*
D03*
Y768350D02*
D03*
X498510D02*
D03*
Y742950D02*
D03*
Y717550D02*
D03*
Y692150D02*
D03*
Y666750D02*
D03*
Y641350D02*
D03*
Y615950D02*
D03*
Y590550D02*
D03*
Y565150D02*
D03*
Y514350D02*
D03*
Y488950D02*
D03*
Y463550D02*
D03*
Y438150D02*
D03*
Y412750D02*
D03*
X727710Y869950D02*
D03*
Y844550D02*
D03*
Y742950D02*
D03*
Y692150D02*
D03*
Y666750D02*
D03*
Y641350D02*
D03*
Y615950D02*
D03*
Y590550D02*
D03*
Y565150D02*
D03*
Y539750D02*
D03*
Y514350D02*
D03*
Y488950D02*
D03*
Y463550D02*
D03*
Y438150D02*
D03*
Y412750D02*
D03*
D53*
X498510Y387350D02*
D03*
X727710D02*
D03*
D54*
X857810Y574040D02*
D03*
D55*
X764540Y304800D02*
D03*
X716280Y953770D02*
D03*
X381000Y709930D02*
D03*
D56*
X892810Y574040D02*
D03*
D57*
X1093470Y707390D02*
D03*
D58*
X320040Y501650D02*
D03*
X1207770D02*
D03*
X313690Y774700D02*
D03*
D59*
X1198880Y883920D02*
D03*
D60*
X905510Y318770D02*
D03*
D61*
X1037590Y312420D02*
D03*
X1062990D02*
D03*
X1012190D02*
D03*
M02*
