G04*
G04 #@! TF.GenerationSoftware,Altium Limited,Altium Designer,25.8.1 (18)*
G04*
G04 Layer_Color=32768*
%FSLAX44Y44*%
%MOMM*%
G71*
G04*
G04 #@! TF.SameCoordinates,1FDE67F6-59CD-4E7B-928E-2FBD7DFA4649*
G04*
G04*
G04 #@! TF.FilePolarity,Positive*
G04*
G01*
G75*
%ADD47C,0.1000*%
%ADD64C,0.0500*%
G36*
X1090590Y296920D02*
X984590D01*
Y327920D01*
X1090590D01*
Y296920D01*
D02*
G37*
D47*
X782320Y796870D02*
Y805870D01*
X777820Y801370D02*
X786820D01*
X1004690Y382850D02*
Y391850D01*
X1000190Y387350D02*
X1009190D01*
X910510Y313270D02*
X920510D01*
X915510Y308270D02*
Y318270D01*
X1061720Y385750D02*
Y390750D01*
X1059220Y388250D02*
X1064220D01*
X777820Y854710D02*
X786820D01*
X782320Y850210D02*
Y859210D01*
X1153740Y873660D02*
X1162740D01*
X1158240Y869160D02*
Y878160D01*
D64*
X921060Y574040D02*
G03*
X921060Y574040I-45750J0D01*
G01*
X1170970Y707390D02*
G03*
X1170970Y707390I-52500J0D01*
G01*
X774820Y787870D02*
X789820D01*
X774820Y814870D02*
X789820D01*
X774820Y787870D02*
Y814870D01*
X789820Y787870D02*
Y814870D01*
X969790Y674950D02*
X1003790D01*
Y747450D01*
X969790D02*
X1003790D01*
X969790Y674950D02*
Y747450D01*
X993600Y617580D02*
X1076500D01*
X993600Y560160D02*
Y617580D01*
X978350Y560160D02*
X993600D01*
X978350Y446730D02*
Y560160D01*
Y446730D02*
X1091750D01*
Y560160D01*
X1076500D02*
X1091750D01*
X1076500D02*
Y617580D01*
X988190Y377350D02*
X1021190D01*
X988190Y397350D02*
X1021190D01*
Y377350D02*
Y397350D01*
X988190Y377350D02*
Y397350D01*
X698530Y939220D02*
X784830D01*
Y968320D01*
X698530D02*
X784830D01*
X698530Y939220D02*
Y968320D01*
X695990Y319350D02*
X782290D01*
X695990Y290250D02*
Y319350D01*
Y290250D02*
X782290D01*
Y319350D01*
X483960Y369600D02*
Y887700D01*
X513060D01*
Y369600D02*
Y887700D01*
X483960Y369600D02*
X513060D01*
X713160D02*
Y887700D01*
X742260D01*
Y369600D02*
Y887700D01*
X713160Y369600D02*
X742260D01*
X328240Y756950D02*
Y894050D01*
X299140D02*
X328240D01*
X299140Y756950D02*
Y894050D01*
Y756950D02*
X328240D01*
X885010Y336770D02*
X946010D01*
X885010Y289770D02*
Y336770D01*
X946010Y289770D02*
Y336770D01*
X885010Y289770D02*
X946010D01*
X398750Y695380D02*
Y724480D01*
X337850Y695380D02*
X398750D01*
X337850D02*
Y724480D01*
X398750D01*
X1066720Y377000D02*
Y399500D01*
X1056720D02*
X1066720D01*
X1056720Y377000D02*
Y399500D01*
Y377000D02*
X1066720D01*
X305490Y519400D02*
X334590D01*
Y306100D02*
Y519400D01*
X305490Y306100D02*
X334590D01*
X305490D02*
Y519400D01*
X789820Y841210D02*
Y868210D01*
X774820Y841210D02*
Y868210D01*
X789820D01*
X774820Y841210D02*
X789820D01*
X1165740Y860160D02*
Y887160D01*
X1150740Y860160D02*
Y887160D01*
X1165740D01*
X1150740Y860160D02*
X1165740D01*
X1193220Y483900D02*
X1222320D01*
X1193220D02*
Y570200D01*
X1222320D01*
Y483900D02*
Y570200D01*
M02*
