G04*
G04 #@! TF.GenerationSoftware,Altium Limited,Altium Designer,25.8.1 (18)*
G04*
G04 Layer_Color=16711935*
%FSLAX44Y44*%
%MOMM*%
G71*
G04*
G04 #@! TF.SameCoordinates,1FDE67F6-59CD-4E7B-928E-2FBD7DFA4649*
G04*
G04*
G04 #@! TF.FilePolarity,Negative*
G04*
G01*
G75*
%ADD28C,1.5732*%
%ADD29C,1.4032*%
%ADD30C,1.7272*%
%ADD31C,1.7032*%
%ADD32C,1.7332*%
%ADD33R,1.7332X1.7332*%
%ADD34C,1.4782*%
%ADD35R,1.5732X1.5732*%
%ADD36R,1.4782X1.4782*%
%ADD37R,1.4032X1.4032*%
%ADD38R,1.5732X1.5732*%
%ADD39R,1.7272X1.7272*%
%ADD40R,1.7032X1.7032*%
%ADD41C,1.5112*%
%ADD42C,2.2032*%
%ADD43C,1.4732*%
D28*
X739140Y304800D02*
D03*
X741680Y953770D02*
D03*
X1207770Y552450D02*
D03*
X320040Y323850D02*
D03*
X355600Y709930D02*
D03*
X767080Y953770D02*
D03*
X713740Y304800D02*
D03*
X320040Y374650D02*
D03*
X313690Y850900D02*
D03*
X320040Y400050D02*
D03*
Y450850D02*
D03*
X313690Y825500D02*
D03*
X1207770Y527050D02*
D03*
X313690Y876300D02*
D03*
X320040Y425450D02*
D03*
Y476250D02*
D03*
X313690Y800100D02*
D03*
X320040Y349250D02*
D03*
D29*
X1143470Y707390D02*
D03*
D30*
X1198880Y858520D02*
D03*
Y833120D02*
D03*
Y807720D02*
D03*
D31*
X925510Y318770D02*
D03*
D32*
X727710Y717550D02*
D03*
X498510Y869950D02*
D03*
Y844550D02*
D03*
Y819150D02*
D03*
Y793750D02*
D03*
Y539750D02*
D03*
X727710Y819150D02*
D03*
Y793750D02*
D03*
Y768350D02*
D03*
X498510D02*
D03*
Y742950D02*
D03*
Y717550D02*
D03*
Y692150D02*
D03*
Y666750D02*
D03*
Y641350D02*
D03*
Y615950D02*
D03*
Y590550D02*
D03*
Y565150D02*
D03*
Y514350D02*
D03*
Y488950D02*
D03*
Y463550D02*
D03*
Y438150D02*
D03*
Y412750D02*
D03*
X727710Y869950D02*
D03*
Y844550D02*
D03*
Y742950D02*
D03*
Y692150D02*
D03*
Y666750D02*
D03*
Y641350D02*
D03*
Y615950D02*
D03*
Y590550D02*
D03*
Y565150D02*
D03*
Y539750D02*
D03*
Y514350D02*
D03*
Y488950D02*
D03*
Y463550D02*
D03*
Y438150D02*
D03*
Y412750D02*
D03*
D33*
X498510Y387350D02*
D03*
X727710D02*
D03*
D34*
X857810Y574040D02*
D03*
D35*
X764540Y304800D02*
D03*
X716280Y953770D02*
D03*
X381000Y709930D02*
D03*
D36*
X892810Y574040D02*
D03*
D37*
X1093470Y707390D02*
D03*
D38*
X320040Y501650D02*
D03*
X1207770D02*
D03*
X313690Y774700D02*
D03*
D39*
X1198880Y883920D02*
D03*
D40*
X905510Y318770D02*
D03*
D41*
X1037590Y312420D02*
D03*
X1062990D02*
D03*
X1012190D02*
D03*
D42*
X838200Y381000D02*
D03*
X756920Y797560D02*
D03*
X1113790Y373380D02*
D03*
X880125Y642224D02*
D03*
X961390Y335710D02*
D03*
D43*
X637540Y647700D02*
D03*
X633707Y906820D02*
D03*
X675640Y811530D02*
D03*
X629920Y934720D02*
D03*
X598170Y933450D02*
D03*
X659130Y842010D02*
D03*
X601980Y445770D02*
D03*
X535940Y381000D02*
D03*
X618490Y430530D02*
D03*
X552450Y367030D02*
D03*
X760690Y615950D02*
D03*
X782320Y579120D02*
D03*
X1127950Y419100D02*
D03*
M02*
