G04*
G04 #@! TF.GenerationSoftware,Altium Limited,Altium Designer,25.8.1 (18)*
G04*
G04 Layer_Color=8421504*
%FSLAX44Y44*%
%MOMM*%
G71*
G04*
G04 #@! TF.SameCoordinates,1FDE67F6-59CD-4E7B-928E-2FBD7DFA4649*
G04*
G04*
G04 #@! TF.FilePolarity,Positive*
G04*
G01*
G75*
%ADD15R,0.9500X0.9500*%
%ADD16R,1.6000X2.4500*%
%ADD17R,0.9900X3.7900*%
%ADD18R,0.8000X0.6000*%
%ADD19R,3.1496X5.5118*%
%ADD20R,0.8000X1.0000*%
G36*
X1032250Y507330D02*
X1019750D01*
Y522530D01*
X1032250D01*
Y507330D01*
D02*
G37*
G36*
X1014150D02*
X1001650D01*
Y522530D01*
X1014150D01*
Y507330D01*
D02*
G37*
G36*
X996050D02*
X983550D01*
Y522530D01*
X996050D01*
Y507330D01*
D02*
G37*
G36*
X1032250Y481030D02*
X1019750D01*
Y496230D01*
X1032250D01*
Y481030D01*
D02*
G37*
G36*
X1014150D02*
X1001650D01*
Y496230D01*
X1014150D01*
Y481030D01*
D02*
G37*
G36*
X996050D02*
X983550D01*
Y496230D01*
X996050D01*
Y481030D01*
D02*
G37*
G36*
X1032250Y454730D02*
X1019750D01*
Y469930D01*
X1032250D01*
Y454730D01*
D02*
G37*
G36*
X1014150D02*
X1001650D01*
Y469930D01*
X1014150D01*
Y454730D01*
D02*
G37*
G36*
X996050D02*
X983550D01*
Y469930D01*
X996050D01*
Y454730D01*
D02*
G37*
G36*
X1086550Y507330D02*
X1074050D01*
Y522530D01*
X1086550D01*
Y507330D01*
D02*
G37*
G36*
X1068450D02*
X1055950D01*
Y522530D01*
X1068450D01*
Y507330D01*
D02*
G37*
G36*
X1050350D02*
X1037850D01*
Y522530D01*
X1050350D01*
Y507330D01*
D02*
G37*
G36*
X1086550Y481030D02*
X1074050D01*
Y496230D01*
X1086550D01*
Y481030D01*
D02*
G37*
G36*
X1068450D02*
X1055950D01*
Y496230D01*
X1068450D01*
Y481030D01*
D02*
G37*
G36*
X1050350D02*
X1037850D01*
Y496230D01*
X1050350D01*
Y481030D01*
D02*
G37*
G36*
X1086550Y454730D02*
X1074050D01*
Y469930D01*
X1086550D01*
Y454730D01*
D02*
G37*
G36*
X1068450D02*
X1055950D01*
Y469930D01*
X1068450D01*
Y454730D01*
D02*
G37*
G36*
X1050350D02*
X1037850D01*
Y469930D01*
X1050350D01*
Y454730D01*
D02*
G37*
D15*
X782320Y795120D02*
D03*
Y807620D02*
D03*
X1158240Y867410D02*
D03*
X782320Y860960D02*
D03*
X1158240Y879910D02*
D03*
X782320Y848460D02*
D03*
D16*
X986790Y732700D02*
D03*
Y689700D02*
D03*
D17*
X1035050Y596130D02*
D03*
X1001050D02*
D03*
X1052050D02*
D03*
X1069050D02*
D03*
X1018050D02*
D03*
D18*
X1061720Y395500D02*
D03*
Y381000D02*
D03*
D19*
X937260Y717550D02*
D03*
X840740D02*
D03*
D20*
X1012190Y387350D02*
D03*
X997190D02*
D03*
M02*
