G04*
G04 #@! TF.GenerationSoftware,Altium Limited,Altium Designer,25.8.1 (18)*
G04*
G04 Layer_Color=16711935*
%FSLAX44Y44*%
%MOMM*%
G71*
G04*
G04 #@! TF.SameCoordinates,1FDE67F6-59CD-4E7B-928E-2FBD7DFA4649*
G04*
G04*
G04 #@! TF.FilePolarity,Positive*
G04*
G01*
G75*
%ADD10C,0.2000*%
%ADD11C,0.1270*%
%ADD12C,0.5080*%
%ADD14C,0.1524*%
%ADD47C,0.1000*%
D10*
X1061970Y707390D02*
G03*
X1061970Y707390I-1000J0D01*
G01*
X1074050Y622130D02*
G03*
X1074050Y622130I-1000J0D01*
G01*
X695530Y953770D02*
G03*
X695530Y953770I-1000J0D01*
G01*
X787290Y304800D02*
G03*
X787290Y304800I-1000J0D01*
G01*
X499510Y365150D02*
G03*
X499510Y365150I-1000J0D01*
G01*
X728710D02*
G03*
X728710Y365150I-1000J0D01*
G01*
X314690Y752950D02*
G03*
X314690Y752950I-1000J0D01*
G01*
X403750Y709930D02*
G03*
X403750Y709930I-1000J0D01*
G01*
X321040Y523400D02*
G03*
X321040Y523400I-1000J0D01*
G01*
X1208770Y479900D02*
G03*
X1208770Y479900I-1000J0D01*
G01*
D11*
X1168470Y707390D02*
G03*
X1168470Y707390I-50000J0D01*
G01*
X984250Y468450D02*
X1085850D01*
X984250D02*
Y557660D01*
X1085850D01*
Y468450D02*
Y557660D01*
D12*
X1172972Y883666D02*
G03*
X1180592Y883666I3810J0D01*
G01*
D02*
G03*
X1172972Y883666I-3810J0D01*
G01*
D14*
X1186942Y792480D02*
Y899160D01*
Y792480D02*
X1210818D01*
Y899160D01*
X1186942D02*
X1210818D01*
X826516Y748792D02*
X857758Y780034D01*
X826516Y686308D02*
X857758Y655066D01*
X826516D02*
X951484D01*
Y780034D01*
X826516D02*
X951484D01*
X826516Y655066D02*
Y780034D01*
D47*
X916060Y574040D02*
G03*
X916060Y574040I-40750J0D01*
G01*
X777820Y792870D02*
X786820D01*
X777820Y809870D02*
X786820D01*
X777820Y792870D02*
Y809870D01*
X786820Y792870D02*
Y809870D01*
X974290Y693200D02*
X982290Y685200D01*
X974290D02*
X999290D01*
Y737200D01*
X974290D02*
X999290D01*
X974290Y685200D02*
Y737200D01*
X996190Y382850D02*
X1013190D01*
X996190Y391850D02*
X1013190D01*
Y382850D02*
Y391850D01*
X996190Y382850D02*
Y391850D01*
X782330Y941720D02*
Y965820D01*
X701030D02*
X782330D01*
X701030Y941720D02*
Y965820D01*
Y941720D02*
X782330D01*
Y965820D01*
X701030D02*
X782330D01*
X701030Y941720D02*
Y965820D01*
X698490Y292750D02*
Y316850D01*
Y292750D02*
X779790D01*
Y316850D01*
X698490D02*
X779790D01*
X698490Y292750D02*
Y316850D01*
Y292750D02*
X779790D01*
Y316850D01*
X486460Y372100D02*
Y885200D01*
X510560D01*
Y372100D02*
Y885200D01*
X486460Y372100D02*
X510560D01*
X715660D02*
Y885200D01*
X739760D01*
Y372100D02*
Y885200D01*
X715660Y372100D02*
X739760D01*
X301640Y891550D02*
X325740D01*
X301640Y759450D02*
Y891550D01*
Y759450D02*
X325740D01*
Y891550D01*
X301640D02*
X325740D01*
X301640Y759450D02*
Y891550D01*
Y759450D02*
X325740D01*
X886010Y335770D02*
X945010D01*
X886010Y290770D02*
Y335770D01*
X945010Y290770D02*
Y335770D01*
X886010Y290770D02*
X945010D01*
X987590Y324920D02*
X1087590D01*
X987590Y299920D02*
Y324920D01*
Y299920D02*
X1087590D01*
Y324920D01*
X396250Y697880D02*
Y721980D01*
X340350Y697880D02*
X396250D01*
X340350D02*
Y721980D01*
X396250D01*
Y697880D02*
Y721980D01*
X340350Y697880D02*
X396250D01*
X340350D02*
Y721980D01*
X1057721Y380249D02*
X1065721D01*
X1057720Y396250D02*
X1065720D01*
X1065721Y380249D02*
Y396249D01*
X1057720Y380250D02*
Y396250D01*
X307990Y516900D02*
X332090D01*
Y308600D02*
Y516900D01*
X307990Y308600D02*
X332090D01*
X307990D02*
Y516900D01*
X332090D01*
Y308600D02*
Y516900D01*
X307990Y308600D02*
X332090D01*
X786820Y846210D02*
Y863210D01*
X777820Y846210D02*
Y863210D01*
X786820D01*
X777820Y846210D02*
X786820D01*
X1162740Y865160D02*
Y882160D01*
X1153740Y865160D02*
Y882160D01*
X1162740D01*
X1153740Y865160D02*
X1162740D01*
X1195720Y486400D02*
X1219820D01*
X1195720D02*
Y567700D01*
X1219820D01*
Y486400D02*
Y567700D01*
X1195720Y486400D02*
X1219820D01*
X1195720D02*
Y567700D01*
X1219820D01*
M02*
