G04*
G04 #@! TF.GenerationSoftware,Altium Limited,Altium Designer,25.8.1 (18)*
G04*
G04 Layer_Physical_Order=1*
G04 Layer_Color=255*
%FSLAX44Y44*%
%MOMM*%
G71*
G04*
G04 #@! TF.SameCoordinates,1FDE67F6-59CD-4E7B-928E-2FBD7DFA4649*
G04*
G04*
G04 #@! TF.FilePolarity,Positive*
G04*
G01*
G75*
%ADD10C,0.2000*%
%ADD15R,0.9500X0.9500*%
%ADD16R,1.6000X2.4500*%
%ADD17R,0.9900X3.7900*%
%ADD18R,0.8000X0.6000*%
%ADD19R,3.1496X5.5118*%
%ADD20R,0.8000X1.0000*%
%ADD44R,10.8400X7.8800*%
%ADD45C,0.5000*%
%ADD46C,0.8000*%
%ADD47C,0.1000*%
%ADD48C,1.3700*%
%ADD49C,1.2000*%
%ADD50C,1.5240*%
%ADD51C,1.5000*%
%ADD52C,1.5300*%
%ADD53R,1.5300X1.5300*%
%ADD54C,1.2750*%
%ADD55R,1.3700X1.3700*%
%ADD56R,1.2750X1.2750*%
%ADD57R,1.2000X1.2000*%
%ADD58R,1.3700X1.3700*%
%ADD59R,1.5240X1.5240*%
%ADD60R,1.5000X1.5000*%
%ADD61C,1.3080*%
%ADD62C,2.0000*%
%ADD63C,1.2700*%
G36*
X1250950Y254000D02*
X254000D01*
Y1000760D01*
X1250950D01*
Y254000D01*
D02*
G37*
%LPC*%
G36*
X742950Y963151D02*
Y955040D01*
X751061D01*
X750430Y957394D01*
X749194Y959536D01*
X747446Y961284D01*
X745304Y962520D01*
X742950Y963151D01*
D02*
G37*
G36*
X740410D02*
X738056Y962520D01*
X735914Y961284D01*
X734166Y959536D01*
X732930Y957394D01*
X732299Y955040D01*
X740410D01*
Y963151D01*
D02*
G37*
G36*
X751061Y952500D02*
X742950D01*
Y944389D01*
X745304Y945020D01*
X747446Y946256D01*
X749194Y948004D01*
X750430Y950146D01*
X751061Y952500D01*
D02*
G37*
G36*
X740410D02*
X732299D01*
X732930Y950146D01*
X734166Y948004D01*
X735914Y946256D01*
X738056Y945020D01*
X740410Y944389D01*
Y952500D01*
D02*
G37*
G36*
X768316Y963160D02*
X765844D01*
X763456Y962520D01*
X761314Y961284D01*
X759566Y959536D01*
X758330Y957394D01*
X757690Y955006D01*
Y952534D01*
X758330Y950146D01*
X759566Y948004D01*
X761314Y946256D01*
X763456Y945020D01*
X765844Y944380D01*
X768316D01*
X770704Y945020D01*
X772846Y946256D01*
X774594Y948004D01*
X775830Y950146D01*
X776470Y952534D01*
Y955006D01*
X775830Y957394D01*
X774594Y959536D01*
X772846Y961284D01*
X770704Y962520D01*
X768316Y963160D01*
D02*
G37*
G36*
X725670D02*
X706890D01*
Y944380D01*
X725670D01*
Y963160D01*
D02*
G37*
G36*
X591820Y976429D02*
X274320D01*
X272939Y976155D01*
X271768Y975372D01*
X270498Y974102D01*
X269715Y972931D01*
X269441Y971550D01*
Y787400D01*
X269715Y786019D01*
X270498Y784848D01*
X283198Y772148D01*
X284369Y771365D01*
X285750Y771091D01*
X304300D01*
Y765310D01*
X323080D01*
Y784090D01*
X304300D01*
Y778309D01*
X287245D01*
X276659Y788895D01*
Y969211D01*
X590325D01*
X621583Y937953D01*
X621030Y935890D01*
Y933550D01*
X621636Y931289D01*
X622806Y929261D01*
X624461Y927606D01*
X626489Y926436D01*
X628750Y925830D01*
X631090D01*
X633351Y926436D01*
X635379Y927606D01*
X637034Y929261D01*
X638204Y931289D01*
X638810Y933550D01*
Y935890D01*
X638204Y938151D01*
X637034Y940179D01*
X635379Y941834D01*
X633351Y943004D01*
X631090Y943610D01*
X628750D01*
X626687Y943057D01*
X594372Y975372D01*
X593201Y976155D01*
X591820Y976429D01*
D02*
G37*
G36*
X499852Y880140D02*
X499780D01*
Y871220D01*
X508700D01*
Y871292D01*
X508006Y873883D01*
X506664Y876207D01*
X504767Y878104D01*
X502443Y879446D01*
X499852Y880140D01*
D02*
G37*
G36*
X497240D02*
X497168D01*
X494577Y879446D01*
X492253Y878104D01*
X490356Y876207D01*
X489014Y873883D01*
X488320Y871292D01*
Y871220D01*
X497240D01*
Y880140D01*
D02*
G37*
G36*
X314926Y885690D02*
X312454D01*
X310066Y885050D01*
X307924Y883814D01*
X306176Y882066D01*
X304940Y879924D01*
X304300Y877536D01*
Y875064D01*
X304940Y872676D01*
X306176Y870534D01*
X307924Y868786D01*
X310066Y867550D01*
X312454Y866910D01*
X314926D01*
X317314Y867550D01*
X319456Y868786D01*
X321204Y870534D01*
X322440Y872676D01*
X323080Y875064D01*
Y877536D01*
X322440Y879924D01*
X321204Y882066D01*
X319456Y883814D01*
X317314Y885050D01*
X314926Y885690D01*
D02*
G37*
G36*
X789610Y868250D02*
X783590D01*
Y862230D01*
X789610D01*
Y868250D01*
D02*
G37*
G36*
X781050D02*
X775030D01*
Y862230D01*
X781050D01*
Y868250D01*
D02*
G37*
G36*
X1165530Y866140D02*
X1159510D01*
Y860120D01*
X1165530D01*
Y866140D01*
D02*
G37*
G36*
X1156970D02*
X1150950D01*
Y860120D01*
X1156970D01*
Y866140D01*
D02*
G37*
G36*
X1200218Y868680D02*
X1200150D01*
Y859790D01*
X1209040D01*
Y859858D01*
X1208348Y862442D01*
X1207010Y864758D01*
X1205118Y866650D01*
X1202802Y867988D01*
X1200218Y868680D01*
D02*
G37*
G36*
X1197610D02*
X1197542D01*
X1194958Y867988D01*
X1192642Y866650D01*
X1190750Y864758D01*
X1189412Y862442D01*
X1188720Y859858D01*
Y859790D01*
X1197610D01*
Y868680D01*
D02*
G37*
G36*
X508700D02*
X499780D01*
Y859760D01*
X499852D01*
X502443Y860454D01*
X504767Y861796D01*
X506664Y863693D01*
X508006Y866017D01*
X508700Y868608D01*
Y868680D01*
D02*
G37*
G36*
X497240D02*
X488320D01*
Y868608D01*
X489014Y866017D01*
X490356Y863693D01*
X492253Y861796D01*
X494577Y860454D01*
X497168Y859760D01*
X497240D01*
Y868680D01*
D02*
G37*
G36*
X1209040Y857250D02*
X1200150D01*
Y848360D01*
X1200218D01*
X1202802Y849052D01*
X1205118Y850390D01*
X1207010Y852282D01*
X1208348Y854598D01*
X1209040Y857182D01*
Y857250D01*
D02*
G37*
G36*
X1197610D02*
X1188720D01*
Y857182D01*
X1189412Y854598D01*
X1190750Y852282D01*
X1192642Y850390D01*
X1194958Y849052D01*
X1197542Y848360D01*
X1197610D01*
Y857250D01*
D02*
G37*
G36*
X499852Y854740D02*
X499780D01*
Y845820D01*
X508700D01*
Y845892D01*
X508006Y848483D01*
X506664Y850807D01*
X504767Y852704D01*
X502443Y854046D01*
X499852Y854740D01*
D02*
G37*
G36*
X497240D02*
X497168D01*
X494577Y854046D01*
X492253Y852704D01*
X490356Y850807D01*
X489014Y848483D01*
X488320Y845892D01*
Y845820D01*
X497240D01*
Y854740D01*
D02*
G37*
G36*
X314926Y860290D02*
X312454D01*
X310066Y859650D01*
X307924Y858414D01*
X306176Y856666D01*
X304940Y854524D01*
X304300Y852136D01*
Y849664D01*
X304940Y847276D01*
X306176Y845134D01*
X307924Y843386D01*
X310066Y842150D01*
X312454Y841510D01*
X314926D01*
X317314Y842150D01*
X319456Y843386D01*
X321204Y845134D01*
X322440Y847276D01*
X323080Y849664D01*
Y852136D01*
X322440Y854524D01*
X321204Y856666D01*
X319456Y858414D01*
X317314Y859650D01*
X314926Y860290D01*
D02*
G37*
G36*
X599340Y942340D02*
X597000D01*
X594739Y941734D01*
X592711Y940564D01*
X591056Y938909D01*
X589989Y937059D01*
X367030D01*
X365649Y936785D01*
X364478Y936002D01*
X360668Y932192D01*
X359885Y931021D01*
X359611Y929640D01*
Y851125D01*
X317328Y808842D01*
X317314Y808850D01*
X314926Y809490D01*
X312454D01*
X310066Y808850D01*
X307924Y807614D01*
X306176Y805866D01*
X304940Y803724D01*
X304300Y801336D01*
Y798864D01*
X304940Y796476D01*
X306176Y794334D01*
X307924Y792586D01*
X310066Y791350D01*
X312454Y790710D01*
X314926D01*
X317314Y791350D01*
X319456Y792586D01*
X321204Y794334D01*
X322440Y796476D01*
X323080Y798864D01*
Y801336D01*
X322440Y803724D01*
X322432Y803738D01*
X365772Y847078D01*
X366555Y848249D01*
X366829Y849630D01*
Y928145D01*
X368525Y929841D01*
X589989D01*
X591056Y927991D01*
X592711Y926336D01*
X594422Y925349D01*
X594401Y924248D01*
X594071Y923349D01*
X425450D01*
X423484Y922958D01*
X421816Y921844D01*
X377366Y877394D01*
X376252Y875726D01*
X375861Y873760D01*
Y719320D01*
X371610D01*
Y700540D01*
X390390D01*
Y719320D01*
X386139D01*
Y871631D01*
X427579Y913071D01*
X624741D01*
X625896Y911071D01*
X625422Y910251D01*
X624817Y907990D01*
Y905650D01*
X625422Y903389D01*
X626593Y901361D01*
X628248Y899706D01*
X630097Y898639D01*
Y654429D01*
X630369Y653060D01*
X629256Y651131D01*
X628650Y648870D01*
Y646530D01*
X629256Y644269D01*
X630426Y642241D01*
X632081Y640586D01*
X634109Y639416D01*
X636370Y638810D01*
X638710D01*
X640971Y639416D01*
X642999Y640586D01*
X644654Y642241D01*
X645824Y644269D01*
X646430Y646530D01*
Y648870D01*
X645824Y651131D01*
X644654Y653159D01*
X642999Y654814D01*
X640971Y655984D01*
X638710Y656590D01*
X637316D01*
Y898639D01*
X639165Y899706D01*
X640820Y901361D01*
X641991Y903389D01*
X642597Y905650D01*
Y907990D01*
X641991Y910251D01*
X641517Y911071D01*
X642672Y913071D01*
X809679D01*
X842841Y879910D01*
X800489Y837558D01*
X789610Y848437D01*
Y853670D01*
Y859690D01*
X782320D01*
X775030D01*
Y853599D01*
X734407D01*
X732849Y855328D01*
Y861150D01*
X733967Y861796D01*
X735864Y863693D01*
X737206Y866017D01*
X737900Y868608D01*
Y871292D01*
X737206Y873883D01*
X735864Y876207D01*
X733967Y878104D01*
X731643Y879446D01*
X729052Y880140D01*
X726368D01*
X723777Y879446D01*
X721453Y878104D01*
X719556Y876207D01*
X718214Y873883D01*
X717520Y871292D01*
Y868608D01*
X718214Y866017D01*
X719556Y863693D01*
X721453Y861796D01*
X722571Y861150D01*
Y853350D01*
X721453Y852704D01*
X719556Y850807D01*
X718214Y848483D01*
X717520Y845892D01*
Y843208D01*
X718214Y840617D01*
X719556Y838293D01*
X721453Y836396D01*
X723777Y835054D01*
X726368Y834360D01*
X729052D01*
X731643Y835054D01*
X733967Y836396D01*
X735864Y838293D01*
X737206Y840617D01*
X737900Y843208D01*
Y843321D01*
X775030D01*
Y841170D01*
X782343D01*
X795350Y828163D01*
Y719678D01*
X793926Y718255D01*
X792812Y716588D01*
X792421Y714621D01*
Y662940D01*
X792812Y660974D01*
X793926Y659306D01*
X814643Y638590D01*
X816310Y637476D01*
X818276Y637085D01*
X868612D01*
X870091Y634524D01*
X872425Y632189D01*
X875285Y630538D01*
X878474Y629684D01*
X881776D01*
X882333Y629833D01*
X883920Y628615D01*
Y621030D01*
X914326D01*
Y633941D01*
X894131D01*
X892976Y635941D01*
X893132Y636211D01*
X960649D01*
X969422Y627439D01*
X921161Y579179D01*
X901725D01*
Y582955D01*
X883895D01*
Y565125D01*
X901725D01*
Y568901D01*
X921161D01*
X944821Y545242D01*
Y396240D01*
X945212Y394273D01*
X946326Y392606D01*
X955216Y383716D01*
X956883Y382602D01*
X958850Y382211D01*
X990650D01*
Y379810D01*
X1003650D01*
X1003730Y379810D01*
X1005650D01*
X1005730Y379810D01*
X1018730D01*
Y383741D01*
X1052875D01*
X1055180Y381436D01*
Y375460D01*
X1068260D01*
Y386540D01*
X1060284D01*
X1058864Y387960D01*
X1059693Y389960D01*
X1060450D01*
Y394230D01*
X1055180D01*
Y391624D01*
X1054370Y390959D01*
X1018730D01*
Y394890D01*
X1005730D01*
X1005650Y394890D01*
X1003730D01*
X1003650Y394890D01*
X990650D01*
Y392489D01*
X960978D01*
X955099Y398368D01*
Y547370D01*
X954708Y549337D01*
X953594Y551004D01*
X930557Y574040D01*
X978818Y622300D01*
X1012911D01*
Y617620D01*
X1010560D01*
Y574640D01*
X1025540D01*
Y617620D01*
X1023189D01*
Y624510D01*
X1022798Y626477D01*
X1021684Y628144D01*
X1018755Y631073D01*
X1017088Y632187D01*
X1015121Y632578D01*
X978818D01*
X966412Y644984D01*
X964744Y646098D01*
X962778Y646489D01*
X891965D01*
X891811Y647064D01*
X890160Y649923D01*
X887825Y652258D01*
X884965Y653909D01*
X881776Y654764D01*
X878474D01*
X875285Y653909D01*
X872425Y652258D01*
X870091Y649923D01*
X868612Y647362D01*
X820405D01*
X802699Y665069D01*
Y712411D01*
X822452D01*
Y687451D01*
X859028D01*
Y747649D01*
X822452D01*
Y722689D01*
X805628D01*
Y828163D01*
X852236Y874771D01*
X1125161D01*
Y817880D01*
X1125552Y815913D01*
X1126666Y814246D01*
X1179771Y761142D01*
Y549910D01*
X1180162Y547943D01*
X1181276Y546276D01*
X1198567Y528985D01*
X1198380Y528286D01*
Y525814D01*
X1199020Y523426D01*
X1200256Y521284D01*
X1202004Y519536D01*
X1204146Y518300D01*
X1206534Y517660D01*
X1209006D01*
X1211394Y518300D01*
X1213536Y519536D01*
X1215284Y521284D01*
X1216520Y523426D01*
X1217160Y525814D01*
Y528286D01*
X1216520Y530674D01*
X1215284Y532816D01*
X1213536Y534564D01*
X1211394Y535800D01*
X1209006Y536440D01*
X1206534D01*
X1205835Y536253D01*
X1190049Y552038D01*
Y763270D01*
X1189658Y765237D01*
X1188544Y766904D01*
X1135439Y820008D01*
Y874771D01*
X1150950D01*
Y868680D01*
X1158240D01*
X1165530D01*
Y874771D01*
X1188720D01*
Y873760D01*
X1209040D01*
Y894080D01*
X1188720D01*
Y885049D01*
X1165530D01*
Y887200D01*
X1150950D01*
Y885049D01*
X852236D01*
X815442Y921844D01*
X813774Y922958D01*
X811808Y923349D01*
X602269D01*
X601939Y924248D01*
X601918Y925349D01*
X603629Y926336D01*
X605284Y927991D01*
X606454Y930019D01*
X607060Y932280D01*
Y934620D01*
X606454Y936881D01*
X605284Y938909D01*
X603629Y940564D01*
X601601Y941734D01*
X599340Y942340D01*
D02*
G37*
G36*
X508700Y843280D02*
X499780D01*
Y834360D01*
X499852D01*
X502443Y835054D01*
X504767Y836396D01*
X506664Y838293D01*
X508006Y840617D01*
X508700Y843208D01*
Y843280D01*
D02*
G37*
G36*
X497240D02*
X488320D01*
Y843208D01*
X489014Y840617D01*
X490356Y838293D01*
X492253Y836396D01*
X494577Y835054D01*
X497168Y834360D01*
X497240D01*
Y843280D01*
D02*
G37*
G36*
X1200218D02*
X1197542D01*
X1194958Y842588D01*
X1192642Y841250D01*
X1190750Y839358D01*
X1189412Y837042D01*
X1188720Y834458D01*
Y831782D01*
X1189412Y829198D01*
X1190750Y826882D01*
X1192642Y824990D01*
X1194958Y823652D01*
X1197542Y822960D01*
X1200218D01*
X1202802Y823652D01*
X1205118Y824990D01*
X1207010Y826882D01*
X1208348Y829198D01*
X1209040Y831782D01*
Y834458D01*
X1208348Y837042D01*
X1207010Y839358D01*
X1205118Y841250D01*
X1202802Y842588D01*
X1200218Y843280D01*
D02*
G37*
G36*
X499852Y829340D02*
X499780D01*
Y820420D01*
X508700D01*
Y820492D01*
X508006Y823083D01*
X506664Y825407D01*
X504767Y827304D01*
X502443Y828646D01*
X499852Y829340D01*
D02*
G37*
G36*
X497240D02*
X497168D01*
X494577Y828646D01*
X492253Y827304D01*
X490356Y825407D01*
X489014Y823083D01*
X488320Y820492D01*
Y820420D01*
X497240D01*
Y829340D01*
D02*
G37*
G36*
X314926Y834890D02*
X312454D01*
X310066Y834250D01*
X307924Y833014D01*
X306176Y831266D01*
X304940Y829124D01*
X304300Y826736D01*
Y824264D01*
X304940Y821876D01*
X306176Y819734D01*
X307924Y817986D01*
X310066Y816750D01*
X312454Y816110D01*
X314926D01*
X317314Y816750D01*
X319456Y817986D01*
X321204Y819734D01*
X322440Y821876D01*
X323080Y824264D01*
Y826736D01*
X322440Y829124D01*
X321204Y831266D01*
X319456Y833014D01*
X317314Y834250D01*
X314926Y834890D01*
D02*
G37*
G36*
X508700Y817880D02*
X499780D01*
Y808960D01*
X499852D01*
X502443Y809654D01*
X504767Y810996D01*
X506664Y812893D01*
X508006Y815217D01*
X508700Y817808D01*
Y817880D01*
D02*
G37*
G36*
X497240D02*
X488320D01*
Y817808D01*
X489014Y815217D01*
X490356Y812893D01*
X492253Y810996D01*
X494577Y809654D01*
X497168Y808960D01*
X497240D01*
Y817880D01*
D02*
G37*
G36*
X789610Y814910D02*
X783590D01*
Y808890D01*
X789610D01*
Y814910D01*
D02*
G37*
G36*
X781050D02*
X775030D01*
Y808890D01*
X781050D01*
Y814910D01*
D02*
G37*
G36*
X1200218Y817880D02*
X1197542D01*
X1194958Y817188D01*
X1192642Y815850D01*
X1190750Y813958D01*
X1189412Y811642D01*
X1188720Y809058D01*
Y806382D01*
X1189412Y803798D01*
X1190750Y801482D01*
X1192642Y799590D01*
X1194958Y798252D01*
X1197542Y797560D01*
X1200218D01*
X1202802Y798252D01*
X1205118Y799590D01*
X1207010Y801482D01*
X1208348Y803798D01*
X1209040Y806382D01*
Y809058D01*
X1208348Y811642D01*
X1207010Y813958D01*
X1205118Y815850D01*
X1202802Y817188D01*
X1200218Y817880D01*
D02*
G37*
G36*
X499852Y803940D02*
X499780D01*
Y795020D01*
X508700D01*
Y795092D01*
X508006Y797683D01*
X506664Y800007D01*
X504767Y801904D01*
X502443Y803246D01*
X499852Y803940D01*
D02*
G37*
G36*
X497240D02*
X497168D01*
X494577Y803246D01*
X492253Y801904D01*
X490356Y800007D01*
X489014Y797683D01*
X488320Y795092D01*
Y795020D01*
X497240D01*
Y803940D01*
D02*
G37*
G36*
X729052Y829340D02*
X726368D01*
X723777Y828646D01*
X721453Y827304D01*
X719556Y825407D01*
X718214Y823083D01*
X717520Y820492D01*
Y817808D01*
X718214Y815217D01*
X719556Y812893D01*
X721453Y810996D01*
X722571Y810350D01*
Y802550D01*
X721453Y801904D01*
X719556Y800007D01*
X718214Y797683D01*
X717520Y795092D01*
Y792408D01*
X718214Y789817D01*
X719556Y787493D01*
X721453Y785596D01*
X722571Y784950D01*
Y777150D01*
X721453Y776504D01*
X719556Y774607D01*
X718214Y772283D01*
X717520Y769692D01*
Y767008D01*
X718214Y764417D01*
X719556Y762093D01*
X721453Y760196D01*
X723777Y758854D01*
X726368Y758160D01*
X729052D01*
X730299Y758494D01*
X744161Y744632D01*
Y394558D01*
X742092Y392489D01*
X737900D01*
Y397540D01*
X717520D01*
Y377160D01*
X722571D01*
Y341630D01*
X722962Y339664D01*
X724076Y337996D01*
X755150Y306923D01*
Y295410D01*
X773930D01*
Y314190D01*
X762417D01*
X732849Y343759D01*
Y377160D01*
X737900D01*
Y382211D01*
X744220D01*
X746187Y382602D01*
X747854Y383716D01*
X752934Y388796D01*
X754048Y390463D01*
X754439Y392430D01*
Y605416D01*
X756439Y606571D01*
X757081Y606200D01*
Y600750D01*
X757355Y599369D01*
X758138Y598198D01*
X773983Y582353D01*
X773430Y580290D01*
Y577950D01*
X774036Y575689D01*
X775206Y573661D01*
X776861Y572006D01*
X778889Y570836D01*
X781150Y570230D01*
X783490D01*
X785751Y570836D01*
X787779Y572006D01*
X789434Y573661D01*
X790604Y575689D01*
X791210Y577950D01*
Y580290D01*
X790604Y582551D01*
X789434Y584579D01*
X787779Y586234D01*
X785751Y587404D01*
X783490Y588010D01*
X781150D01*
X779087Y587457D01*
X764299Y602245D01*
Y607769D01*
X766149Y608836D01*
X767804Y610491D01*
X768974Y612519D01*
X769580Y614780D01*
Y617120D01*
X768974Y619381D01*
X767804Y621409D01*
X766149Y623064D01*
X764121Y624234D01*
X761860Y624840D01*
X759520D01*
X757259Y624234D01*
X756439Y623761D01*
X754439Y624916D01*
Y746760D01*
X754048Y748727D01*
X752934Y750394D01*
X737566Y765761D01*
X737900Y767008D01*
Y769404D01*
X738461Y770076D01*
X739649Y770890D01*
X774544D01*
Y783801D01*
X761751D01*
X761487Y785801D01*
X761760Y785875D01*
X764620Y787525D01*
X766954Y789860D01*
X767729Y791201D01*
X775030D01*
Y787830D01*
X789610D01*
Y800330D01*
Y806350D01*
X782320D01*
X775030D01*
Y801479D01*
X768852D01*
X768605Y802400D01*
X766954Y805260D01*
X764620Y807595D01*
X761760Y809245D01*
X758571Y810100D01*
X755269D01*
X752080Y809245D01*
X749220Y807595D01*
X746886Y805260D01*
X745235Y802400D01*
X744804Y800794D01*
X735077D01*
X733967Y801904D01*
X732849Y802550D01*
Y810350D01*
X733967Y810996D01*
X735864Y812893D01*
X737206Y815217D01*
X737900Y817808D01*
Y820492D01*
X737206Y823083D01*
X735864Y825407D01*
X733967Y827304D01*
X731643Y828646D01*
X729052Y829340D01*
D02*
G37*
G36*
X508700Y792480D02*
X499780D01*
Y783560D01*
X499852D01*
X502443Y784254D01*
X504767Y785596D01*
X506664Y787493D01*
X508006Y789817D01*
X508700Y792408D01*
Y792480D01*
D02*
G37*
G36*
X497240D02*
X488320D01*
Y792408D01*
X489014Y789817D01*
X490356Y787493D01*
X492253Y785596D01*
X494577Y784254D01*
X497168Y783560D01*
X497240D01*
Y792480D01*
D02*
G37*
G36*
X499852Y778540D02*
X497168D01*
X494577Y777846D01*
X492253Y776504D01*
X490356Y774607D01*
X489014Y772283D01*
X488320Y769692D01*
Y767008D01*
X489014Y764417D01*
X490356Y762093D01*
X492253Y760196D01*
X494577Y758854D01*
X497168Y758160D01*
X499852D01*
X502443Y758854D01*
X504767Y760196D01*
X506664Y762093D01*
X508006Y764417D01*
X508700Y767008D01*
Y769692D01*
X508006Y772283D01*
X506664Y774607D01*
X504767Y776504D01*
X502443Y777846D01*
X499852Y778540D01*
D02*
G37*
G36*
X997330Y747490D02*
X988060D01*
Y733970D01*
X997330D01*
Y747490D01*
D02*
G37*
G36*
X985520D02*
X976250D01*
Y733970D01*
X985520D01*
Y747490D01*
D02*
G37*
G36*
X729052Y753140D02*
X726368D01*
X723777Y752446D01*
X721453Y751104D01*
X719556Y749207D01*
X718214Y746883D01*
X717520Y744292D01*
Y741608D01*
X718214Y739017D01*
X719556Y736693D01*
X721453Y734796D01*
X723777Y733454D01*
X726368Y732760D01*
X729052D01*
X731643Y733454D01*
X733967Y734796D01*
X735864Y736693D01*
X737206Y739017D01*
X737900Y741608D01*
Y744292D01*
X737206Y746883D01*
X735864Y749207D01*
X733967Y751104D01*
X731643Y752446D01*
X729052Y753140D01*
D02*
G37*
G36*
X499852D02*
X497168D01*
X494577Y752446D01*
X492253Y751104D01*
X490356Y749207D01*
X489014Y746883D01*
X488320Y744292D01*
Y741608D01*
X489014Y739017D01*
X490356Y736693D01*
X492253Y734796D01*
X494577Y733454D01*
X497168Y732760D01*
X499852D01*
X502443Y733454D01*
X504767Y734796D01*
X506664Y736693D01*
X508006Y739017D01*
X508700Y741608D01*
Y744292D01*
X508006Y746883D01*
X506664Y749207D01*
X504767Y751104D01*
X502443Y752446D01*
X499852Y753140D01*
D02*
G37*
G36*
X729052Y727740D02*
X728980D01*
Y718820D01*
X737900D01*
Y718892D01*
X737206Y721483D01*
X735864Y723807D01*
X733967Y725704D01*
X731643Y727046D01*
X729052Y727740D01*
D02*
G37*
G36*
X726440D02*
X726368D01*
X723777Y727046D01*
X721453Y725704D01*
X719556Y723807D01*
X718214Y721483D01*
X717520Y718892D01*
Y718820D01*
X726440D01*
Y727740D01*
D02*
G37*
G36*
X997330Y731430D02*
X988060D01*
Y717910D01*
X997330D01*
Y731430D01*
D02*
G37*
G36*
X985520D02*
X976250D01*
Y717910D01*
X985520D01*
Y731430D01*
D02*
G37*
G36*
X356870Y719311D02*
Y711200D01*
X364981D01*
X364350Y713554D01*
X363114Y715696D01*
X361366Y717444D01*
X359224Y718680D01*
X356870Y719311D01*
D02*
G37*
G36*
X354330D02*
X351976Y718680D01*
X349834Y717444D01*
X348086Y715696D01*
X346850Y713554D01*
X346219Y711200D01*
X354330D01*
Y719311D01*
D02*
G37*
G36*
X1144740Y715891D02*
Y708660D01*
X1151971D01*
X1151428Y710686D01*
X1150304Y712634D01*
X1148714Y714224D01*
X1146766Y715348D01*
X1144740Y715891D01*
D02*
G37*
G36*
X1142200D02*
X1140174Y715348D01*
X1138226Y714224D01*
X1136636Y712634D01*
X1135512Y710686D01*
X1134969Y708660D01*
X1142200D01*
Y715891D01*
D02*
G37*
G36*
X737900Y716280D02*
X728980D01*
Y707360D01*
X729052D01*
X731643Y708054D01*
X733967Y709396D01*
X735864Y711293D01*
X737206Y713617D01*
X737900Y716208D01*
Y716280D01*
D02*
G37*
G36*
X726440D02*
X717520D01*
Y716208D01*
X718214Y713617D01*
X719556Y711293D01*
X721453Y709396D01*
X723777Y708054D01*
X726368Y707360D01*
X726440D01*
Y716280D01*
D02*
G37*
G36*
X499852Y727740D02*
X497168D01*
X494577Y727046D01*
X492253Y725704D01*
X490356Y723807D01*
X489014Y721483D01*
X488320Y718892D01*
Y716208D01*
X489014Y713617D01*
X490356Y711293D01*
X492253Y709396D01*
X494577Y708054D01*
X497168Y707360D01*
X499852D01*
X502443Y708054D01*
X504767Y709396D01*
X506664Y711293D01*
X508006Y713617D01*
X508700Y716208D01*
Y718892D01*
X508006Y721483D01*
X506664Y723807D01*
X504767Y725704D01*
X502443Y727046D01*
X499852Y727740D01*
D02*
G37*
G36*
X364981Y708660D02*
X356870D01*
Y700549D01*
X359224Y701180D01*
X361366Y702416D01*
X363114Y704164D01*
X364350Y706306D01*
X364981Y708660D01*
D02*
G37*
G36*
X354330D02*
X346219D01*
X346850Y706306D01*
X348086Y704164D01*
X349834Y702416D01*
X351976Y701180D01*
X354330Y700549D01*
Y708660D01*
D02*
G37*
G36*
X1151971Y706120D02*
X1144740D01*
Y698889D01*
X1146766Y699432D01*
X1148714Y700556D01*
X1150304Y702146D01*
X1151428Y704094D01*
X1151971Y706120D01*
D02*
G37*
G36*
X1142200D02*
X1134969D01*
X1135512Y704094D01*
X1136636Y702146D01*
X1138226Y700556D01*
X1140174Y699432D01*
X1142200Y698889D01*
Y706120D01*
D02*
G37*
G36*
X1102010Y715930D02*
X1084930D01*
Y713986D01*
X1053706D01*
X1051999Y713762D01*
X1050408Y713103D01*
X1049042Y712054D01*
X1044356Y707368D01*
X1043307Y706002D01*
X1042648Y704411D01*
X1042424Y702704D01*
Y659130D01*
X1042648Y657423D01*
X1043307Y655832D01*
X1044356Y654466D01*
X1066164Y632657D01*
X1065252Y631744D01*
X1064204Y630378D01*
X1063545Y628787D01*
X1063320Y627080D01*
Y617620D01*
X1061560D01*
Y574640D01*
X1076540D01*
Y617620D01*
X1076513D01*
Y624348D01*
X1081839Y629674D01*
X1107641D01*
X1108464Y628851D01*
Y384785D01*
X1106090Y383414D01*
X1103755Y381080D01*
X1102105Y378220D01*
X1101250Y375031D01*
Y371729D01*
X1102105Y368540D01*
X1103755Y365680D01*
X1106090Y363345D01*
X1108464Y361975D01*
Y347779D01*
X1107641Y346956D01*
X1042670D01*
X1040963Y346732D01*
X1039372Y346073D01*
X1038006Y345024D01*
X1032926Y339944D01*
X1031877Y338578D01*
X1031218Y336987D01*
X1030994Y335280D01*
Y318665D01*
X1030324Y317995D01*
X1029129Y315925D01*
X1028510Y313615D01*
Y311225D01*
X1029129Y308915D01*
X1030324Y306845D01*
X1030994Y306175D01*
Y274119D01*
X1030171Y273296D01*
X405322D01*
X329430Y349189D01*
Y350486D01*
X328790Y352874D01*
X327554Y355016D01*
X325806Y356764D01*
X323664Y358000D01*
X321276Y358640D01*
X318804D01*
X316416Y358000D01*
X314274Y356764D01*
X312526Y355016D01*
X311290Y352874D01*
X310650Y350486D01*
Y348014D01*
X311290Y345626D01*
X312526Y343484D01*
X314274Y341736D01*
X316416Y340500D01*
X318804Y339860D01*
X320101D01*
X327157Y332804D01*
X325806Y331364D01*
X323664Y332600D01*
X321310Y333231D01*
Y325120D01*
X329421D01*
X328790Y327474D01*
X327554Y329616D01*
X328994Y330967D01*
X397926Y262036D01*
X399292Y260987D01*
X400883Y260328D01*
X402590Y260104D01*
X1032904D01*
X1034611Y260328D01*
X1036202Y260987D01*
X1037568Y262036D01*
X1042254Y266722D01*
X1043303Y268088D01*
X1043962Y269679D01*
X1044186Y271386D01*
Y306175D01*
X1044856Y306845D01*
X1046051Y308915D01*
X1046670Y311225D01*
Y313615D01*
X1046051Y315925D01*
X1044856Y317995D01*
X1044186Y318665D01*
Y332548D01*
X1045402Y333764D01*
X1110374D01*
X1112081Y333988D01*
X1113672Y334647D01*
X1115038Y335696D01*
X1119724Y340382D01*
X1120773Y341748D01*
X1121432Y343339D01*
X1121656Y345046D01*
Y363512D01*
X1123824Y365680D01*
X1125475Y368540D01*
X1126330Y371729D01*
Y375031D01*
X1125475Y378220D01*
X1123824Y381080D01*
X1121656Y383248D01*
Y410159D01*
X1123656Y411314D01*
X1124519Y410816D01*
X1126780Y410210D01*
X1129120D01*
X1131381Y410816D01*
X1133409Y411986D01*
X1135064Y413641D01*
X1136234Y415669D01*
X1136840Y417930D01*
Y420270D01*
X1136234Y422531D01*
X1135327Y424103D01*
X1203484Y492260D01*
X1217160D01*
Y511040D01*
X1198380D01*
Y497364D01*
X1129006Y427990D01*
X1126780D01*
X1124519Y427384D01*
X1123656Y426886D01*
X1121656Y428041D01*
Y631584D01*
X1121432Y633291D01*
X1120773Y634882D01*
X1119724Y636248D01*
X1115038Y640934D01*
X1113672Y641983D01*
X1112081Y642642D01*
X1110374Y642866D01*
X1079106D01*
X1077399Y642642D01*
X1075808Y641983D01*
X1075631Y641847D01*
X1055616Y661862D01*
Y699971D01*
X1056439Y700794D01*
X1084930D01*
Y698850D01*
X1102010D01*
Y715930D01*
D02*
G37*
G36*
X729052Y702340D02*
X726368D01*
X723777Y701646D01*
X721453Y700304D01*
X719556Y698407D01*
X718214Y696083D01*
X717520Y693492D01*
Y690808D01*
X718214Y688217D01*
X719556Y685893D01*
X721453Y683996D01*
X723777Y682654D01*
X726368Y681960D01*
X729052D01*
X731643Y682654D01*
X733967Y683996D01*
X735864Y685893D01*
X737206Y688217D01*
X737900Y690808D01*
Y693492D01*
X737206Y696083D01*
X735864Y698407D01*
X733967Y700304D01*
X731643Y701646D01*
X729052Y702340D01*
D02*
G37*
G36*
X499852D02*
X497168D01*
X494577Y701646D01*
X492253Y700304D01*
X490356Y698407D01*
X489014Y696083D01*
X488320Y693492D01*
Y690808D01*
X489014Y688217D01*
X489182Y687926D01*
X406570Y605314D01*
X405787Y604143D01*
X405513Y602762D01*
Y541427D01*
X323678Y459592D01*
X323664Y459600D01*
X321276Y460240D01*
X318804D01*
X316416Y459600D01*
X314274Y458364D01*
X312526Y456616D01*
X311290Y454474D01*
X311286Y454459D01*
X298352D01*
X296970Y454185D01*
X295799Y453402D01*
X294628Y452231D01*
X293845Y451060D01*
X293571Y449678D01*
Y401222D01*
X293845Y399840D01*
X294628Y398669D01*
X295799Y397498D01*
X296970Y396715D01*
X298352Y396441D01*
X311286D01*
X311290Y396426D01*
X312526Y394284D01*
X314274Y392536D01*
X316416Y391300D01*
X318804Y390660D01*
X321276D01*
X323664Y391300D01*
X325806Y392536D01*
X327554Y394284D01*
X328790Y396426D01*
X329430Y398814D01*
Y401286D01*
X328790Y403674D01*
X327554Y405816D01*
X325806Y407564D01*
X323664Y408800D01*
X321276Y409440D01*
X318804D01*
X316416Y408800D01*
X314274Y407564D01*
X312526Y405816D01*
X311290Y403674D01*
X311286Y403659D01*
X300789D01*
Y447241D01*
X311286D01*
X311290Y447226D01*
X312526Y445084D01*
X314274Y443336D01*
X316416Y442100D01*
X318804Y441460D01*
X321276D01*
X323664Y442100D01*
X325806Y443336D01*
X327554Y445084D01*
X328790Y447226D01*
X329430Y449614D01*
Y452086D01*
X328790Y454474D01*
X328782Y454488D01*
X411674Y537380D01*
X412457Y538551D01*
X412731Y539932D01*
Y601267D01*
X494286Y682822D01*
X494577Y682654D01*
X497168Y681960D01*
X499852D01*
X502443Y682654D01*
X504767Y683996D01*
X506664Y685893D01*
X508006Y688217D01*
X508700Y690808D01*
Y693492D01*
X508006Y696083D01*
X506664Y698407D01*
X504767Y700304D01*
X502443Y701646D01*
X499852Y702340D01*
D02*
G37*
G36*
X729052Y676940D02*
X726368D01*
X723777Y676246D01*
X721453Y674904D01*
X719556Y673007D01*
X718214Y670683D01*
X717520Y668092D01*
Y665408D01*
X718214Y662817D01*
X719556Y660493D01*
X721453Y658596D01*
X723777Y657254D01*
X726368Y656560D01*
X729052D01*
X731643Y657254D01*
X733967Y658596D01*
X735864Y660493D01*
X737206Y662817D01*
X737900Y665408D01*
Y668092D01*
X737206Y670683D01*
X735864Y673007D01*
X733967Y674904D01*
X731643Y676246D01*
X729052Y676940D01*
D02*
G37*
G36*
Y651540D02*
X726368D01*
X723777Y650846D01*
X721453Y649504D01*
X719556Y647607D01*
X718214Y645283D01*
X717520Y642692D01*
Y640008D01*
X718214Y637417D01*
X719556Y635093D01*
X721453Y633196D01*
X723777Y631854D01*
X726368Y631160D01*
X729052D01*
X731643Y631854D01*
X733967Y633196D01*
X735864Y635093D01*
X737206Y637417D01*
X737900Y640008D01*
Y642692D01*
X737206Y645283D01*
X735864Y647607D01*
X733967Y649504D01*
X731643Y650846D01*
X729052Y651540D01*
D02*
G37*
G36*
X499852D02*
X497168D01*
X494577Y650846D01*
X492253Y649504D01*
X490356Y647607D01*
X489014Y645283D01*
X488320Y642692D01*
Y640008D01*
X489014Y637417D01*
X490356Y635093D01*
X492253Y633196D01*
X494577Y631854D01*
X497168Y631160D01*
X499852D01*
X502443Y631854D01*
X504767Y633196D01*
X506664Y635093D01*
X508006Y637417D01*
X508700Y640008D01*
Y642692D01*
X508006Y645283D01*
X506664Y647607D01*
X504767Y649504D01*
X502443Y650846D01*
X499852Y651540D01*
D02*
G37*
G36*
X729052Y626140D02*
X726368D01*
X723777Y625446D01*
X721453Y624104D01*
X719556Y622207D01*
X718214Y619883D01*
X717520Y617292D01*
Y614608D01*
X718214Y612017D01*
X719556Y609693D01*
X721453Y607796D01*
X723777Y606454D01*
X726368Y605760D01*
X729052D01*
X731643Y606454D01*
X733967Y607796D01*
X735864Y609693D01*
X737206Y612017D01*
X737900Y614608D01*
Y617292D01*
X737206Y619883D01*
X735864Y622207D01*
X733967Y624104D01*
X731643Y625446D01*
X729052Y626140D01*
D02*
G37*
G36*
X499852D02*
X497168D01*
X494577Y625446D01*
X492253Y624104D01*
X490356Y622207D01*
X489014Y619883D01*
X488320Y617292D01*
Y614608D01*
X489014Y612017D01*
X490356Y609693D01*
X492253Y607796D01*
X494577Y606454D01*
X497168Y605760D01*
X499852D01*
X502443Y606454D01*
X504767Y607796D01*
X506664Y609693D01*
X508006Y612017D01*
X508700Y614608D01*
Y617292D01*
X508006Y619883D01*
X506664Y622207D01*
X504767Y624104D01*
X502443Y625446D01*
X499852Y626140D01*
D02*
G37*
G36*
X1042540Y617620D02*
X1036320D01*
Y597400D01*
X1042540D01*
Y617620D01*
D02*
G37*
G36*
X1033780D02*
X1027560D01*
Y597400D01*
X1033780D01*
Y617620D01*
D02*
G37*
G36*
X1008540D02*
X1002320D01*
Y597400D01*
X1008540D01*
Y617620D01*
D02*
G37*
G36*
X999780D02*
X993560D01*
Y597400D01*
X999780D01*
Y617620D01*
D02*
G37*
G36*
X676810Y820420D02*
X674470D01*
X672209Y819814D01*
X670181Y818644D01*
X668526Y816989D01*
X667356Y814961D01*
X666750Y812700D01*
Y810360D01*
X667356Y808099D01*
X668526Y806071D01*
X670181Y804416D01*
X672031Y803349D01*
Y642620D01*
X672305Y641239D01*
X673088Y640068D01*
X718382Y594773D01*
X718214Y594483D01*
X717520Y591892D01*
Y589208D01*
X718214Y586617D01*
X719556Y584293D01*
X721453Y582396D01*
X723777Y581054D01*
X726368Y580360D01*
X729052D01*
X731643Y581054D01*
X733967Y582396D01*
X735864Y584293D01*
X737206Y586617D01*
X737900Y589208D01*
Y591892D01*
X737206Y594483D01*
X735864Y596807D01*
X733967Y598704D01*
X731643Y600046D01*
X729052Y600740D01*
X726368D01*
X723777Y600046D01*
X723486Y599878D01*
X679249Y644115D01*
Y803349D01*
X681099Y804416D01*
X682754Y806071D01*
X683924Y808099D01*
X684530Y810360D01*
Y812700D01*
X683924Y814961D01*
X682754Y816989D01*
X681099Y818644D01*
X679071Y819814D01*
X676810Y820420D01*
D02*
G37*
G36*
X499852Y600740D02*
X497168D01*
X494577Y600046D01*
X492253Y598704D01*
X490356Y596807D01*
X489014Y594483D01*
X488320Y591892D01*
Y589208D01*
X489014Y586617D01*
X490356Y584293D01*
X492253Y582396D01*
X494577Y581054D01*
X497168Y580360D01*
X499852D01*
X502443Y581054D01*
X504767Y582396D01*
X506664Y584293D01*
X508006Y586617D01*
X508700Y589208D01*
Y591892D01*
X508006Y594483D01*
X506664Y596807D01*
X504767Y598704D01*
X502443Y600046D01*
X499852Y600740D01*
D02*
G37*
G36*
X859080Y582929D02*
Y575310D01*
X866699D01*
X866117Y577481D01*
X864944Y579514D01*
X863284Y581174D01*
X861251Y582347D01*
X859080Y582929D01*
D02*
G37*
G36*
X856540Y582929D02*
X854369Y582347D01*
X852336Y581174D01*
X850676Y579514D01*
X849502Y577481D01*
X848921Y575310D01*
X856540D01*
Y582929D01*
D02*
G37*
G36*
X955548Y747649D02*
X918972D01*
Y687451D01*
X954981D01*
Y669679D01*
X955372Y667712D01*
X956486Y666045D01*
X959415Y663116D01*
X961082Y662002D01*
X963049Y661611D01*
X968090D01*
X970057Y662002D01*
X971724Y663116D01*
X983517Y674910D01*
X991794D01*
X992290Y674811D01*
X992551D01*
X1046911Y620452D01*
Y617620D01*
X1044560D01*
Y574640D01*
X1059540D01*
Y617620D01*
X1057189D01*
Y622580D01*
X1056798Y624547D01*
X1055684Y626214D01*
X998314Y683584D01*
X997330Y684241D01*
Y704490D01*
X976250D01*
Y682177D01*
X967259Y673186D01*
X965259Y674014D01*
Y707001D01*
X964868Y708968D01*
X963754Y710635D01*
X962086Y711749D01*
X960120Y712140D01*
X955548D01*
Y747649D01*
D02*
G37*
G36*
X1042540Y594860D02*
X1036320D01*
Y574640D01*
X1042540D01*
Y594860D01*
D02*
G37*
G36*
X1033780D02*
X1027560D01*
Y574640D01*
X1033780D01*
Y594860D01*
D02*
G37*
G36*
X1008540Y594860D02*
X1002320D01*
Y574640D01*
X1008540D01*
Y594860D01*
D02*
G37*
G36*
X999780D02*
X993560D01*
Y574640D01*
X999780D01*
Y594860D01*
D02*
G37*
G36*
X866699Y572770D02*
X859080D01*
Y565151D01*
X861251Y565732D01*
X863284Y566906D01*
X864944Y568566D01*
X866117Y570599D01*
X866699Y572770D01*
D02*
G37*
G36*
X856540D02*
X848921D01*
X849502Y570599D01*
X850676Y568566D01*
X852336Y566906D01*
X854369Y565732D01*
X856540Y565151D01*
Y572770D01*
D02*
G37*
G36*
X729052Y575340D02*
X726368D01*
X723777Y574646D01*
X721453Y573304D01*
X719556Y571407D01*
X718214Y569083D01*
X717520Y566492D01*
Y563808D01*
X718214Y561217D01*
X719556Y558893D01*
X721453Y556996D01*
X723777Y555654D01*
X726368Y554960D01*
X729052D01*
X731643Y555654D01*
X733967Y556996D01*
X735864Y558893D01*
X737206Y561217D01*
X737900Y563808D01*
Y566492D01*
X737206Y569083D01*
X735864Y571407D01*
X733967Y573304D01*
X731643Y574646D01*
X729052Y575340D01*
D02*
G37*
G36*
X499852D02*
X497168D01*
X494577Y574646D01*
X492253Y573304D01*
X490356Y571407D01*
X489014Y569083D01*
X488320Y566492D01*
Y563808D01*
X489014Y561217D01*
X490356Y558893D01*
X492253Y556996D01*
X494577Y555654D01*
X497168Y554960D01*
X499852D01*
X502443Y555654D01*
X504767Y556996D01*
X506664Y558893D01*
X508006Y561217D01*
X508700Y563808D01*
Y566492D01*
X508006Y569083D01*
X506664Y571407D01*
X504767Y573304D01*
X502443Y574646D01*
X499852Y575340D01*
D02*
G37*
G36*
X1209040Y561831D02*
Y553720D01*
X1217151D01*
X1216520Y556074D01*
X1215284Y558216D01*
X1213536Y559964D01*
X1211394Y561200D01*
X1209040Y561831D01*
D02*
G37*
G36*
X1206500D02*
X1204146Y561200D01*
X1202004Y559964D01*
X1200256Y558216D01*
X1199020Y556074D01*
X1198389Y553720D01*
X1206500D01*
Y561831D01*
D02*
G37*
G36*
X1217151Y551180D02*
X1209040D01*
Y543069D01*
X1211394Y543700D01*
X1213536Y544936D01*
X1215284Y546684D01*
X1216520Y548826D01*
X1217151Y551180D01*
D02*
G37*
G36*
X1206500D02*
X1198389D01*
X1199020Y548826D01*
X1200256Y546684D01*
X1202004Y544936D01*
X1204146Y543700D01*
X1206500Y543069D01*
Y551180D01*
D02*
G37*
G36*
X499852Y549940D02*
X499780D01*
Y541020D01*
X508700D01*
Y541092D01*
X508006Y543683D01*
X506664Y546007D01*
X504767Y547904D01*
X502443Y549246D01*
X499852Y549940D01*
D02*
G37*
G36*
X497240D02*
X497168D01*
X494577Y549246D01*
X492253Y547904D01*
X490356Y546007D01*
X489014Y543683D01*
X488320Y541092D01*
Y541020D01*
X497240D01*
Y549940D01*
D02*
G37*
G36*
X729052D02*
X726368D01*
X723777Y549246D01*
X721453Y547904D01*
X719556Y546007D01*
X718214Y543683D01*
X717520Y541092D01*
Y538408D01*
X718214Y535817D01*
X719556Y533493D01*
X721453Y531596D01*
X723777Y530254D01*
X726368Y529560D01*
X729052D01*
X731643Y530254D01*
X733967Y531596D01*
X735864Y533493D01*
X737206Y535817D01*
X737900Y538408D01*
Y541092D01*
X737206Y543683D01*
X735864Y546007D01*
X733967Y547904D01*
X731643Y549246D01*
X729052Y549940D01*
D02*
G37*
G36*
X508700Y538480D02*
X499780D01*
Y529560D01*
X499852D01*
X502443Y530254D01*
X504767Y531596D01*
X506664Y533493D01*
X508006Y535817D01*
X508700Y538408D01*
Y538480D01*
D02*
G37*
G36*
X497240D02*
X488320D01*
Y538408D01*
X489014Y535817D01*
X490356Y533493D01*
X492253Y531596D01*
X494577Y530254D01*
X497168Y529560D01*
X497240D01*
Y538480D01*
D02*
G37*
G36*
X660300Y850900D02*
X657960D01*
X655699Y850294D01*
X653671Y849124D01*
X652016Y847469D01*
X650846Y845441D01*
X650240Y843180D01*
Y840840D01*
X650846Y838579D01*
X652016Y836551D01*
X653671Y834896D01*
X655521Y833829D01*
Y582930D01*
X655795Y581549D01*
X656578Y580378D01*
X718382Y518573D01*
X718214Y518283D01*
X717520Y515692D01*
Y513008D01*
X718214Y510417D01*
X719556Y508093D01*
X721453Y506196D01*
X723777Y504854D01*
X726368Y504160D01*
X729052D01*
X731643Y504854D01*
X733967Y506196D01*
X735864Y508093D01*
X737206Y510417D01*
X737900Y513008D01*
Y515692D01*
X737206Y518283D01*
X735864Y520607D01*
X733967Y522504D01*
X731643Y523846D01*
X729052Y524540D01*
X726368D01*
X723777Y523846D01*
X723486Y523678D01*
X662739Y584425D01*
Y833829D01*
X664589Y834896D01*
X666244Y836551D01*
X667414Y838579D01*
X668020Y840840D01*
Y843180D01*
X667414Y845441D01*
X666244Y847469D01*
X664589Y849124D01*
X662561Y850294D01*
X660300Y850900D01*
D02*
G37*
G36*
X499852Y524540D02*
X497168D01*
X494577Y523846D01*
X492253Y522504D01*
X490356Y520607D01*
X489014Y518283D01*
X488320Y515692D01*
Y513008D01*
X489014Y510417D01*
X490356Y508093D01*
X492253Y506196D01*
X494577Y504854D01*
X497168Y504160D01*
X499852D01*
X502443Y504854D01*
X504767Y506196D01*
X506664Y508093D01*
X508006Y510417D01*
X508700Y513008D01*
Y515692D01*
X508006Y518283D01*
X506664Y520607D01*
X504767Y522504D01*
X502443Y523846D01*
X499852Y524540D01*
D02*
G37*
G36*
X1091790Y530570D02*
X1036320D01*
Y489900D01*
X1091790D01*
Y530570D01*
D02*
G37*
G36*
X1033780D02*
X978310D01*
Y489900D01*
X1033780D01*
Y530570D01*
D02*
G37*
G36*
X729052Y499140D02*
X726368D01*
X723777Y498446D01*
X721453Y497104D01*
X719556Y495207D01*
X718214Y492883D01*
X717520Y490292D01*
Y487608D01*
X718214Y485017D01*
X719556Y482693D01*
X721453Y480796D01*
X723777Y479454D01*
X726368Y478760D01*
X729052D01*
X731643Y479454D01*
X733967Y480796D01*
X735864Y482693D01*
X737206Y485017D01*
X737900Y487608D01*
Y490292D01*
X737206Y492883D01*
X735864Y495207D01*
X733967Y497104D01*
X731643Y498446D01*
X729052Y499140D01*
D02*
G37*
G36*
X499852D02*
X497168D01*
X494577Y498446D01*
X492253Y497104D01*
X490356Y495207D01*
X489014Y492883D01*
X488320Y490292D01*
Y487608D01*
X489014Y485017D01*
X490356Y482693D01*
X492253Y480796D01*
X494577Y479454D01*
X497168Y478760D01*
X499852D01*
X502443Y479454D01*
X504767Y480796D01*
X506664Y482693D01*
X508006Y485017D01*
X508700Y487608D01*
Y490292D01*
X508006Y492883D01*
X506664Y495207D01*
X504767Y497104D01*
X502443Y498446D01*
X499852Y499140D01*
D02*
G37*
G36*
X321276Y485640D02*
X318804D01*
X316416Y485000D01*
X314274Y483764D01*
X312526Y482016D01*
X311290Y479874D01*
X310650Y477486D01*
Y475014D01*
X311290Y472626D01*
X312526Y470484D01*
X314274Y468736D01*
X316416Y467500D01*
X318804Y466860D01*
X321276D01*
X323664Y467500D01*
X325806Y468736D01*
X327554Y470484D01*
X328790Y472626D01*
X329430Y475014D01*
Y477486D01*
X328790Y479874D01*
X327554Y482016D01*
X325806Y483764D01*
X323664Y485000D01*
X321276Y485640D01*
D02*
G37*
G36*
X729052Y473740D02*
X726368D01*
X723777Y473046D01*
X721453Y471704D01*
X719556Y469807D01*
X718214Y467483D01*
X717520Y464892D01*
Y462208D01*
X718214Y459617D01*
X719556Y457293D01*
X721453Y455396D01*
X723777Y454054D01*
X726368Y453360D01*
X729052D01*
X731643Y454054D01*
X733967Y455396D01*
X735864Y457293D01*
X737206Y459617D01*
X737900Y462208D01*
Y464892D01*
X737206Y467483D01*
X735864Y469807D01*
X733967Y471704D01*
X731643Y473046D01*
X729052Y473740D01*
D02*
G37*
G36*
X499852D02*
X497168D01*
X494577Y473046D01*
X492253Y471704D01*
X490356Y469807D01*
X489014Y467483D01*
X488320Y464892D01*
Y462208D01*
X489014Y459617D01*
X490356Y457293D01*
X492253Y455396D01*
X494577Y454054D01*
X497168Y453360D01*
X499852D01*
X502443Y454054D01*
X504767Y455396D01*
X506664Y457293D01*
X508006Y459617D01*
X508700Y462208D01*
Y464892D01*
X508006Y467483D01*
X506664Y469807D01*
X504767Y471704D01*
X502443Y473046D01*
X499852Y473740D01*
D02*
G37*
G36*
Y676940D02*
X497168D01*
X494577Y676246D01*
X492253Y674904D01*
X490356Y673007D01*
X489014Y670683D01*
X488320Y668092D01*
Y665408D01*
X489014Y662817D01*
X490356Y660493D01*
X492253Y658596D01*
X494577Y657254D01*
X497168Y656560D01*
X499852D01*
X502443Y657254D01*
X504767Y658596D01*
X506664Y660493D01*
X508006Y662817D01*
X508092Y663141D01*
X547571D01*
Y516890D01*
X547845Y515509D01*
X548628Y514338D01*
X608228Y454737D01*
X607001Y453137D01*
X605411Y454054D01*
X603150Y454660D01*
X600810D01*
X598549Y454054D01*
X596521Y452884D01*
X594866Y451229D01*
X593696Y449201D01*
X593090Y446940D01*
Y444600D01*
X593508Y443038D01*
X539614Y389144D01*
X539371Y389284D01*
X537110Y389890D01*
X534770D01*
X532509Y389284D01*
X530481Y388114D01*
X528826Y386459D01*
X527656Y384431D01*
X527050Y382170D01*
Y379830D01*
X527656Y377569D01*
X528826Y375541D01*
X530481Y373886D01*
X532509Y372716D01*
X534770Y372110D01*
X537110D01*
X539371Y372716D01*
X541399Y373886D01*
X543054Y375541D01*
X544224Y377569D01*
X544830Y379830D01*
Y382170D01*
X544412Y383732D01*
X598306Y437626D01*
X598549Y437486D01*
X600810Y436880D01*
X603150D01*
X605411Y437486D01*
X607439Y438656D01*
X609094Y440311D01*
X610264Y442339D01*
X610870Y444600D01*
Y446940D01*
X610264Y449201D01*
X609347Y450790D01*
X610947Y452019D01*
X622139Y440826D01*
X621104Y439033D01*
X619660Y439420D01*
X617320D01*
X615059Y438814D01*
X613031Y437644D01*
X611376Y435989D01*
X610206Y433961D01*
X609600Y431700D01*
Y429360D01*
X609884Y428299D01*
X556527Y374941D01*
X555881Y375314D01*
X553620Y375920D01*
X551280D01*
X549019Y375314D01*
X546991Y374144D01*
X545336Y372489D01*
X544166Y370461D01*
X543560Y368200D01*
Y365860D01*
X544166Y363599D01*
X545336Y361571D01*
X546991Y359916D01*
X549019Y358746D01*
X551280Y358140D01*
X553620D01*
X555881Y358746D01*
X557909Y359916D01*
X559564Y361571D01*
X560734Y363599D01*
X561340Y365860D01*
Y368200D01*
X561056Y369261D01*
X614413Y422619D01*
X615059Y422246D01*
X617320Y421640D01*
X619660D01*
X621921Y422246D01*
X623949Y423416D01*
X625604Y425071D01*
X626774Y427099D01*
X627380Y429360D01*
Y431700D01*
X626993Y433144D01*
X628786Y434179D01*
X710131Y352835D01*
Y313554D01*
X710116Y313550D01*
X707974Y312314D01*
X706226Y310566D01*
X704990Y308424D01*
X704350Y306036D01*
Y303564D01*
X704990Y301176D01*
X706226Y299034D01*
X707974Y297286D01*
X710116Y296050D01*
X712504Y295410D01*
X714976D01*
X717364Y296050D01*
X719506Y297286D01*
X721254Y299034D01*
X722490Y301176D01*
X723130Y303564D01*
Y306036D01*
X722490Y308424D01*
X721254Y310566D01*
X719506Y312314D01*
X717364Y313550D01*
X717349Y313554D01*
Y354330D01*
X717075Y355711D01*
X716292Y356882D01*
X554789Y518385D01*
Y665578D01*
X554515Y666960D01*
X553732Y668131D01*
X552561Y669302D01*
X551390Y670085D01*
X550008Y670359D01*
X508092D01*
X508006Y670683D01*
X506664Y673007D01*
X504767Y674904D01*
X502443Y676246D01*
X499852Y676940D01*
D02*
G37*
G36*
X1091790Y487360D02*
X1036320D01*
Y446690D01*
X1091790D01*
Y487360D01*
D02*
G37*
G36*
X1033780D02*
X978310D01*
Y446690D01*
X1033780D01*
Y487360D01*
D02*
G37*
G36*
X729052Y448340D02*
X726368D01*
X723777Y447646D01*
X721453Y446304D01*
X719556Y444407D01*
X718214Y442083D01*
X717520Y439492D01*
Y436808D01*
X718214Y434217D01*
X719556Y431893D01*
X721453Y429996D01*
X723777Y428654D01*
X726368Y427960D01*
X729052D01*
X731643Y428654D01*
X733967Y429996D01*
X735864Y431893D01*
X737206Y434217D01*
X737900Y436808D01*
Y439492D01*
X737206Y442083D01*
X735864Y444407D01*
X733967Y446304D01*
X731643Y447646D01*
X729052Y448340D01*
D02*
G37*
G36*
X499852D02*
X497168D01*
X494577Y447646D01*
X492253Y446304D01*
X490356Y444407D01*
X489014Y442083D01*
X488320Y439492D01*
Y436808D01*
X489014Y434217D01*
X490356Y431893D01*
X492253Y429996D01*
X494577Y428654D01*
X497168Y427960D01*
X499852D01*
X502443Y428654D01*
X504767Y429996D01*
X506664Y431893D01*
X508006Y434217D01*
X508700Y436808D01*
Y439492D01*
X508006Y442083D01*
X506664Y444407D01*
X504767Y446304D01*
X502443Y447646D01*
X499852Y448340D01*
D02*
G37*
G36*
X321276Y434840D02*
X318804D01*
X316416Y434200D01*
X314274Y432964D01*
X312526Y431216D01*
X311290Y429074D01*
X310650Y426686D01*
Y424214D01*
X311290Y421826D01*
X312526Y419684D01*
X314274Y417936D01*
X316416Y416700D01*
X318804Y416060D01*
X321276D01*
X323664Y416700D01*
X325806Y417936D01*
X327554Y419684D01*
X328790Y421826D01*
X329430Y424214D01*
Y426686D01*
X328790Y429074D01*
X327554Y431216D01*
X325806Y432964D01*
X323664Y434200D01*
X321276Y434840D01*
D02*
G37*
G36*
X729052Y422940D02*
X726368D01*
X723777Y422246D01*
X721453Y420904D01*
X719556Y419007D01*
X718214Y416683D01*
X717520Y414092D01*
Y411408D01*
X718214Y408817D01*
X719556Y406493D01*
X721453Y404596D01*
X723777Y403254D01*
X726368Y402560D01*
X729052D01*
X731643Y403254D01*
X733967Y404596D01*
X735864Y406493D01*
X737206Y408817D01*
X737900Y411408D01*
Y414092D01*
X737206Y416683D01*
X735864Y419007D01*
X733967Y420904D01*
X731643Y422246D01*
X729052Y422940D01*
D02*
G37*
G36*
X499852D02*
X497168D01*
X494577Y422246D01*
X492253Y420904D01*
X490356Y419007D01*
X489014Y416683D01*
X488320Y414092D01*
Y411408D01*
X489014Y408817D01*
X490356Y406493D01*
X492253Y404596D01*
X494577Y403254D01*
X497168Y402560D01*
X499852D01*
X502443Y403254D01*
X504767Y404596D01*
X506664Y406493D01*
X508006Y408817D01*
X508700Y411408D01*
Y414092D01*
X508006Y416683D01*
X506664Y419007D01*
X504767Y420904D01*
X502443Y422246D01*
X499852Y422940D01*
D02*
G37*
G36*
X1068260Y401040D02*
X1062990D01*
Y396770D01*
X1068260D01*
Y401040D01*
D02*
G37*
G36*
X1060450D02*
X1055180D01*
Y396770D01*
X1060450D01*
Y401040D01*
D02*
G37*
G36*
X1068260Y394230D02*
X1062990D01*
Y389960D01*
X1068260D01*
Y394230D01*
D02*
G37*
G36*
X508700Y397540D02*
X499780D01*
Y388620D01*
X508700D01*
Y397540D01*
D02*
G37*
G36*
X497240D02*
X488320D01*
Y388620D01*
X497240D01*
Y397540D01*
D02*
G37*
G36*
X854554Y406611D02*
X819150D01*
Y393700D01*
X831117D01*
X831653Y391700D01*
X830500Y391035D01*
X828166Y388700D01*
X826515Y385840D01*
X825660Y382651D01*
Y382270D01*
X850740D01*
Y382651D01*
X849885Y385840D01*
X848234Y388700D01*
X845900Y391035D01*
X844747Y391700D01*
X845283Y393700D01*
X854554D01*
Y406611D01*
D02*
G37*
G36*
X508700Y386080D02*
X499780D01*
Y377160D01*
X508700D01*
Y386080D01*
D02*
G37*
G36*
X497240D02*
X488320D01*
Y377160D01*
X497240D01*
Y386080D01*
D02*
G37*
G36*
X850740Y379730D02*
X839470D01*
Y368460D01*
X839851D01*
X843040Y369315D01*
X845900Y370965D01*
X848234Y373300D01*
X849885Y376160D01*
X850740Y379349D01*
Y379730D01*
D02*
G37*
G36*
X836930D02*
X825660D01*
Y379349D01*
X826515Y376160D01*
X828166Y373300D01*
X830500Y370965D01*
X833360Y369315D01*
X836549Y368460D01*
X836930D01*
Y379730D01*
D02*
G37*
G36*
X1189508Y379941D02*
X1134110D01*
Y367030D01*
X1189508D01*
Y379941D01*
D02*
G37*
G36*
X329430Y511040D02*
X310650D01*
Y497364D01*
X283198Y469912D01*
X282415Y468741D01*
X282141Y467360D01*
Y380902D01*
X282415Y379520D01*
X283198Y378349D01*
X289449Y372098D01*
X290620Y371315D01*
X292002Y371041D01*
X311286D01*
X311290Y371026D01*
X312526Y368884D01*
X314274Y367136D01*
X316416Y365900D01*
X318804Y365260D01*
X321276D01*
X323664Y365900D01*
X325806Y367136D01*
X327554Y368884D01*
X328790Y371026D01*
X329430Y373414D01*
Y375886D01*
X328790Y378274D01*
X327554Y380416D01*
X325806Y382164D01*
X323664Y383400D01*
X321276Y384040D01*
X318804D01*
X316416Y383400D01*
X314274Y382164D01*
X312526Y380416D01*
X311290Y378274D01*
X311286Y378259D01*
X293497D01*
X289359Y382397D01*
Y465865D01*
X315754Y492260D01*
X329430D01*
Y511040D01*
D02*
G37*
G36*
X981472Y376131D02*
X941070D01*
Y363220D01*
X981472D01*
Y376131D01*
D02*
G37*
G36*
X972820Y358386D02*
X963930D01*
X962223Y358162D01*
X961390Y357817D01*
X960557Y358162D01*
X958850Y358386D01*
X910590D01*
X908883Y358162D01*
X907292Y357503D01*
X905926Y356454D01*
X900846Y351374D01*
X899797Y350008D01*
X899138Y348417D01*
X898914Y346710D01*
Y328810D01*
X895470D01*
Y308730D01*
X915550D01*
Y311941D01*
X917210Y312514D01*
X917550Y312531D01*
X919345Y310736D01*
X921635Y309414D01*
X924188Y308730D01*
X924240D01*
Y318770D01*
Y328810D01*
X924188D01*
X921635Y328126D01*
X919345Y326804D01*
X917550Y325009D01*
X917210Y325027D01*
X915550Y325599D01*
Y328810D01*
X912106D01*
Y343978D01*
X913322Y345194D01*
X950617D01*
X950713Y344960D01*
X951231Y343194D01*
X949705Y340550D01*
X948850Y337361D01*
Y334059D01*
X949705Y330870D01*
X951356Y328010D01*
X953690Y325676D01*
X956550Y324025D01*
X959739Y323170D01*
X963041D01*
X966230Y324025D01*
X969090Y325676D01*
X971424Y328010D01*
X973075Y330870D01*
X973930Y334059D01*
Y337361D01*
X973505Y338948D01*
X975298Y339983D01*
X1003110Y312171D01*
Y311225D01*
X1003729Y308915D01*
X1004924Y306845D01*
X1006615Y305154D01*
X1008685Y303959D01*
X1010995Y303340D01*
X1013385D01*
X1015695Y303959D01*
X1017765Y305154D01*
X1019456Y306845D01*
X1020651Y308915D01*
X1021270Y311225D01*
Y313615D01*
X1020651Y315925D01*
X1019456Y317995D01*
X1017765Y319686D01*
X1015695Y320881D01*
X1013385Y321500D01*
X1012439D01*
X977484Y356454D01*
X976118Y357503D01*
X974527Y358162D01*
X972820Y358386D01*
D02*
G37*
G36*
X318770Y333231D02*
X316416Y332600D01*
X314274Y331364D01*
X312526Y329616D01*
X311290Y327474D01*
X310659Y325120D01*
X318770D01*
Y333231D01*
D02*
G37*
G36*
X926832Y328810D02*
X926780D01*
Y320040D01*
X935550D01*
Y320092D01*
X934866Y322645D01*
X933544Y324935D01*
X931675Y326804D01*
X929385Y328126D01*
X926832Y328810D01*
D02*
G37*
G36*
X329421Y322580D02*
X321310D01*
Y314469D01*
X323664Y315100D01*
X325806Y316336D01*
X327554Y318084D01*
X328790Y320226D01*
X329421Y322580D01*
D02*
G37*
G36*
X318770D02*
X310659D01*
X311290Y320226D01*
X312526Y318084D01*
X314274Y316336D01*
X316416Y315100D01*
X318770Y314469D01*
Y322580D01*
D02*
G37*
G36*
X935550Y317500D02*
X926780D01*
Y308730D01*
X926832D01*
X929385Y309414D01*
X931675Y310736D01*
X933544Y312605D01*
X934866Y314895D01*
X935550Y317448D01*
Y317500D01*
D02*
G37*
G36*
X740410Y314181D02*
Y306070D01*
X748521D01*
X747890Y308424D01*
X746654Y310566D01*
X744906Y312314D01*
X742764Y313550D01*
X740410Y314181D01*
D02*
G37*
G36*
X737870D02*
X735516Y313550D01*
X733374Y312314D01*
X731626Y310566D01*
X730390Y308424D01*
X729759Y306070D01*
X737870D01*
Y314181D01*
D02*
G37*
G36*
X1064185Y321500D02*
X1061795D01*
X1059485Y320881D01*
X1057415Y319686D01*
X1055724Y317995D01*
X1054529Y315925D01*
X1053910Y313615D01*
Y311225D01*
X1054529Y308915D01*
X1055724Y306845D01*
X1057415Y305154D01*
X1059485Y303959D01*
X1061795Y303340D01*
X1064185D01*
X1066495Y303959D01*
X1068565Y305154D01*
X1070256Y306845D01*
X1071451Y308915D01*
X1072070Y311225D01*
Y313615D01*
X1071451Y315925D01*
X1070256Y317995D01*
X1068565Y319686D01*
X1066495Y320881D01*
X1064185Y321500D01*
D02*
G37*
G36*
X748521Y303530D02*
X740410D01*
Y295419D01*
X742764Y296050D01*
X744906Y297286D01*
X746654Y299034D01*
X747890Y301176D01*
X748521Y303530D01*
D02*
G37*
G36*
X737870D02*
X729759D01*
X730390Y301176D01*
X731626Y299034D01*
X733374Y297286D01*
X735516Y296050D01*
X737870Y295419D01*
Y303530D01*
D02*
G37*
%LPD*%
D10*
X637540Y647700D02*
Y650595D01*
X633707Y654429D02*
X637540Y650595D01*
X633707Y654429D02*
Y906820D01*
X675640Y642620D02*
X727710Y590550D01*
X675640Y642620D02*
Y811530D01*
X591820Y972820D02*
X629920Y934720D01*
X274320Y972820D02*
X591820D01*
X273050Y971550D02*
X274320Y972820D01*
X273050Y787400D02*
Y971550D01*
Y787400D02*
X285750Y774700D01*
X313690D01*
X367030Y933450D02*
X598170D01*
X363220Y929640D02*
X367030Y933450D01*
X363220Y849630D02*
Y929640D01*
X313690Y800100D02*
X363220Y849630D01*
X659130Y582930D02*
X727710Y514350D01*
X659130Y582930D02*
Y842010D01*
X601345Y445770D02*
X601980D01*
X536575Y381000D02*
X601345Y445770D01*
X535940Y381000D02*
X536575D01*
X617220Y430530D02*
X618490D01*
X553720Y367030D02*
X617220Y430530D01*
X552450Y367030D02*
X553720D01*
X713740Y304800D02*
Y354330D01*
X551180Y516890D02*
Y665578D01*
Y516890D02*
X713740Y354330D01*
X760690Y600750D02*
Y615950D01*
Y600750D02*
X782320Y579120D01*
X1127950Y419100D02*
Y421830D01*
X1207770Y501650D01*
X297180Y401222D02*
X298352Y400050D01*
X320040D01*
X297180Y401222D02*
Y449678D01*
X298352Y450850D01*
X320040D01*
X292002Y374650D02*
X320040D01*
X285750Y380902D02*
X292002Y374650D01*
X285750Y380902D02*
Y467360D01*
X320040Y501650D01*
X409122Y602762D02*
X498510Y692150D01*
X409122Y539932D02*
Y602762D01*
X320040Y450850D02*
X409122Y539932D01*
X498510Y666750D02*
X550008D01*
X551180Y665578D01*
X1060720Y381000D02*
X1061720D01*
X1054370Y387350D02*
X1060720Y381000D01*
X1012190Y387350D02*
X1054370D01*
D15*
X782320Y795120D02*
D03*
Y807620D02*
D03*
X1158240Y867410D02*
D03*
X782320Y860960D02*
D03*
X1158240Y879910D02*
D03*
X782320Y848460D02*
D03*
D16*
X986790Y732700D02*
D03*
Y689700D02*
D03*
D17*
X1035050Y596130D02*
D03*
X1001050D02*
D03*
X1052050D02*
D03*
X1069050D02*
D03*
X1018050D02*
D03*
D18*
X1061720Y395500D02*
D03*
Y381000D02*
D03*
D19*
X937260Y717550D02*
D03*
X840740D02*
D03*
D20*
X1012190Y387350D02*
D03*
X997190D02*
D03*
D44*
X1035050Y488630D02*
D03*
D45*
X781100Y796340D02*
X782320Y795120D01*
X727710Y795655D02*
Y819150D01*
X756920Y797560D02*
X758140Y796340D01*
X755015Y795655D02*
X756920Y797560D01*
X758140Y796340D02*
X781100D01*
X729615Y795655D02*
X755015D01*
X727710Y793750D02*
Y795655D01*
Y793750D02*
X729615Y795655D01*
X749300Y392430D02*
Y746760D01*
X744220Y387350D02*
X749300Y392430D01*
X727710Y768350D02*
Y793750D01*
Y387350D02*
X744220D01*
X727710Y768350D02*
X749300Y746760D01*
X727710Y341630D02*
X764540Y304800D01*
X727710Y341630D02*
Y387350D01*
X881395Y641350D02*
X962778D01*
X880125Y640080D02*
X881395Y641350D01*
X818276Y642224D02*
X880125D01*
X797560Y662940D02*
X818276Y642224D01*
X811808Y918210D02*
X850108Y879910D01*
X425450Y918210D02*
X811808D01*
X381000Y873760D02*
X425450Y918210D01*
X381000Y709930D02*
Y873760D01*
X1130300Y817880D02*
X1184910Y763270D01*
Y549910D02*
Y763270D01*
Y549910D02*
X1207770Y527050D01*
X800489Y830291D02*
X850108Y879910D01*
X1130300D01*
Y817880D02*
Y879910D01*
X1158240D01*
X923290Y574040D02*
X949960Y547370D01*
Y396240D02*
Y547370D01*
Y396240D02*
X958850Y387350D01*
X997190D01*
X1194870Y879910D02*
X1198880Y883920D01*
X1158240Y879910D02*
X1194870D01*
X727710Y844550D02*
Y869950D01*
Y844550D02*
X730497D01*
X734407Y848460D01*
X782320D01*
X800489Y830291D01*
Y717550D02*
Y830291D01*
X937260Y717550D02*
X947809Y707001D01*
X960120D01*
Y669679D02*
Y707001D01*
Y669679D02*
X963049Y666750D01*
X968090D01*
X986790Y685450D01*
Y689700D01*
Y685450D02*
X992290Y679950D01*
X994680D01*
X1052050Y596130D02*
Y622580D01*
X994680Y679950D02*
X1052050Y622580D01*
X962778Y641350D02*
X976689Y627439D01*
X797560Y662940D02*
Y714621D01*
X800489Y717550D01*
X840740D01*
X923290Y574040D02*
X976689Y627439D01*
X892810Y574040D02*
X923290D01*
X976689Y627439D02*
X1015121D01*
X1018050Y624510D01*
Y596130D02*
Y624510D01*
D46*
X1115060Y374650D02*
Y631584D01*
Y345046D02*
Y372110D01*
X1113790Y373380D02*
X1115060Y372110D01*
X1113790Y373380D02*
X1115060Y374650D01*
X1110374Y340360D02*
X1115060Y345046D01*
X1110374Y636270D02*
X1115060Y631584D01*
X961390Y335710D02*
Y349250D01*
X910590Y351790D02*
X958850D01*
X961390Y349250D01*
X963930Y351790D01*
X972820D01*
X905510Y346710D02*
X910590Y351790D01*
X972820D02*
X1012190Y312420D01*
X1053706Y707390D02*
X1093470D01*
X1049020Y659130D02*
Y702704D01*
X1053706Y707390D01*
X1075493Y632657D02*
X1079106Y636270D01*
X1049020Y659130D02*
X1075493Y632657D01*
X1069916Y627080D02*
X1075493Y632657D01*
X1042670Y340360D02*
X1110374D01*
X1079106Y636270D02*
X1110374D01*
X1069050Y596130D02*
X1069916Y596996D01*
Y627080D01*
X1037590Y335280D02*
X1042670Y340360D01*
X1037590Y312420D02*
Y335280D01*
X905510Y318770D02*
Y346710D01*
X320040Y349250D02*
X402590Y266700D01*
X1032904D01*
X1037590Y271386D01*
Y312420D01*
D47*
X742680Y780261D02*
X746012D01*
X744346D01*
Y775263D01*
X747678D02*
Y780261D01*
X750178D01*
X751011Y779428D01*
Y777762D01*
X750178Y776929D01*
X747678D01*
X752677Y774430D02*
X756009D01*
X757675Y779428D02*
X758508Y780261D01*
X760174D01*
X761007Y779428D01*
Y778595D01*
X760174Y777762D01*
X759341D01*
X760174D01*
X761007Y776929D01*
Y776096D01*
X760174Y775263D01*
X758508D01*
X757675Y776096D01*
X762673Y780261D02*
Y776929D01*
X764340Y775263D01*
X766006Y776929D01*
Y780261D01*
X767672Y779428D02*
X768505Y780261D01*
X770171D01*
X771004Y779428D01*
Y778595D01*
X770171Y777762D01*
X769338D01*
X770171D01*
X771004Y776929D01*
Y776096D01*
X770171Y775263D01*
X768505D01*
X767672Y776096D01*
X887460Y630401D02*
X890792D01*
X889126D01*
Y625403D01*
X892458D02*
Y630401D01*
X894958D01*
X895791Y629568D01*
Y627902D01*
X894958Y627069D01*
X892458D01*
X897457Y624570D02*
X900789D01*
X905787Y630401D02*
X902455D01*
Y627902D01*
X904121Y628735D01*
X904954D01*
X905787Y627902D01*
Y626236D01*
X904954Y625403D01*
X903288D01*
X902455Y626236D01*
X907454Y630401D02*
Y627069D01*
X909120Y625403D01*
X910786Y627069D01*
Y630401D01*
X1137650Y376401D02*
X1140982D01*
X1139316D01*
Y371403D01*
X1142648D02*
Y376401D01*
X1145147D01*
X1145981Y375568D01*
Y373902D01*
X1145147Y373069D01*
X1142648D01*
X1147647Y370570D02*
X1150979D01*
X1152645Y376401D02*
Y373069D01*
X1154311Y371403D01*
X1155977Y373069D01*
Y376401D01*
X1157644D02*
Y371403D01*
X1160143D01*
X1160976Y372236D01*
Y373069D01*
X1160143Y373902D01*
X1157644D01*
X1160143D01*
X1160976Y374735D01*
Y375568D01*
X1160143Y376401D01*
X1157644D01*
X1162642Y371403D02*
Y374735D01*
X1164308Y376401D01*
X1165974Y374735D01*
Y371403D01*
Y373902D01*
X1162642D01*
X1167640Y376401D02*
X1170972D01*
X1169306D01*
Y371403D01*
X1172638Y370570D02*
X1175971D01*
X1180969Y375568D02*
X1180136Y376401D01*
X1178470D01*
X1177637Y375568D01*
Y374735D01*
X1178470Y373902D01*
X1180136D01*
X1180969Y373069D01*
Y372236D01*
X1180136Y371403D01*
X1178470D01*
X1177637Y372236D01*
X1182635Y376401D02*
Y371403D01*
X1184301Y373069D01*
X1185967Y371403D01*
Y376401D01*
X944610Y372591D02*
X947942D01*
X946276D01*
Y367593D01*
X949608D02*
Y372591D01*
X952107D01*
X952941Y371758D01*
Y370092D01*
X952107Y369259D01*
X949608D01*
X954607Y366760D02*
X957939D01*
X959605Y372591D02*
Y369259D01*
X961271Y367593D01*
X962937Y369259D01*
Y372591D01*
X964604D02*
Y367593D01*
X967103D01*
X967936Y368426D01*
Y369259D01*
X967103Y370092D01*
X964604D01*
X967103D01*
X967936Y370925D01*
Y371758D01*
X967103Y372591D01*
X964604D01*
X969602Y367593D02*
Y370925D01*
X971268Y372591D01*
X972934Y370925D01*
Y367593D01*
Y370092D01*
X969602D01*
X974600Y372591D02*
X977932D01*
X976266D01*
Y367593D01*
X822690Y403071D02*
X826022D01*
X824356D01*
Y398073D01*
X827688D02*
Y403071D01*
X830188D01*
X831021Y402238D01*
Y400572D01*
X830188Y399739D01*
X827688D01*
X832687Y397240D02*
X836019D01*
X841017Y402238D02*
X840184Y403071D01*
X838518D01*
X837685Y402238D01*
Y398906D01*
X838518Y398073D01*
X840184D01*
X841017Y398906D01*
Y400572D01*
X839351D01*
X842683Y398073D02*
Y403071D01*
X846016Y398073D01*
Y403071D01*
X847682D02*
Y398073D01*
X850181D01*
X851014Y398906D01*
Y402238D01*
X850181Y403071D01*
X847682D01*
D48*
X739140Y304800D02*
D03*
X741680Y953770D02*
D03*
X1207770Y552450D02*
D03*
X320040Y323850D02*
D03*
X355600Y709930D02*
D03*
X767080Y953770D02*
D03*
X713740Y304800D02*
D03*
X320040Y374650D02*
D03*
X313690Y850900D02*
D03*
X320040Y400050D02*
D03*
Y450850D02*
D03*
X313690Y825500D02*
D03*
X1207770Y527050D02*
D03*
X313690Y876300D02*
D03*
X320040Y425450D02*
D03*
Y476250D02*
D03*
X313690Y800100D02*
D03*
X320040Y349250D02*
D03*
D49*
X1143470Y707390D02*
D03*
D50*
X1198880Y858520D02*
D03*
Y833120D02*
D03*
Y807720D02*
D03*
D51*
X925510Y318770D02*
D03*
D52*
X727710Y717550D02*
D03*
X498510Y869950D02*
D03*
Y844550D02*
D03*
Y819150D02*
D03*
Y793750D02*
D03*
Y539750D02*
D03*
X727710Y819150D02*
D03*
Y793750D02*
D03*
Y768350D02*
D03*
X498510D02*
D03*
Y742950D02*
D03*
Y717550D02*
D03*
Y692150D02*
D03*
Y666750D02*
D03*
Y641350D02*
D03*
Y615950D02*
D03*
Y590550D02*
D03*
Y565150D02*
D03*
Y514350D02*
D03*
Y488950D02*
D03*
Y463550D02*
D03*
Y438150D02*
D03*
Y412750D02*
D03*
X727710Y869950D02*
D03*
Y844550D02*
D03*
Y742950D02*
D03*
Y692150D02*
D03*
Y666750D02*
D03*
Y641350D02*
D03*
Y615950D02*
D03*
Y590550D02*
D03*
Y565150D02*
D03*
Y539750D02*
D03*
Y514350D02*
D03*
Y488950D02*
D03*
Y463550D02*
D03*
Y438150D02*
D03*
Y412750D02*
D03*
D53*
X498510Y387350D02*
D03*
X727710D02*
D03*
D54*
X857810Y574040D02*
D03*
D55*
X764540Y304800D02*
D03*
X716280Y953770D02*
D03*
X381000Y709930D02*
D03*
D56*
X892810Y574040D02*
D03*
D57*
X1093470Y707390D02*
D03*
D58*
X320040Y501650D02*
D03*
X1207770D02*
D03*
X313690Y774700D02*
D03*
D59*
X1198880Y883920D02*
D03*
D60*
X905510Y318770D02*
D03*
D61*
X1037590Y312420D02*
D03*
X1062990D02*
D03*
X1012190D02*
D03*
D62*
X838200Y381000D02*
D03*
X756920Y797560D02*
D03*
X1113790Y373380D02*
D03*
X880125Y642224D02*
D03*
X961390Y335710D02*
D03*
D63*
X637540Y647700D02*
D03*
X633707Y906820D02*
D03*
X675640Y811530D02*
D03*
X629920Y934720D02*
D03*
X598170Y933450D02*
D03*
X659130Y842010D02*
D03*
X601980Y445770D02*
D03*
X535940Y381000D02*
D03*
X618490Y430530D02*
D03*
X552450Y367030D02*
D03*
X760690Y615950D02*
D03*
X782320Y579120D02*
D03*
X1127950Y419100D02*
D03*
M02*
