M48
;Layer_Color=9474304
;FILE_FORMAT=4:4
METRIC,LZ
;TYPE=PLATED
T01F00S00C0.7112
T02F00S00C0.8000
T03F00S00C0.8500
T04F00S00C1.0000
T05F00S00C1.0160
T06F00S00C1.0200
%
T01
X0053594Y00381
X0055245Y0036703
X0112795Y004191
X0078232Y0057912
X0076069Y0061595
X0063754Y006477
X0061849Y0043053
X0060198Y0044577
X0067564Y0081153
X0065913Y0084201
X00633707Y0090682
X0062992Y0093472
X0059817Y0093345
T02
X008382Y00381
X0096139Y0033571
X0101219Y0031242
X0103759
X0106299
X0111379Y0037338
X00880125Y00642224
X0075692Y0079756
T03
X0085781Y0057404
X0089281
X0109347Y0070739
X0114347
T04
X0090551Y0031877
X0092551
T05
X0119888Y0080772
Y0083312
Y0085852
Y0088392
T06
X0032004Y0032385
Y0034925
Y0037465
X0049851Y0038735
X0072771
X0073914Y003048
X0076454
X0071374
X0120777Y0050165
Y0052705
Y0055245
X0072771Y0056515
Y0059055
Y0061595
Y0064135
Y0066675
Y0069215
Y0071755
Y0074295
Y0076835
Y0053975
Y0051435
Y0048895
Y0046355
Y0043815
Y0041275
X0049851
Y0043815
Y0046355
Y0048895
Y0051435
Y0053975
Y0056515
Y0059055
Y0061595
Y0064135
Y0066675
Y0069215
Y0071755
Y0074295
Y0076835
X00381Y0070993
X003556
X0031369Y007747
X0032004Y0050165
Y0047625
Y0045085
Y0042545
Y0040005
X0031369Y008001
Y008255
Y008509
Y008763
X0049851Y0086995
Y0084455
Y0081915
Y0079375
X0072771
Y0081915
Y0084455
Y0086995
X0071628Y0095377
X0074168
X0076708
M30
