ISO-10303-21;
HEADER;
/* Generated by software containing ST-Developer
 * from STEP Tools, Inc. (www.steptools.com) 
 */

FILE_DESCRIPTION(
/* description */ (''),
/* implementation_level */ '2;1');

FILE_NAME(
/* name */ '658a38c8-ec32-4396-b050-ce23ad91f3b2.stp',
/* time_stamp */ '2026-08-18T20:54:28Z',
/* author */ (''),
/* organization */ (''),
/* preprocessor_version */ 'ST-DEVELOPER v20.1',
/* originating_system */ 'Autodesk Translation Framework v15.8.0.0',
/* authorisation */ '');

FILE_SCHEMA (('AUTOMOTIVE_DESIGN { 1 0 10303 214 3 1 1 }'));
ENDSEC;

DATA;
#10=MECHANICAL_DESIGN_GEOMETRIC_PRESENTATION_REPRESENTATION('',(#13),#388);
#11=SHAPE_REPRESENTATION_RELATIONSHIP('SRR','None',#395,#12);
#12=ADVANCED_BREP_SHAPE_REPRESENTATION('',(#14),#387);
#13=STYLED_ITEM('',(#404),#14);
#14=MANIFOLD_SOLID_BREP('Body1',#206);
#15=CYLINDRICAL_SURFACE('',#243,23.5);
#16=CYLINDRICAL_SURFACE('',#245,23.5);
#17=CYLINDRICAL_SURFACE('',#247,3.45);
#18=CYLINDRICAL_SURFACE('',#252,32.5);
#19=TOROIDAL_SURFACE('',#225,28.5004271247462,2.);
#20=TOROIDAL_SURFACE('',#234,28.5004271247462,2.);
#21=FACE_BOUND('',#48,.T.);
#22=FACE_BOUND('',#52,.T.);
#23=FACE_BOUND('',#56,.T.);
#24=FACE_BOUND('',#62,.T.);
#25=PLANE('',#223);
#26=PLANE('',#232);
#27=PLANE('',#241);
#28=PLANE('',#249);
#29=PLANE('',#250);
#30=PLANE('',#251);
#31=FACE_OUTER_BOUND('',#46,.T.);
#32=FACE_OUTER_BOUND('',#47,.T.);
#33=FACE_OUTER_BOUND('',#49,.T.);
#34=FACE_OUTER_BOUND('',#50,.T.);
#35=FACE_OUTER_BOUND('',#51,.T.);
#36=FACE_OUTER_BOUND('',#53,.T.);
#37=FACE_OUTER_BOUND('',#54,.T.);
#38=FACE_OUTER_BOUND('',#55,.T.);
#39=FACE_OUTER_BOUND('',#57,.T.);
#40=FACE_OUTER_BOUND('',#58,.T.);
#41=FACE_OUTER_BOUND('',#59,.T.);
#42=FACE_OUTER_BOUND('',#60,.T.);
#43=FACE_OUTER_BOUND('',#61,.T.);
#44=FACE_OUTER_BOUND('',#63,.T.);
#45=FACE_OUTER_BOUND('',#64,.T.);
#46=EDGE_LOOP('',(#138,#139,#140,#141));
#47=EDGE_LOOP('',(#142));
#48=EDGE_LOOP('',(#143));
#49=EDGE_LOOP('',(#144,#145,#146,#147,#148));
#50=EDGE_LOOP('',(#149,#150,#151,#152,#153));
#51=EDGE_LOOP('',(#154));
#52=EDGE_LOOP('',(#155));
#53=EDGE_LOOP('',(#156,#157,#158,#159,#160));
#54=EDGE_LOOP('',(#161,#162,#163,#164,#165));
#55=EDGE_LOOP('',(#166));
#56=EDGE_LOOP('',(#167));
#57=EDGE_LOOP('',(#168,#169,#170,#171));
#58=EDGE_LOOP('',(#172,#173,#174,#175));
#59=EDGE_LOOP('',(#176,#177,#178,#179));
#60=EDGE_LOOP('',(#180));
#61=EDGE_LOOP('',(#181));
#62=EDGE_LOOP('',(#182));
#63=EDGE_LOOP('',(#183));
#64=EDGE_LOOP('',(#184,#185,#186,#187));
#65=LINE('',#333,#72);
#66=LINE('',#348,#73);
#67=LINE('',#363,#74);
#68=LINE('',#370,#75);
#69=LINE('',#374,#76);
#70=LINE('',#379,#77);
#71=LINE('',#384,#78);
#72=VECTOR('',#259,10.45);
#73=VECTOR('',#278,25.586);
#74=VECTOR('',#297,25.586);
#75=VECTOR('',#306,23.5);
#76=VECTOR('',#311,23.5);
#77=VECTOR('',#318,3.45);
#78=VECTOR('',#327,32.5);
#79=CIRCLE('',#221,5.45);
#80=CIRCLE('',#222,15.45);
#81=CIRCLE('',#224,3.45);
#82=CIRCLE('',#226,27.0862135623731);
#83=CIRCLE('',#227,2.);
#84=CIRCLE('',#228,28.5004271247462);
#85=CIRCLE('',#229,27.0862135623731);
#86=CIRCLE('',#231,23.5);
#87=CIRCLE('',#233,32.5);
#88=CIRCLE('',#235,27.0862135623731);
#89=CIRCLE('',#236,2.);
#90=CIRCLE('',#237,28.5004271247462);
#91=CIRCLE('',#238,27.0862135623731);
#92=CIRCLE('',#240,23.5);
#93=CIRCLE('',#242,32.5);
#94=CIRCLE('',#244,23.5);
#95=CIRCLE('',#246,23.5);
#96=CIRCLE('',#248,3.45);
#97=VERTEX_POINT('',#330);
#98=VERTEX_POINT('',#332);
#99=VERTEX_POINT('',#336);
#100=VERTEX_POINT('',#339);
#101=VERTEX_POINT('',#340);
#102=VERTEX_POINT('',#342);
#103=VERTEX_POINT('',#347);
#104=VERTEX_POINT('',#351);
#105=VERTEX_POINT('',#354);
#106=VERTEX_POINT('',#355);
#107=VERTEX_POINT('',#357);
#108=VERTEX_POINT('',#362);
#109=VERTEX_POINT('',#366);
#110=VERTEX_POINT('',#369);
#111=VERTEX_POINT('',#373);
#112=VERTEX_POINT('',#377);
#113=EDGE_CURVE('',#97,#97,#79,.T.);
#114=EDGE_CURVE('',#97,#98,#65,.T.);
#115=EDGE_CURVE('',#98,#98,#80,.T.);
#116=EDGE_CURVE('',#99,#99,#81,.T.);
#117=EDGE_CURVE('',#100,#101,#82,.T.);
#118=EDGE_CURVE('',#101,#102,#83,.T.);
#119=EDGE_CURVE('',#102,#102,#84,.T.);
#120=EDGE_CURVE('',#101,#100,#85,.T.);
#121=EDGE_CURVE('',#100,#103,#66,.T.);
#122=EDGE_CURVE('',#103,#103,#86,.T.);
#123=EDGE_CURVE('',#104,#104,#87,.T.);
#124=EDGE_CURVE('',#105,#106,#88,.T.);
#125=EDGE_CURVE('',#106,#107,#89,.T.);
#126=EDGE_CURVE('',#107,#107,#90,.T.);
#127=EDGE_CURVE('',#106,#105,#91,.T.);
#128=EDGE_CURVE('',#105,#108,#67,.T.);
#129=EDGE_CURVE('',#108,#108,#92,.T.);
#130=EDGE_CURVE('',#109,#109,#93,.T.);
#131=EDGE_CURVE('',#103,#110,#68,.T.);
#132=EDGE_CURVE('',#110,#110,#94,.T.);
#133=EDGE_CURVE('',#108,#111,#69,.T.);
#134=EDGE_CURVE('',#111,#111,#95,.T.);
#135=EDGE_CURVE('',#112,#112,#96,.T.);
#136=EDGE_CURVE('',#112,#99,#70,.T.);
#137=EDGE_CURVE('',#104,#109,#71,.T.);
#138=ORIENTED_EDGE('',*,*,#113,.F.);
#139=ORIENTED_EDGE('',*,*,#114,.T.);
#140=ORIENTED_EDGE('',*,*,#115,.F.);
#141=ORIENTED_EDGE('',*,*,#114,.F.);
#142=ORIENTED_EDGE('',*,*,#113,.T.);
#143=ORIENTED_EDGE('',*,*,#116,.F.);
#144=ORIENTED_EDGE('',*,*,#117,.T.);
#145=ORIENTED_EDGE('',*,*,#118,.T.);
#146=ORIENTED_EDGE('',*,*,#119,.T.);
#147=ORIENTED_EDGE('',*,*,#118,.F.);
#148=ORIENTED_EDGE('',*,*,#120,.T.);
#149=ORIENTED_EDGE('',*,*,#117,.F.);
#150=ORIENTED_EDGE('',*,*,#121,.T.);
#151=ORIENTED_EDGE('',*,*,#122,.T.);
#152=ORIENTED_EDGE('',*,*,#121,.F.);
#153=ORIENTED_EDGE('',*,*,#120,.F.);
#154=ORIENTED_EDGE('',*,*,#123,.T.);
#155=ORIENTED_EDGE('',*,*,#119,.F.);
#156=ORIENTED_EDGE('',*,*,#124,.T.);
#157=ORIENTED_EDGE('',*,*,#125,.T.);
#158=ORIENTED_EDGE('',*,*,#126,.T.);
#159=ORIENTED_EDGE('',*,*,#125,.F.);
#160=ORIENTED_EDGE('',*,*,#127,.T.);
#161=ORIENTED_EDGE('',*,*,#124,.F.);
#162=ORIENTED_EDGE('',*,*,#128,.T.);
#163=ORIENTED_EDGE('',*,*,#129,.T.);
#164=ORIENTED_EDGE('',*,*,#128,.F.);
#165=ORIENTED_EDGE('',*,*,#127,.F.);
#166=ORIENTED_EDGE('',*,*,#130,.F.);
#167=ORIENTED_EDGE('',*,*,#126,.F.);
#168=ORIENTED_EDGE('',*,*,#122,.F.);
#169=ORIENTED_EDGE('',*,*,#131,.T.);
#170=ORIENTED_EDGE('',*,*,#132,.T.);
#171=ORIENTED_EDGE('',*,*,#131,.F.);
#172=ORIENTED_EDGE('',*,*,#129,.F.);
#173=ORIENTED_EDGE('',*,*,#133,.T.);
#174=ORIENTED_EDGE('',*,*,#134,.T.);
#175=ORIENTED_EDGE('',*,*,#133,.F.);
#176=ORIENTED_EDGE('',*,*,#135,.F.);
#177=ORIENTED_EDGE('',*,*,#136,.T.);
#178=ORIENTED_EDGE('',*,*,#116,.T.);
#179=ORIENTED_EDGE('',*,*,#136,.F.);
#180=ORIENTED_EDGE('',*,*,#135,.T.);
#181=ORIENTED_EDGE('',*,*,#132,.F.);
#182=ORIENTED_EDGE('',*,*,#115,.T.);
#183=ORIENTED_EDGE('',*,*,#134,.F.);
#184=ORIENTED_EDGE('',*,*,#123,.F.);
#185=ORIENTED_EDGE('',*,*,#137,.T.);
#186=ORIENTED_EDGE('',*,*,#130,.T.);
#187=ORIENTED_EDGE('',*,*,#137,.F.);
#188=CONICAL_SURFACE('',#220,10.45,0.588002603547568);
#189=CONICAL_SURFACE('',#230,25.586,0.785398163397448);
#190=CONICAL_SURFACE('',#239,25.586,0.785398163397448);
#191=ADVANCED_FACE('',(#31),#188,.T.);
#192=ADVANCED_FACE('',(#32,#21),#25,.T.);
#193=ADVANCED_FACE('',(#33),#19,.T.);
#194=ADVANCED_FACE('',(#34),#189,.F.);
#195=ADVANCED_FACE('',(#35,#22),#26,.T.);
#196=ADVANCED_FACE('',(#36),#20,.T.);
#197=ADVANCED_FACE('',(#37),#190,.F.);
#198=ADVANCED_FACE('',(#38,#23),#27,.F.);
#199=ADVANCED_FACE('',(#39),#15,.F.);
#200=ADVANCED_FACE('',(#40),#16,.F.);
#201=ADVANCED_FACE('',(#41),#17,.T.);
#202=ADVANCED_FACE('',(#42),#28,.T.);
#203=ADVANCED_FACE('',(#43,#24),#29,.T.);
#204=ADVANCED_FACE('',(#44),#30,.F.);
#205=ADVANCED_FACE('',(#45),#18,.T.);
#206=CLOSED_SHELL('',(#191,#192,#193,#194,#195,#196,#197,#198,#199,#200,
#201,#202,#203,#204,#205));
#207=DERIVED_UNIT_ELEMENT(#209,1.);
#208=DERIVED_UNIT_ELEMENT(#390,-3.);
#209=(
MASS_UNIT()
NAMED_UNIT(*)
SI_UNIT(.KILO.,.GRAM.)
);
#210=DERIVED_UNIT((#207,#208));
#211=MEASURE_REPRESENTATION_ITEM('density measure',
POSITIVE_RATIO_MEASURE(7850.),#210);
#212=PROPERTY_DEFINITION_REPRESENTATION(#217,#214);
#213=PROPERTY_DEFINITION_REPRESENTATION(#218,#215);
#214=REPRESENTATION('material name',(#216),#387);
#215=REPRESENTATION('density',(#211),#387);
#216=DESCRIPTIVE_REPRESENTATION_ITEM('Steel','Steel');
#217=PROPERTY_DEFINITION('material property','material name',#397);
#218=PROPERTY_DEFINITION('material property','density of part',#397);
#219=AXIS2_PLACEMENT_3D('',#328,#253,#254);
#220=AXIS2_PLACEMENT_3D('',#329,#255,#256);
#221=AXIS2_PLACEMENT_3D('',#331,#257,#258);
#222=AXIS2_PLACEMENT_3D('',#334,#260,#261);
#223=AXIS2_PLACEMENT_3D('',#335,#262,#263);
#224=AXIS2_PLACEMENT_3D('',#337,#264,#265);
#225=AXIS2_PLACEMENT_3D('',#338,#266,#267);
#226=AXIS2_PLACEMENT_3D('',#341,#268,#269);
#227=AXIS2_PLACEMENT_3D('',#343,#270,#271);
#228=AXIS2_PLACEMENT_3D('',#344,#272,#273);
#229=AXIS2_PLACEMENT_3D('',#345,#274,#275);
#230=AXIS2_PLACEMENT_3D('',#346,#276,#277);
#231=AXIS2_PLACEMENT_3D('',#349,#279,#280);
#232=AXIS2_PLACEMENT_3D('',#350,#281,#282);
#233=AXIS2_PLACEMENT_3D('',#352,#283,#284);
#234=AXIS2_PLACEMENT_3D('',#353,#285,#286);
#235=AXIS2_PLACEMENT_3D('',#356,#287,#288);
#236=AXIS2_PLACEMENT_3D('',#358,#289,#290);
#237=AXIS2_PLACEMENT_3D('',#359,#291,#292);
#238=AXIS2_PLACEMENT_3D('',#360,#293,#294);
#239=AXIS2_PLACEMENT_3D('',#361,#295,#296);
#240=AXIS2_PLACEMENT_3D('',#364,#298,#299);
#241=AXIS2_PLACEMENT_3D('',#365,#300,#301);
#242=AXIS2_PLACEMENT_3D('',#367,#302,#303);
#243=AXIS2_PLACEMENT_3D('',#368,#304,#305);
#244=AXIS2_PLACEMENT_3D('',#371,#307,#308);
#245=AXIS2_PLACEMENT_3D('',#372,#309,#310);
#246=AXIS2_PLACEMENT_3D('',#375,#312,#313);
#247=AXIS2_PLACEMENT_3D('',#376,#314,#315);
#248=AXIS2_PLACEMENT_3D('',#378,#316,#317);
#249=AXIS2_PLACEMENT_3D('',#380,#319,#320);
#250=AXIS2_PLACEMENT_3D('',#381,#321,#322);
#251=AXIS2_PLACEMENT_3D('',#382,#323,#324);
#252=AXIS2_PLACEMENT_3D('',#383,#325,#326);
#253=DIRECTION('axis',(0.,0.,1.));
#254=DIRECTION('refdir',(1.,0.,0.));
#255=DIRECTION('center_axis',(0.,-1.,0.));
#256=DIRECTION('ref_axis',(0.,0.,1.));
#257=DIRECTION('center_axis',(0.,1.,0.));
#258=DIRECTION('ref_axis',(1.,0.,0.));
#259=DIRECTION('',(-6.79311819793636E-17,-0.832050294337844,-0.554700196225229));
#260=DIRECTION('center_axis',(0.,-1.,0.));
#261=DIRECTION('ref_axis',(0.,0.,1.));
#262=DIRECTION('center_axis',(0.,1.,0.));
#263=DIRECTION('ref_axis',(0.,0.,1.));
#264=DIRECTION('center_axis',(0.,1.,0.));
#265=DIRECTION('ref_axis',(1.,0.,0.));
#266=DIRECTION('center_axis',(0.,1.,0.));
#267=DIRECTION('ref_axis',(0.,0.,1.));
#268=DIRECTION('center_axis',(0.,-1.,0.));
#269=DIRECTION('ref_axis',(1.,0.,-6.12323399573677E-17));
#270=DIRECTION('center_axis',(-1.,0.,1.22464679914735E-16));
#271=DIRECTION('ref_axis',(-1.22464679914735E-16,0.,-1.));
#272=DIRECTION('center_axis',(0.,1.,0.));
#273=DIRECTION('ref_axis',(1.,0.,0.));
#274=DIRECTION('center_axis',(0.,-1.,0.));
#275=DIRECTION('ref_axis',(1.,0.,-6.12323399573677E-17));
#276=DIRECTION('center_axis',(0.,1.,0.));
#277=DIRECTION('ref_axis',(1.,0.,0.));
#278=DIRECTION('',(0.707106781186547,-0.707106781186548,-8.65956056235493E-17));
#279=DIRECTION('center_axis',(0.,-1.,0.));
#280=DIRECTION('ref_axis',(1.,0.,0.));
#281=DIRECTION('center_axis',(0.,1.,0.));
#282=DIRECTION('ref_axis',(1.,0.,0.));
#283=DIRECTION('center_axis',(0.,1.,0.));
#284=DIRECTION('ref_axis',(1.,0.,0.));
#285=DIRECTION('center_axis',(0.,-1.,0.));
#286=DIRECTION('ref_axis',(0.,0.,-1.));
#287=DIRECTION('center_axis',(0.,1.,0.));
#288=DIRECTION('ref_axis',(1.,0.,6.12323399573677E-17));
#289=DIRECTION('center_axis',(-1.,0.,-1.22464679914735E-16));
#290=DIRECTION('ref_axis',(-1.22464679914735E-16,0.,1.));
#291=DIRECTION('center_axis',(0.,-1.,0.));
#292=DIRECTION('ref_axis',(1.,0.,0.));
#293=DIRECTION('center_axis',(0.,1.,0.));
#294=DIRECTION('ref_axis',(1.,0.,6.12323399573677E-17));
#295=DIRECTION('center_axis',(0.,-1.,0.));
#296=DIRECTION('ref_axis',(1.,0.,0.));
#297=DIRECTION('',(0.707106781186547,0.707106781186548,8.65956056235493E-17));
#298=DIRECTION('center_axis',(0.,1.,0.));
#299=DIRECTION('ref_axis',(1.,0.,0.));
#300=DIRECTION('center_axis',(0.,1.,0.));
#301=DIRECTION('ref_axis',(1.,0.,0.));
#302=DIRECTION('center_axis',(0.,1.,0.));
#303=DIRECTION('ref_axis',(1.,0.,0.));
#304=DIRECTION('center_axis',(0.,-1.,0.));
#305=DIRECTION('ref_axis',(1.,0.,0.));
#306=DIRECTION('',(0.,-1.,0.));
#307=DIRECTION('center_axis',(0.,-1.,0.));
#308=DIRECTION('ref_axis',(1.,0.,0.));
#309=DIRECTION('center_axis',(0.,1.,0.));
#310=DIRECTION('ref_axis',(1.,0.,0.));
#311=DIRECTION('',(0.,1.,0.));
#312=DIRECTION('center_axis',(0.,1.,0.));
#313=DIRECTION('ref_axis',(1.,0.,0.));
#314=DIRECTION('center_axis',(0.,1.,0.));
#315=DIRECTION('ref_axis',(1.,0.,0.));
#316=DIRECTION('center_axis',(0.,1.,0.));
#317=DIRECTION('ref_axis',(1.,0.,0.));
#318=DIRECTION('',(0.,-1.,0.));
#319=DIRECTION('center_axis',(0.,1.,0.));
#320=DIRECTION('ref_axis',(1.,0.,0.));
#321=DIRECTION('center_axis',(0.,1.,0.));
#322=DIRECTION('ref_axis',(1.,0.,0.));
#323=DIRECTION('center_axis',(0.,1.,0.));
#324=DIRECTION('ref_axis',(1.,0.,0.));
#325=DIRECTION('center_axis',(0.,1.,0.));
#326=DIRECTION('ref_axis',(1.,0.,0.));
#327=DIRECTION('',(0.,-1.,0.));
#328=CARTESIAN_POINT('',(0.,0.,0.));
#329=CARTESIAN_POINT('Origin',(0.,23.,0.));
#330=CARTESIAN_POINT('',(-6.67432505535308E-16,30.5,-5.45));
#331=CARTESIAN_POINT('Origin',(0.,30.5,0.));
#332=CARTESIAN_POINT('',(-1.89207930468266E-15,15.5,-15.45));
#333=CARTESIAN_POINT('',(-1.27975590510898E-15,23.,-10.45));
#334=CARTESIAN_POINT('Origin',(0.,15.5,0.));
#335=CARTESIAN_POINT('Origin',(0.,30.5,3.45));
#336=CARTESIAN_POINT('',(-3.45,30.5,4.22503145705837E-16));
#337=CARTESIAN_POINT('Origin',(0.,30.5,0.));
#338=CARTESIAN_POINT('Origin',(0.,18.,0.));
#339=CARTESIAN_POINT('',(-27.0862135623731,19.4142135623731,0.));
#340=CARTESIAN_POINT('',(-3.31710447401818E-15,19.4142135623731,-27.0862135623731));
#341=CARTESIAN_POINT('Origin',(0.,19.4142135623731,1.65855223700909E-15));
#342=CARTESIAN_POINT('',(-3.49029568526528E-15,20.,-28.5004271247462));
#343=CARTESIAN_POINT('Origin',(-3.49029568526528E-15,18.,-28.5004271247462));
#344=CARTESIAN_POINT('Origin',(0.,20.,0.));
#345=CARTESIAN_POINT('Origin',(0.,19.4142135623731,1.65855223700909E-15));
#346=CARTESIAN_POINT('Origin',(0.,17.914,0.));
#347=CARTESIAN_POINT('',(-23.5,15.828,-2.87791997799628E-15));
#348=CARTESIAN_POINT('',(-25.586,17.914,3.13338130029842E-15));
#349=CARTESIAN_POINT('Origin',(0.,15.828,0.));
#350=CARTESIAN_POINT('Origin',(0.,20.,0.));
#351=CARTESIAN_POINT('',(-32.5,20.,3.9801020972289E-15));
#352=CARTESIAN_POINT('Origin',(0.,20.,0.));
#353=CARTESIAN_POINT('Origin',(0.,2.,0.));
#354=CARTESIAN_POINT('',(-27.0862135623731,0.585786437626906,-4.93038065763132E-31));
#355=CARTESIAN_POINT('',(-3.31710447401818E-15,0.585786437626906,27.0862135623731));
#356=CARTESIAN_POINT('Origin',(0.,0.585786437626906,-1.65855223700909E-15));
#357=CARTESIAN_POINT('',(-3.49029568526528E-15,0.,28.5004271247462));
#358=CARTESIAN_POINT('Origin',(-3.49029568526528E-15,2.,28.5004271247462));
#359=CARTESIAN_POINT('Origin',(0.,0.,0.));
#360=CARTESIAN_POINT('Origin',(0.,0.585786437626906,-1.65855223700909E-15));
#361=CARTESIAN_POINT('Origin',(0.,2.086,0.));
#362=CARTESIAN_POINT('',(-23.5,4.172,2.87791997799628E-15));
#363=CARTESIAN_POINT('',(-25.586,2.086,-3.13338130029842E-15));
#364=CARTESIAN_POINT('Origin',(0.,4.172,0.));
#365=CARTESIAN_POINT('Origin',(0.,0.,0.));
#366=CARTESIAN_POINT('',(-32.5,0.,3.9801020972289E-15));
#367=CARTESIAN_POINT('Origin',(0.,0.,0.));
#368=CARTESIAN_POINT('Origin',(0.,20.,0.));
#369=CARTESIAN_POINT('',(-23.5,15.5,2.87791997799628E-15));
#370=CARTESIAN_POINT('',(-23.5,20.,-2.87791997799628E-15));
#371=CARTESIAN_POINT('Origin',(0.,15.5,0.));
#372=CARTESIAN_POINT('Origin',(0.,0.,0.));
#373=CARTESIAN_POINT('',(-23.5,4.5,2.87791997799628E-15));
#374=CARTESIAN_POINT('',(-23.5,0.,2.87791997799628E-15));
#375=CARTESIAN_POINT('Origin',(0.,4.5,0.));
#376=CARTESIAN_POINT('Origin',(0.,4.5,0.));
#377=CARTESIAN_POINT('',(-3.45,55.,4.22503145705837E-16));
#378=CARTESIAN_POINT('Origin',(0.,55.,0.));
#379=CARTESIAN_POINT('',(-3.45,4.5,4.22503145705837E-16));
#380=CARTESIAN_POINT('Origin',(0.,55.,0.));
#381=CARTESIAN_POINT('Origin',(0.,15.5,0.));
#382=CARTESIAN_POINT('Origin',(0.,4.5,0.));
#383=CARTESIAN_POINT('Origin',(0.,0.,0.));
#384=CARTESIAN_POINT('',(-32.5,0.,3.9801020972289E-15));
#385=UNCERTAINTY_MEASURE_WITH_UNIT(LENGTH_MEASURE(0.01),#389,
'DISTANCE_ACCURACY_VALUE',
'Maximum model space distance between geometric entities at asserted c
onnectivities');
#386=UNCERTAINTY_MEASURE_WITH_UNIT(LENGTH_MEASURE(0.01),#389,
'DISTANCE_ACCURACY_VALUE',
'Maximum model space distance between geometric entities at asserted c
onnectivities');
#387=(
GEOMETRIC_REPRESENTATION_CONTEXT(3)
GLOBAL_UNCERTAINTY_ASSIGNED_CONTEXT((#385))
GLOBAL_UNIT_ASSIGNED_CONTEXT((#389,#391,#392))
REPRESENTATION_CONTEXT('','3D')
);
#388=(
GEOMETRIC_REPRESENTATION_CONTEXT(3)
GLOBAL_UNCERTAINTY_ASSIGNED_CONTEXT((#386))
GLOBAL_UNIT_ASSIGNED_CONTEXT((#389,#391,#392))
REPRESENTATION_CONTEXT('','3D')
);
#389=(
LENGTH_UNIT()
NAMED_UNIT(*)
SI_UNIT(.MILLI.,.METRE.)
);
#390=(
LENGTH_UNIT()
NAMED_UNIT(*)
SI_UNIT($,.METRE.)
);
#391=(
NAMED_UNIT(*)
PLANE_ANGLE_UNIT()
SI_UNIT($,.RADIAN.)
);
#392=(
NAMED_UNIT(*)
SI_UNIT($,.STERADIAN.)
SOLID_ANGLE_UNIT()
);
#393=SHAPE_DEFINITION_REPRESENTATION(#394,#395);
#394=PRODUCT_DEFINITION_SHAPE('',$,#397);
#395=SHAPE_REPRESENTATION('',(#219),#387);
#396=PRODUCT_DEFINITION_CONTEXT('part definition',#401,'design');
#397=PRODUCT_DEFINITION('2026-07-29-23-12-35-913',
'RC_Car_Front_Wheel_Rim_V3 v1',#398,#396);
#398=PRODUCT_DEFINITION_FORMATION('',$,#403);
#399=PRODUCT_RELATED_PRODUCT_CATEGORY('RC_Car_Front_Wheel_Rim_V3 v1',
'RC_Car_Front_Wheel_Rim_V3 v1',(#403));
#400=APPLICATION_PROTOCOL_DEFINITION('international standard',
'automotive_design',2009,#401);
#401=APPLICATION_CONTEXT(
'Core Data for Automotive Mechanical Design Process');
#402=PRODUCT_CONTEXT('part definition',#401,'mechanical');
#403=PRODUCT('2026-07-29-23-12-35-913','RC_Car_Front_Wheel_Rim_V3 v1',$,
(#402));
#404=PRESENTATION_STYLE_ASSIGNMENT((#405));
#405=SURFACE_STYLE_USAGE(.BOTH.,#406);
#406=SURFACE_SIDE_STYLE('',(#407));
#407=SURFACE_STYLE_FILL_AREA(#408);
#408=FILL_AREA_STYLE('Steel - Satin',(#409));
#409=FILL_AREA_STYLE_COLOUR('Steel - Satin',#410);
#410=COLOUR_RGB('Steel - Satin',0.627450980392157,0.627450980392157,0.627450980392157);
ENDSEC;
END-ISO-10303-21;
