ISO-10303-21;
HEADER;
/* Generated by software containing ST-Developer
 * from STEP Tools, Inc. (www.steptools.com) 
 */

FILE_DESCRIPTION(
/* description */ (''),
/* implementation_level */ '2;1');

FILE_NAME(
/* name */ '87f0b1ad-3398-4c0c-bac6-32fe5f73896e.stp',
/* time_stamp */ '2026-08-18T20:54:39Z',
/* author */ (''),
/* organization */ (''),
/* preprocessor_version */ 'ST-DEVELOPER v20.1',
/* originating_system */ 'Autodesk Translation Framework v15.8.0.0',
/* authorisation */ '');

FILE_SCHEMA (('AUTOMOTIVE_DESIGN { 1 0 10303 214 3 1 1 }'));
ENDSEC;

DATA;
#10=MECHANICAL_DESIGN_GEOMETRIC_PRESENTATION_REPRESENTATION('',(#13),#539);
#11=SHAPE_REPRESENTATION_RELATIONSHIP('SRR','None',#546,#12);
#12=ADVANCED_BREP_SHAPE_REPRESENTATION('',(#14),#538);
#13=STYLED_ITEM('',(#555),#14);
#14=MANIFOLD_SOLID_BREP('Body1',#295);
#15=CYLINDRICAL_SURFACE('',#315,23.5);
#16=CYLINDRICAL_SURFACE('',#328,1.5);
#17=CYLINDRICAL_SURFACE('',#334,23.5);
#18=CYLINDRICAL_SURFACE('',#335,1.5);
#19=CYLINDRICAL_SURFACE('',#336,32.5);
#20=CONICAL_SURFACE('',#313,25.586,0.785398163397448);
#21=CONICAL_SURFACE('',#323,25.586,0.785398163397448);
#22=LINE('',#447,#42);
#23=LINE('',#449,#43);
#24=LINE('',#451,#44);
#25=LINE('',#453,#45);
#26=LINE('',#455,#46);
#27=LINE('',#468,#47);
#28=LINE('',#470,#48);
#29=LINE('',#471,#49);
#30=LINE('',#480,#50);
#31=LINE('',#484,#51);
#32=LINE('',#486,#52);
#33=LINE('',#488,#53);
#34=LINE('',#501,#54);
#35=LINE('',#503,#55);
#36=LINE('',#505,#56);
#37=LINE('',#506,#57);
#38=LINE('',#518,#58);
#39=LINE('',#522,#59);
#40=LINE('',#526,#60);
#41=LINE('',#527,#61);
#42=VECTOR('',#349,10.);
#43=VECTOR('',#350,10.);
#44=VECTOR('',#351,10.);
#45=VECTOR('',#352,10.);
#46=VECTOR('',#353,10.);
#47=VECTOR('',#354,10.);
#48=VECTOR('',#355,10.);
#49=VECTOR('',#356,10.);
#50=VECTOR('',#363,10.);
#51=VECTOR('',#368,10.);
#52=VECTOR('',#369,10.);
#53=VECTOR('',#370,10.);
#54=VECTOR('',#371,10.);
#55=VECTOR('',#372,10.);
#56=VECTOR('',#373,10.);
#57=VECTOR('',#374,10.);
#58=VECTOR('',#393,10.);
#59=VECTOR('',#398,10.);
#60=VECTOR('',#403,10.);
#61=VECTOR('',#404,10.);
#62=(
BOUNDED_CURVE()
B_SPLINE_CURVE(2,(#443,#444,#445),.UNSPECIFIED.,.F.,.F.)
B_SPLINE_CURVE_WITH_KNOTS((3,3),(2.48523365583931,2.78554080002746),
 .UNSPECIFIED.)
CURVE()
GEOMETRIC_REPRESENTATION_ITEM()
RATIONAL_B_SPLINE_CURVE((1.04562524919571,1.02849641232322,1.00656179903679))
REPRESENTATION_ITEM('')
);
#63=(
BOUNDED_CURVE()
B_SPLINE_CURVE(2,(#457,#458,#459),.UNSPECIFIED.,.F.,.F.)
B_SPLINE_CURVE_WITH_KNOTS((3,3),(0.0442158534266851,0.344587426862589),
 .UNSPECIFIED.)
CURVE()
GEOMETRIC_REPRESENTATION_ITEM()
RATIONAL_B_SPLINE_CURVE((1.00655961106837,1.02848658296647,1.04560753601158))
REPRESENTATION_ITEM('')
);
#64=(
BOUNDED_CURVE()
B_SPLINE_CURVE(2,(#474,#475,#476),.UNSPECIFIED.,.F.,.F.)
B_SPLINE_CURVE_WITH_KNOTS((3,3),(0.0442059947243116,0.344513138715666),
 .UNSPECIFIED.)
CURVE()
GEOMETRIC_REPRESENTATION_ITEM()
RATIONAL_B_SPLINE_CURVE((1.00656179905417,1.028496412402,1.04562524932573))
REPRESENTATION_ITEM('')
);
#65=(
BOUNDED_CURVE()
B_SPLINE_CURVE(2,(#497,#498,#499),.UNSPECIFIED.,.F.,.F.)
B_SPLINE_CURVE_WITH_KNOTS((3,3),(2.48467374881505,2.78504532215161),
 .UNSPECIFIED.)
CURVE()
GEOMETRIC_REPRESENTATION_ITEM()
RATIONAL_B_SPLINE_CURVE((1.04560753607741,1.02848658300637,1.00655961107717))
REPRESENTATION_ITEM('')
);
#66=PLANE('',#312);
#67=PLANE('',#317);
#68=PLANE('',#321);
#69=PLANE('',#325);
#70=PLANE('',#330);
#71=PLANE('',#331);
#72=PLANE('',#338);
#73=FACE_OUTER_BOUND('',#89,.T.);
#74=FACE_OUTER_BOUND('',#90,.T.);
#75=FACE_OUTER_BOUND('',#91,.T.);
#76=FACE_OUTER_BOUND('',#92,.T.);
#77=FACE_OUTER_BOUND('',#93,.T.);
#78=FACE_OUTER_BOUND('',#94,.T.);
#79=FACE_OUTER_BOUND('',#95,.T.);
#80=FACE_OUTER_BOUND('',#96,.T.);
#81=FACE_OUTER_BOUND('',#97,.T.);
#82=FACE_OUTER_BOUND('',#98,.T.);
#83=FACE_OUTER_BOUND('',#99,.T.);
#84=FACE_OUTER_BOUND('',#100,.T.);
#85=FACE_OUTER_BOUND('',#101,.T.);
#86=FACE_OUTER_BOUND('',#102,.T.);
#87=FACE_OUTER_BOUND('',#103,.T.);
#88=FACE_OUTER_BOUND('',#104,.T.);
#89=EDGE_LOOP('',(#193,#194,#195,#196));
#90=EDGE_LOOP('',(#197,#198,#199,#200,#201,#202,#203,#204,#205,#206,#207,
#208));
#91=EDGE_LOOP('',(#209,#210,#211,#212));
#92=EDGE_LOOP('',(#213,#214,#215,#216));
#93=EDGE_LOOP('',(#217,#218,#219,#220,#221,#222,#223,#224,#225,#226,#227,
#228));
#94=EDGE_LOOP('',(#229,#230,#231,#232));
#95=EDGE_LOOP('',(#233,#234,#235,#236));
#96=EDGE_LOOP('',(#237,#238,#239,#240));
#97=EDGE_LOOP('',(#241,#242,#243,#244,#245,#246));
#98=EDGE_LOOP('',(#247,#248,#249,#250));
#99=EDGE_LOOP('',(#251,#252,#253,#254));
#100=EDGE_LOOP('',(#255,#256,#257,#258,#259,#260));
#101=EDGE_LOOP('',(#261,#262,#263,#264));
#102=EDGE_LOOP('',(#265,#266,#267,#268));
#103=EDGE_LOOP('',(#269,#270,#271,#272));
#104=EDGE_LOOP('',(#273,#274,#275,#276));
#105=CIRCLE('',#310,27.0862135623731);
#106=CIRCLE('',#311,28.5004271247462);
#107=CIRCLE('',#314,23.5);
#108=CIRCLE('',#316,23.5);
#109=CIRCLE('',#319,27.0862135623731);
#110=CIRCLE('',#320,28.5004271247462);
#111=CIRCLE('',#322,32.5);
#112=CIRCLE('',#324,23.5);
#113=CIRCLE('',#326,1.5);
#114=CIRCLE('',#327,1.5);
#115=CIRCLE('',#329,1.5);
#116=CIRCLE('',#332,23.5);
#117=CIRCLE('',#333,1.5);
#118=CIRCLE('',#337,32.5);
#119=B_SPLINE_CURVE_WITH_KNOTS('',3,(#425,#426,#427,#428,#429,#430),
 .UNSPECIFIED.,.F.,.F.,(4,2,4),(0.296214034760919,0.370277593004849,0.444329389401971),
 .UNSPECIFIED.);
#120=B_SPLINE_CURVE_WITH_KNOTS('',3,(#434,#435,#436,#437,#438,#439),
 .UNSPECIFIED.,.F.,.F.,(4,2,4),(0.740532205780902,0.814584002178021,0.88864756042195),
 .UNSPECIFIED.);
#121=B_SPLINE_CURVE_WITH_KNOTS('',3,(#461,#462,#463,#464,#465,#466),
 .UNSPECIFIED.,.F.,.F.,(4,2,4),(0.296214034760919,0.370277593004848,0.44432938940197),
 .UNSPECIFIED.);
#122=B_SPLINE_CURVE_WITH_KNOTS('',3,(#490,#491,#492,#493,#494,#495),
 .UNSPECIFIED.,.F.,.F.,(4,2,4),(0.740532205780899,0.814584002178021,0.888647560421951),
 .UNSPECIFIED.);
#123=VERTEX_POINT('',#423);
#124=VERTEX_POINT('',#424);
#125=VERTEX_POINT('',#431);
#126=VERTEX_POINT('',#433);
#127=VERTEX_POINT('',#442);
#128=VERTEX_POINT('',#446);
#129=VERTEX_POINT('',#448);
#130=VERTEX_POINT('',#450);
#131=VERTEX_POINT('',#452);
#132=VERTEX_POINT('',#454);
#133=VERTEX_POINT('',#456);
#134=VERTEX_POINT('',#460);
#135=VERTEX_POINT('',#467);
#136=VERTEX_POINT('',#469);
#137=VERTEX_POINT('',#473);
#138=VERTEX_POINT('',#479);
#139=VERTEX_POINT('',#483);
#140=VERTEX_POINT('',#485);
#141=VERTEX_POINT('',#487);
#142=VERTEX_POINT('',#489);
#143=VERTEX_POINT('',#496);
#144=VERTEX_POINT('',#500);
#145=VERTEX_POINT('',#502);
#146=VERTEX_POINT('',#504);
#147=VERTEX_POINT('',#515);
#148=VERTEX_POINT('',#517);
#149=VERTEX_POINT('',#521);
#150=VERTEX_POINT('',#525);
#151=EDGE_CURVE('',#123,#124,#119,.T.);
#152=EDGE_CURVE('',#124,#125,#105,.T.);
#153=EDGE_CURVE('',#125,#126,#120,.T.);
#154=EDGE_CURVE('',#126,#123,#106,.T.);
#155=EDGE_CURVE('',#127,#125,#62,.T.);
#156=EDGE_CURVE('',#127,#128,#22,.T.);
#157=EDGE_CURVE('',#128,#129,#23,.T.);
#158=EDGE_CURVE('',#130,#129,#24,.T.);
#159=EDGE_CURVE('',#130,#131,#25,.T.);
#160=EDGE_CURVE('',#131,#132,#26,.T.);
#161=EDGE_CURVE('',#133,#132,#63,.T.);
#162=EDGE_CURVE('',#134,#133,#121,.T.);
#163=EDGE_CURVE('',#135,#134,#27,.T.);
#164=EDGE_CURVE('',#135,#136,#28,.T.);
#165=EDGE_CURVE('',#126,#136,#29,.T.);
#166=EDGE_CURVE('',#124,#137,#64,.T.);
#167=EDGE_CURVE('',#137,#127,#107,.T.);
#168=EDGE_CURVE('',#138,#137,#30,.T.);
#169=EDGE_CURVE('',#138,#128,#108,.T.);
#170=EDGE_CURVE('',#139,#123,#31,.T.);
#171=EDGE_CURVE('',#139,#140,#32,.T.);
#172=EDGE_CURVE('',#141,#140,#33,.T.);
#173=EDGE_CURVE('',#142,#141,#122,.T.);
#174=EDGE_CURVE('',#143,#142,#65,.T.);
#175=EDGE_CURVE('',#143,#144,#34,.T.);
#176=EDGE_CURVE('',#144,#145,#35,.T.);
#177=EDGE_CURVE('',#146,#145,#36,.T.);
#178=EDGE_CURVE('',#146,#138,#37,.T.);
#179=EDGE_CURVE('',#133,#142,#109,.T.);
#180=EDGE_CURVE('',#141,#134,#110,.T.);
#181=EDGE_CURVE('',#135,#140,#111,.T.);
#182=EDGE_CURVE('',#132,#143,#112,.T.);
#183=EDGE_CURVE('',#147,#146,#113,.T.);
#184=EDGE_CURVE('',#148,#147,#38,.T.);
#185=EDGE_CURVE('',#129,#148,#114,.T.);
#186=EDGE_CURVE('',#149,#148,#39,.T.);
#187=EDGE_CURVE('',#149,#130,#115,.T.);
#188=EDGE_CURVE('',#150,#147,#40,.T.);
#189=EDGE_CURVE('',#150,#149,#41,.T.);
#190=EDGE_CURVE('',#131,#144,#116,.T.);
#191=EDGE_CURVE('',#145,#150,#117,.T.);
#192=EDGE_CURVE('',#136,#139,#118,.T.);
#193=ORIENTED_EDGE('',*,*,#151,.T.);
#194=ORIENTED_EDGE('',*,*,#152,.T.);
#195=ORIENTED_EDGE('',*,*,#153,.T.);
#196=ORIENTED_EDGE('',*,*,#154,.T.);
#197=ORIENTED_EDGE('',*,*,#153,.F.);
#198=ORIENTED_EDGE('',*,*,#155,.F.);
#199=ORIENTED_EDGE('',*,*,#156,.T.);
#200=ORIENTED_EDGE('',*,*,#157,.T.);
#201=ORIENTED_EDGE('',*,*,#158,.F.);
#202=ORIENTED_EDGE('',*,*,#159,.T.);
#203=ORIENTED_EDGE('',*,*,#160,.T.);
#204=ORIENTED_EDGE('',*,*,#161,.F.);
#205=ORIENTED_EDGE('',*,*,#162,.F.);
#206=ORIENTED_EDGE('',*,*,#163,.F.);
#207=ORIENTED_EDGE('',*,*,#164,.T.);
#208=ORIENTED_EDGE('',*,*,#165,.F.);
#209=ORIENTED_EDGE('',*,*,#152,.F.);
#210=ORIENTED_EDGE('',*,*,#166,.T.);
#211=ORIENTED_EDGE('',*,*,#167,.T.);
#212=ORIENTED_EDGE('',*,*,#155,.T.);
#213=ORIENTED_EDGE('',*,*,#167,.F.);
#214=ORIENTED_EDGE('',*,*,#168,.F.);
#215=ORIENTED_EDGE('',*,*,#169,.T.);
#216=ORIENTED_EDGE('',*,*,#156,.F.);
#217=ORIENTED_EDGE('',*,*,#151,.F.);
#218=ORIENTED_EDGE('',*,*,#170,.F.);
#219=ORIENTED_EDGE('',*,*,#171,.T.);
#220=ORIENTED_EDGE('',*,*,#172,.F.);
#221=ORIENTED_EDGE('',*,*,#173,.F.);
#222=ORIENTED_EDGE('',*,*,#174,.F.);
#223=ORIENTED_EDGE('',*,*,#175,.T.);
#224=ORIENTED_EDGE('',*,*,#176,.T.);
#225=ORIENTED_EDGE('',*,*,#177,.F.);
#226=ORIENTED_EDGE('',*,*,#178,.T.);
#227=ORIENTED_EDGE('',*,*,#168,.T.);
#228=ORIENTED_EDGE('',*,*,#166,.F.);
#229=ORIENTED_EDGE('',*,*,#162,.T.);
#230=ORIENTED_EDGE('',*,*,#179,.T.);
#231=ORIENTED_EDGE('',*,*,#173,.T.);
#232=ORIENTED_EDGE('',*,*,#180,.T.);
#233=ORIENTED_EDGE('',*,*,#180,.F.);
#234=ORIENTED_EDGE('',*,*,#172,.T.);
#235=ORIENTED_EDGE('',*,*,#181,.F.);
#236=ORIENTED_EDGE('',*,*,#163,.T.);
#237=ORIENTED_EDGE('',*,*,#179,.F.);
#238=ORIENTED_EDGE('',*,*,#161,.T.);
#239=ORIENTED_EDGE('',*,*,#182,.T.);
#240=ORIENTED_EDGE('',*,*,#174,.T.);
#241=ORIENTED_EDGE('',*,*,#157,.F.);
#242=ORIENTED_EDGE('',*,*,#169,.F.);
#243=ORIENTED_EDGE('',*,*,#178,.F.);
#244=ORIENTED_EDGE('',*,*,#183,.F.);
#245=ORIENTED_EDGE('',*,*,#184,.F.);
#246=ORIENTED_EDGE('',*,*,#185,.F.);
#247=ORIENTED_EDGE('',*,*,#185,.T.);
#248=ORIENTED_EDGE('',*,*,#186,.F.);
#249=ORIENTED_EDGE('',*,*,#187,.T.);
#250=ORIENTED_EDGE('',*,*,#158,.T.);
#251=ORIENTED_EDGE('',*,*,#184,.T.);
#252=ORIENTED_EDGE('',*,*,#188,.F.);
#253=ORIENTED_EDGE('',*,*,#189,.T.);
#254=ORIENTED_EDGE('',*,*,#186,.T.);
#255=ORIENTED_EDGE('',*,*,#176,.F.);
#256=ORIENTED_EDGE('',*,*,#190,.F.);
#257=ORIENTED_EDGE('',*,*,#159,.F.);
#258=ORIENTED_EDGE('',*,*,#187,.F.);
#259=ORIENTED_EDGE('',*,*,#189,.F.);
#260=ORIENTED_EDGE('',*,*,#191,.F.);
#261=ORIENTED_EDGE('',*,*,#182,.F.);
#262=ORIENTED_EDGE('',*,*,#160,.F.);
#263=ORIENTED_EDGE('',*,*,#190,.T.);
#264=ORIENTED_EDGE('',*,*,#175,.F.);
#265=ORIENTED_EDGE('',*,*,#183,.T.);
#266=ORIENTED_EDGE('',*,*,#177,.T.);
#267=ORIENTED_EDGE('',*,*,#191,.T.);
#268=ORIENTED_EDGE('',*,*,#188,.T.);
#269=ORIENTED_EDGE('',*,*,#164,.F.);
#270=ORIENTED_EDGE('',*,*,#181,.T.);
#271=ORIENTED_EDGE('',*,*,#171,.F.);
#272=ORIENTED_EDGE('',*,*,#192,.F.);
#273=ORIENTED_EDGE('',*,*,#154,.F.);
#274=ORIENTED_EDGE('',*,*,#165,.T.);
#275=ORIENTED_EDGE('',*,*,#192,.T.);
#276=ORIENTED_EDGE('',*,*,#170,.T.);
#277=TOROIDAL_SURFACE('',#309,28.5004271247462,2.);
#278=TOROIDAL_SURFACE('',#318,28.5004271247462,2.);
#279=ADVANCED_FACE('',(#73),#277,.T.);
#280=ADVANCED_FACE('',(#74),#66,.F.);
#281=ADVANCED_FACE('',(#75),#20,.F.);
#282=ADVANCED_FACE('',(#76),#15,.F.);
#283=ADVANCED_FACE('',(#77),#67,.F.);
#284=ADVANCED_FACE('',(#78),#278,.T.);
#285=ADVANCED_FACE('',(#79),#68,.F.);
#286=ADVANCED_FACE('',(#80),#21,.F.);
#287=ADVANCED_FACE('',(#81),#69,.T.);
#288=ADVANCED_FACE('',(#82),#16,.F.);
#289=ADVANCED_FACE('',(#83),#70,.F.);
#290=ADVANCED_FACE('',(#84),#71,.F.);
#291=ADVANCED_FACE('',(#85),#17,.F.);
#292=ADVANCED_FACE('',(#86),#18,.F.);
#293=ADVANCED_FACE('',(#87),#19,.T.);
#294=ADVANCED_FACE('',(#88),#72,.T.);
#295=CLOSED_SHELL('',(#279,#280,#281,#282,#283,#284,#285,#286,#287,#288,
#289,#290,#291,#292,#293,#294));
#296=DERIVED_UNIT_ELEMENT(#298,1.);
#297=DERIVED_UNIT_ELEMENT(#541,-3.);
#298=(
MASS_UNIT()
NAMED_UNIT(*)
SI_UNIT(.KILO.,.GRAM.)
);
#299=DERIVED_UNIT((#296,#297));
#300=MEASURE_REPRESENTATION_ITEM('density measure',
POSITIVE_RATIO_MEASURE(7850.),#299);
#301=PROPERTY_DEFINITION_REPRESENTATION(#306,#303);
#302=PROPERTY_DEFINITION_REPRESENTATION(#307,#304);
#303=REPRESENTATION('material name',(#305),#538);
#304=REPRESENTATION('density',(#300),#538);
#305=DESCRIPTIVE_REPRESENTATION_ITEM('Steel','Steel');
#306=PROPERTY_DEFINITION('material property','material name',#548);
#307=PROPERTY_DEFINITION('material property','density of part',#548);
#308=AXIS2_PLACEMENT_3D('',#421,#339,#340);
#309=AXIS2_PLACEMENT_3D('',#422,#341,#342);
#310=AXIS2_PLACEMENT_3D('',#432,#343,#344);
#311=AXIS2_PLACEMENT_3D('',#440,#345,#346);
#312=AXIS2_PLACEMENT_3D('',#441,#347,#348);
#313=AXIS2_PLACEMENT_3D('',#472,#357,#358);
#314=AXIS2_PLACEMENT_3D('',#477,#359,#360);
#315=AXIS2_PLACEMENT_3D('',#478,#361,#362);
#316=AXIS2_PLACEMENT_3D('',#481,#364,#365);
#317=AXIS2_PLACEMENT_3D('',#482,#366,#367);
#318=AXIS2_PLACEMENT_3D('',#507,#375,#376);
#319=AXIS2_PLACEMENT_3D('',#508,#377,#378);
#320=AXIS2_PLACEMENT_3D('',#509,#379,#380);
#321=AXIS2_PLACEMENT_3D('',#510,#381,#382);
#322=AXIS2_PLACEMENT_3D('',#511,#383,#384);
#323=AXIS2_PLACEMENT_3D('',#512,#385,#386);
#324=AXIS2_PLACEMENT_3D('',#513,#387,#388);
#325=AXIS2_PLACEMENT_3D('',#514,#389,#390);
#326=AXIS2_PLACEMENT_3D('',#516,#391,#392);
#327=AXIS2_PLACEMENT_3D('',#519,#394,#395);
#328=AXIS2_PLACEMENT_3D('',#520,#396,#397);
#329=AXIS2_PLACEMENT_3D('',#523,#399,#400);
#330=AXIS2_PLACEMENT_3D('',#524,#401,#402);
#331=AXIS2_PLACEMENT_3D('',#528,#405,#406);
#332=AXIS2_PLACEMENT_3D('',#529,#407,#408);
#333=AXIS2_PLACEMENT_3D('',#530,#409,#410);
#334=AXIS2_PLACEMENT_3D('',#531,#411,#412);
#335=AXIS2_PLACEMENT_3D('',#532,#413,#414);
#336=AXIS2_PLACEMENT_3D('',#533,#415,#416);
#337=AXIS2_PLACEMENT_3D('',#534,#417,#418);
#338=AXIS2_PLACEMENT_3D('',#535,#419,#420);
#339=DIRECTION('axis',(0.,0.,1.));
#340=DIRECTION('refdir',(1.,0.,0.));
#341=DIRECTION('center_axis',(0.,1.,0.));
#342=DIRECTION('ref_axis',(-5.45153519811549E-15,0.,-1.));
#343=DIRECTION('center_axis',(0.,-1.,0.));
#344=DIRECTION('ref_axis',(-4.66293670342566E-15,0.,-1.));
#345=DIRECTION('center_axis',(0.,1.,0.));
#346=DIRECTION('ref_axis',(-4.62458911837273E-15,0.,-1.));
#347=DIRECTION('center_axis',(1.,0.,-4.09977022262085E-16));
#348=DIRECTION('ref_axis',(-4.09977022262085E-16,0.,-1.));
#349=DIRECTION('',(0.,-1.,0.));
#350=DIRECTION('',(-4.09977022262085E-16,0.,-1.));
#351=DIRECTION('',(0.,1.,0.));
#352=DIRECTION('',(4.09977022262085E-16,0.,1.));
#353=DIRECTION('',(0.,-1.,0.));
#354=DIRECTION('',(-4.09977022262085E-16,0.,-1.));
#355=DIRECTION('',(0.,1.,0.));
#356=DIRECTION('',(4.09977022262085E-16,0.,1.));
#357=DIRECTION('center_axis',(0.,1.,0.));
#358=DIRECTION('ref_axis',(-4.82374896839332E-15,0.,-1.));
#359=DIRECTION('center_axis',(0.,-1.,0.));
#360=DIRECTION('ref_axis',(1.,0.,0.));
#361=DIRECTION('center_axis',(0.,-1.,0.));
#362=DIRECTION('ref_axis',(-5.51276753807285E-15,0.,-1.));
#363=DIRECTION('',(0.,1.,0.));
#364=DIRECTION('center_axis',(0.,-1.,0.));
#365=DIRECTION('ref_axis',(1.,0.,0.));
#366=DIRECTION('center_axis',(-1.,0.,-1.19576631493108E-16));
#367=DIRECTION('ref_axis',(-1.19576631493108E-16,0.,1.));
#368=DIRECTION('',(1.19576631493108E-16,0.,-1.));
#369=DIRECTION('',(0.,-1.,0.));
#370=DIRECTION('',(-1.19576631493108E-16,0.,1.));
#371=DIRECTION('',(0.,1.,0.));
#372=DIRECTION('',(1.19576631493108E-16,0.,-1.));
#373=DIRECTION('',(0.,-1.,0.));
#374=DIRECTION('',(-1.19576631493108E-16,0.,1.));
#375=DIRECTION('center_axis',(0.,-1.,0.));
#376=DIRECTION('ref_axis',(0.,0.,-1.));
#377=DIRECTION('center_axis',(0.,1.,0.));
#378=DIRECTION('ref_axis',(-4.77395900588817E-15,0.,-1.));
#379=DIRECTION('center_axis',(0.,-1.,0.));
#380=DIRECTION('ref_axis',(-4.82374896839332E-15,0.,-1.));
#381=DIRECTION('center_axis',(0.,1.,0.));
#382=DIRECTION('ref_axis',(1.,0.,0.));
#383=DIRECTION('center_axis',(0.,1.,0.));
#384=DIRECTION('ref_axis',(1.,0.,0.));
#385=DIRECTION('center_axis',(0.,-1.,0.));
#386=DIRECTION('ref_axis',(-5.51276753807285E-15,0.,-1.));
#387=DIRECTION('center_axis',(0.,1.,0.));
#388=DIRECTION('ref_axis',(1.,0.,0.));
#389=DIRECTION('center_axis',(0.,1.,0.));
#390=DIRECTION('ref_axis',(1.,0.,0.));
#391=DIRECTION('center_axis',(0.,1.,0.));
#392=DIRECTION('ref_axis',(1.,0.,0.));
#393=DIRECTION('',(-1.,0.,0.));
#394=DIRECTION('center_axis',(0.,1.,0.));
#395=DIRECTION('ref_axis',(1.,0.,0.));
#396=DIRECTION('center_axis',(0.,1.,0.));
#397=DIRECTION('ref_axis',(1.,0.,0.));
#398=DIRECTION('',(0.,1.,0.));
#399=DIRECTION('center_axis',(0.,-1.,0.));
#400=DIRECTION('ref_axis',(1.,0.,0.));
#401=DIRECTION('center_axis',(0.,0.,-1.));
#402=DIRECTION('ref_axis',(-1.,0.,0.));
#403=DIRECTION('',(0.,1.,0.));
#404=DIRECTION('',(1.,0.,0.));
#405=DIRECTION('center_axis',(0.,1.,0.));
#406=DIRECTION('ref_axis',(1.,0.,0.));
#407=DIRECTION('center_axis',(0.,1.,0.));
#408=DIRECTION('ref_axis',(1.,0.,0.));
#409=DIRECTION('center_axis',(0.,-1.,0.));
#410=DIRECTION('ref_axis',(1.,0.,0.));
#411=DIRECTION('center_axis',(0.,1.,0.));
#412=DIRECTION('ref_axis',(-5.71192738809345E-15,0.,-1.));
#413=DIRECTION('center_axis',(0.,1.,0.));
#414=DIRECTION('ref_axis',(-0.979289637097522,0.,0.202464334324354));
#415=DIRECTION('center_axis',(0.,1.,0.));
#416=DIRECTION('ref_axis',(6.12323399573677E-17,0.,-1.));
#417=DIRECTION('center_axis',(0.,1.,0.));
#418=DIRECTION('ref_axis',(1.,0.,0.));
#419=DIRECTION('center_axis',(0.,1.,0.));
#420=DIRECTION('ref_axis',(1.,0.,0.));
#421=CARTESIAN_POINT('',(0.,0.,0.));
#422=CARTESIAN_POINT('Origin',(0.,18.,0.));
#423=CARTESIAN_POINT('',(-0.500000000000003,20.,28.4960408880421));
#424=CARTESIAN_POINT('',(-0.500000000000003,19.4142135623731,27.0815982753324));
#425=CARTESIAN_POINT('Ctrl Pts',(-0.500000000000003,20.,28.4960408880421));
#426=CARTESIAN_POINT('Ctrl Pts',(-0.500000000000003,20.,28.2491623605624));
#427=CARTESIAN_POINT('Ctrl Pts',(-0.500000000000003,19.9422098165624,27.9585993463051));
#428=CARTESIAN_POINT('Ctrl Pts',(-0.500000000000003,19.7532878040723,27.5024570577329));
#429=CARTESIAN_POINT('Ctrl Pts',(-0.500000000000003,19.5887458691596,27.2561603261792));
#430=CARTESIAN_POINT('Ctrl Pts',(-0.500000000000003,19.4142135623731,27.0815982753324));
#431=CARTESIAN_POINT('',(0.500000000000277,19.4142135623731,27.0815982753324));
#432=CARTESIAN_POINT('Origin',(1.65855223700909E-15,19.4142135623731,0.));
#433=CARTESIAN_POINT('',(0.500000000000278,20.,28.4960408880421));
#434=CARTESIAN_POINT('Ctrl Pts',(0.500000000000277,19.4142135623731,27.0815982753324));
#435=CARTESIAN_POINT('Ctrl Pts',(0.500000000000278,19.5887458691596,27.2561603261793));
#436=CARTESIAN_POINT('Ctrl Pts',(0.500000000000278,19.7532878040723,27.5024570577329));
#437=CARTESIAN_POINT('Ctrl Pts',(0.500000000000278,19.9422098165624,27.9585993463051));
#438=CARTESIAN_POINT('Ctrl Pts',(0.500000000000278,20.,28.2491623605624));
#439=CARTESIAN_POINT('Ctrl Pts',(0.500000000000278,20.,28.4960408880421));
#440=CARTESIAN_POINT('Origin',(0.,20.,0.));
#441=CARTESIAN_POINT('Origin',(0.50000000000028,0.,32.4961536185438));
#442=CARTESIAN_POINT('',(0.500000000000276,15.828,23.4946802489415));
#443=CARTESIAN_POINT('Ctrl Pts',(0.500000000000276,15.828,23.4946802489415));
#444=CARTESIAN_POINT('Ctrl Pts',(0.500000000000277,17.4939379340751,25.16099539075));
#445=CARTESIAN_POINT('Ctrl Pts',(0.500000000000277,19.4142135623731,27.0815982753324));
#446=CARTESIAN_POINT('',(0.500000000000276,15.5,23.4946802489415));
#447=CARTESIAN_POINT('',(0.500000000000276,20.,23.4946802489415));
#448=CARTESIAN_POINT('',(0.500000000000267,15.5,1.414213562373));
#449=CARTESIAN_POINT('',(0.500000000000273,15.5,16.2480768092719));
#450=CARTESIAN_POINT('',(0.500000000000267,4.5,1.414213562373));
#451=CARTESIAN_POINT('',(0.500000000000267,0.,1.414213562373));
#452=CARTESIAN_POINT('',(0.500000000000276,4.5,23.4946802489415));
#453=CARTESIAN_POINT('',(0.500000000000273,4.5,16.2480768092719));
#454=CARTESIAN_POINT('',(0.500000000000276,4.172,23.4946802489415));
#455=CARTESIAN_POINT('',(0.500000000000276,0.,23.4946802489415));
#456=CARTESIAN_POINT('',(0.500000000000277,0.585786437626893,27.0815982753324));
#457=CARTESIAN_POINT('Ctrl Pts',(0.500000000000277,0.585786437626893,27.0815982753323));
#458=CARTESIAN_POINT('Ctrl Pts',(0.500000000000277,2.50606206599532,25.1609953906797));
#459=CARTESIAN_POINT('Ctrl Pts',(0.500000000000276,4.172,23.4946802489415));
#460=CARTESIAN_POINT('',(0.500000000000278,0.,28.4960408880421));
#461=CARTESIAN_POINT('Ctrl Pts',(0.500000000000278,-1.36609473733174E-16,
28.4960408880421));
#462=CARTESIAN_POINT('Ctrl Pts',(0.500000000000278,-2.59950075205289E-16,
28.2491623605624));
#463=CARTESIAN_POINT('Ctrl Pts',(0.500000000000278,0.0577901834375889,27.9585993463051));
#464=CARTESIAN_POINT('Ctrl Pts',(0.500000000000278,0.246712195927721,27.5024570577329));
#465=CARTESIAN_POINT('Ctrl Pts',(0.500000000000278,0.411254130840386,27.2561603261792));
#466=CARTESIAN_POINT('Ctrl Pts',(0.500000000000277,0.585786437626899,27.0815982753324));
#467=CARTESIAN_POINT('',(0.50000000000028,0.,32.4961536185438));
#468=CARTESIAN_POINT('',(0.500000000000273,0.,16.2480768092719));
#469=CARTESIAN_POINT('',(0.50000000000028,20.,32.4961536185438));
#470=CARTESIAN_POINT('',(0.49999999999995,0.,32.4961536185438));
#471=CARTESIAN_POINT('',(0.500000000000273,20.,16.2480768092719));
#472=CARTESIAN_POINT('Origin',(0.,17.914,0.));
#473=CARTESIAN_POINT('',(-0.500000000000003,15.828,23.4946802489415));
#474=CARTESIAN_POINT('Ctrl Pts',(-0.500000000000003,19.4142135623731,27.0815982753324));
#475=CARTESIAN_POINT('Ctrl Pts',(-0.500000000000003,17.4939379339587,25.1609953906337));
#476=CARTESIAN_POINT('Ctrl Pts',(-0.500000000000003,15.828,23.4946802489415));
#477=CARTESIAN_POINT('Origin',(0.,15.828,0.));
#478=CARTESIAN_POINT('Origin',(0.,20.,0.));
#479=CARTESIAN_POINT('',(-0.500000000000003,15.5,23.4946802489415));
#480=CARTESIAN_POINT('',(-0.500000000000003,20.,23.4946802489415));
#481=CARTESIAN_POINT('Origin',(0.,15.5,0.));
#482=CARTESIAN_POINT('Origin',(-0.5,0.,1.4142135623731));
#483=CARTESIAN_POINT('',(-0.500000000000004,20.,32.4961536185438));
#484=CARTESIAN_POINT('',(-0.5,20.,0.707106781186548));
#485=CARTESIAN_POINT('',(-0.500000000000004,0.,32.4961536185438));
#486=CARTESIAN_POINT('',(-0.49999999999995,0.,32.4961536185438));
#487=CARTESIAN_POINT('',(-0.500000000000003,0.,28.4960408880421));
#488=CARTESIAN_POINT('',(-0.5,0.,0.707106781186548));
#489=CARTESIAN_POINT('',(-0.500000000000003,0.585786437626908,27.0815982753324));
#490=CARTESIAN_POINT('Ctrl Pts',(-0.500000000000003,0.585786437626907,27.0815982753324));
#491=CARTESIAN_POINT('Ctrl Pts',(-0.500000000000003,0.411254130840395,27.2561603261792));
#492=CARTESIAN_POINT('Ctrl Pts',(-0.500000000000003,0.246712195927722,27.5024570577329));
#493=CARTESIAN_POINT('Ctrl Pts',(-0.500000000000003,0.0577901834375888,
27.9585993463051));
#494=CARTESIAN_POINT('Ctrl Pts',(-0.500000000000003,5.98489389935133E-17,
28.2491623605624));
#495=CARTESIAN_POINT('Ctrl Pts',(-0.500000000000003,-8.67361737988404E-18,
28.4960408880421));
#496=CARTESIAN_POINT('',(-0.500000000000003,4.172,23.4946802489415));
#497=CARTESIAN_POINT('Ctrl Pts',(-0.500000000000003,4.172,23.4946802489415));
#498=CARTESIAN_POINT('Ctrl Pts',(-0.500000000000003,2.50606206605424,25.1609953906208));
#499=CARTESIAN_POINT('Ctrl Pts',(-0.500000000000003,0.585786437626908,27.0815982753324));
#500=CARTESIAN_POINT('',(-0.500000000000003,4.5,23.4946802489415));
#501=CARTESIAN_POINT('',(-0.500000000000003,0.,23.4946802489415));
#502=CARTESIAN_POINT('',(-0.5,4.5,1.4142135623731));
#503=CARTESIAN_POINT('',(-0.5,4.5,0.707106781186548));
#504=CARTESIAN_POINT('',(-0.5,15.5,1.4142135623731));
#505=CARTESIAN_POINT('',(-0.5,0.,1.4142135623731));
#506=CARTESIAN_POINT('',(-0.5,15.5,0.707106781186548));
#507=CARTESIAN_POINT('Origin',(0.,2.,0.));
#508=CARTESIAN_POINT('Origin',(-1.34862155767699E-15,0.585786437626906,
0.));
#509=CARTESIAN_POINT('Origin',(0.,0.,0.));
#510=CARTESIAN_POINT('Origin',(0.,0.,0.));
#511=CARTESIAN_POINT('Origin',(0.,0.,0.));
#512=CARTESIAN_POINT('Origin',(0.,2.086,0.));
#513=CARTESIAN_POINT('Origin',(0.,4.172,0.));
#514=CARTESIAN_POINT('Origin',(0.,15.5,0.));
#515=CARTESIAN_POINT('',(-1.01980390271856,15.5,-1.1));
#516=CARTESIAN_POINT('Origin',(0.,15.5,0.));
#517=CARTESIAN_POINT('',(1.01980390271856,15.5,-1.1));
#518=CARTESIAN_POINT('',(0.509901951359279,15.5,-1.1));
#519=CARTESIAN_POINT('Origin',(0.,15.5,0.));
#520=CARTESIAN_POINT('Origin',(0.,0.,0.));
#521=CARTESIAN_POINT('',(1.01980390271856,4.5,-1.1));
#522=CARTESIAN_POINT('',(1.01980390271856,0.,-1.1));
#523=CARTESIAN_POINT('Origin',(0.,4.5,0.));
#524=CARTESIAN_POINT('Origin',(1.01980390271856,0.,-1.1));
#525=CARTESIAN_POINT('',(-1.01980390271856,4.5,-1.1));
#526=CARTESIAN_POINT('',(-1.01980390271856,0.,-1.1));
#527=CARTESIAN_POINT('',(0.509901951359279,4.5,-1.1));
#528=CARTESIAN_POINT('Origin',(0.,4.5,0.));
#529=CARTESIAN_POINT('Origin',(0.,4.5,0.));
#530=CARTESIAN_POINT('Origin',(0.,4.5,0.));
#531=CARTESIAN_POINT('Origin',(0.,0.,0.));
#532=CARTESIAN_POINT('Origin',(0.,0.,0.));
#533=CARTESIAN_POINT('Origin',(0.,0.,0.));
#534=CARTESIAN_POINT('Origin',(0.,20.,0.));
#535=CARTESIAN_POINT('Origin',(0.,20.,0.));
#536=UNCERTAINTY_MEASURE_WITH_UNIT(LENGTH_MEASURE(0.01),#540,
'DISTANCE_ACCURACY_VALUE',
'Maximum model space distance between geometric entities at asserted c
onnectivities');
#537=UNCERTAINTY_MEASURE_WITH_UNIT(LENGTH_MEASURE(0.01),#540,
'DISTANCE_ACCURACY_VALUE',
'Maximum model space distance between geometric entities at asserted c
onnectivities');
#538=(
GEOMETRIC_REPRESENTATION_CONTEXT(3)
GLOBAL_UNCERTAINTY_ASSIGNED_CONTEXT((#536))
GLOBAL_UNIT_ASSIGNED_CONTEXT((#540,#542,#543))
REPRESENTATION_CONTEXT('','3D')
);
#539=(
GEOMETRIC_REPRESENTATION_CONTEXT(3)
GLOBAL_UNCERTAINTY_ASSIGNED_CONTEXT((#537))
GLOBAL_UNIT_ASSIGNED_CONTEXT((#540,#542,#543))
REPRESENTATION_CONTEXT('','3D')
);
#540=(
LENGTH_UNIT()
NAMED_UNIT(*)
SI_UNIT(.MILLI.,.METRE.)
);
#541=(
LENGTH_UNIT()
NAMED_UNIT(*)
SI_UNIT($,.METRE.)
);
#542=(
NAMED_UNIT(*)
PLANE_ANGLE_UNIT()
SI_UNIT($,.RADIAN.)
);
#543=(
NAMED_UNIT(*)
SI_UNIT($,.STERADIAN.)
SOLID_ANGLE_UNIT()
);
#544=SHAPE_DEFINITION_REPRESENTATION(#545,#546);
#545=PRODUCT_DEFINITION_SHAPE('',$,#548);
#546=SHAPE_REPRESENTATION('',(#308),#538);
#547=PRODUCT_DEFINITION_CONTEXT('part definition',#552,'design');
#548=PRODUCT_DEFINITION('2026-05-21-18-23-51-835',
'RC_Car_Wheel_Rim_V3 v1',#549,#547);
#549=PRODUCT_DEFINITION_FORMATION('',$,#554);
#550=PRODUCT_RELATED_PRODUCT_CATEGORY('RC_Car_Wheel_Rim_V3 v1',
'RC_Car_Wheel_Rim_V3 v1',(#554));
#551=APPLICATION_PROTOCOL_DEFINITION('international standard',
'automotive_design',2009,#552);
#552=APPLICATION_CONTEXT(
'Core Data for Automotive Mechanical Design Process');
#553=PRODUCT_CONTEXT('part definition',#552,'mechanical');
#554=PRODUCT('2026-05-21-18-23-51-835','RC_Car_Wheel_Rim_V3 v1',$,(#553));
#555=PRESENTATION_STYLE_ASSIGNMENT((#556));
#556=SURFACE_STYLE_USAGE(.BOTH.,#557);
#557=SURFACE_SIDE_STYLE('',(#558));
#558=SURFACE_STYLE_FILL_AREA(#559);
#559=FILL_AREA_STYLE('Steel - Satin',(#560));
#560=FILL_AREA_STYLE_COLOUR('Steel - Satin',#561);
#561=COLOUR_RGB('Steel - Satin',0.627450980392157,0.627450980392157,0.627450980392157);
ENDSEC;
END-ISO-10303-21;
