ISO-10303-21;
HEADER;
/* Generated by software containing ST-Developer
 * from STEP Tools, Inc. (www.steptools.com) 
 */

FILE_DESCRIPTION(
/* description */ (''),
/* implementation_level */ '2;1');

FILE_NAME(
/* name */ '7589d3e9-0310-48fc-8b10-9affee369fa9.stp',
/* time_stamp */ '2026-08-18T20:54:58Z',
/* author */ (''),
/* organization */ (''),
/* preprocessor_version */ 'ST-DEVELOPER v20.1',
/* originating_system */ 'Autodesk Translation Framework v15.8.0.0',
/* authorisation */ '');

FILE_SCHEMA (('AUTOMOTIVE_DESIGN { 1 0 10303 214 3 1 1 }'));
ENDSEC;

DATA;
#10=MECHANICAL_DESIGN_GEOMETRIC_PRESENTATION_REPRESENTATION('',(#13,#14,
#15,#16,#17,#18,#19,#20,#21,#22,#23,#24),#1536);
#11=SHAPE_REPRESENTATION_RELATIONSHIP('SRR','None',#1543,#12);
#12=ADVANCED_BREP_SHAPE_REPRESENTATION('',(#25,#26,#27,#28,#29,#30,#31,
#32,#33,#34,#35,#36),#1535);
#13=STYLED_ITEM('',(#1552),#25);
#14=STYLED_ITEM('',(#1552),#26);
#15=STYLED_ITEM('',(#1552),#27);
#16=STYLED_ITEM('',(#1552),#28);
#17=STYLED_ITEM('',(#1552),#29);
#18=STYLED_ITEM('',(#1552),#30);
#19=STYLED_ITEM('',(#1552),#31);
#20=STYLED_ITEM('',(#1552),#32);
#21=STYLED_ITEM('',(#1552),#33);
#22=STYLED_ITEM('',(#1552),#34);
#23=STYLED_ITEM('',(#1552),#35);
#24=STYLED_ITEM('',(#1552),#36);
#25=MANIFOLD_SOLID_BREP('Body1',#897);
#26=MANIFOLD_SOLID_BREP('Body2',#898);
#27=MANIFOLD_SOLID_BREP('Body3',#899);
#28=MANIFOLD_SOLID_BREP('Body4',#900);
#29=MANIFOLD_SOLID_BREP('Body5',#901);
#30=MANIFOLD_SOLID_BREP('Body6',#902);
#31=MANIFOLD_SOLID_BREP('Body7',#903);
#32=MANIFOLD_SOLID_BREP('Body8',#904);
#33=MANIFOLD_SOLID_BREP('Body9',#905);
#34=MANIFOLD_SOLID_BREP('Body10',#906);
#35=MANIFOLD_SOLID_BREP('Body11',#907);
#36=MANIFOLD_SOLID_BREP('Body12',#908);
#37=FACE_BOUND('',#168,.T.);
#38=FACE_BOUND('',#169,.T.);
#39=FACE_BOUND('',#171,.T.);
#40=FACE_BOUND('',#172,.T.);
#41=FACE_BOUND('',#180,.T.);
#42=FACE_BOUND('',#181,.T.);
#43=FACE_BOUND('',#183,.T.);
#44=FACE_BOUND('',#184,.T.);
#45=FACE_BOUND('',#192,.T.);
#46=FACE_BOUND('',#193,.T.);
#47=FACE_BOUND('',#195,.T.);
#48=FACE_BOUND('',#196,.T.);
#49=FACE_BOUND('',#204,.T.);
#50=FACE_BOUND('',#205,.T.);
#51=FACE_BOUND('',#207,.T.);
#52=FACE_BOUND('',#208,.T.);
#53=FACE_BOUND('',#224,.T.);
#54=FACE_BOUND('',#226,.T.);
#55=FACE_BOUND('',#230,.T.);
#56=FACE_BOUND('',#232,.T.);
#57=FACE_BOUND('',#236,.T.);
#58=FACE_BOUND('',#238,.T.);
#59=FACE_BOUND('',#242,.T.);
#60=FACE_BOUND('',#244,.T.);
#61=PLANE('',#928);
#62=PLANE('',#929);
#63=PLANE('',#930);
#64=PLANE('',#931);
#65=PLANE('',#932);
#66=PLANE('',#933);
#67=PLANE('',#940);
#68=PLANE('',#941);
#69=PLANE('',#942);
#70=PLANE('',#943);
#71=PLANE('',#944);
#72=PLANE('',#945);
#73=PLANE('',#952);
#74=PLANE('',#953);
#75=PLANE('',#954);
#76=PLANE('',#955);
#77=PLANE('',#956);
#78=PLANE('',#957);
#79=PLANE('',#964);
#80=PLANE('',#965);
#81=PLANE('',#966);
#82=PLANE('',#967);
#83=PLANE('',#968);
#84=PLANE('',#969);
#85=PLANE('',#973);
#86=PLANE('',#974);
#87=PLANE('',#978);
#88=PLANE('',#979);
#89=PLANE('',#983);
#90=PLANE('',#984);
#91=PLANE('',#988);
#92=PLANE('',#989);
#93=PLANE('',#996);
#94=PLANE('',#997);
#95=PLANE('',#1004);
#96=PLANE('',#1005);
#97=PLANE('',#1012);
#98=PLANE('',#1013);
#99=PLANE('',#1020);
#100=PLANE('',#1021);
#101=FACE_OUTER_BOUND('',#161,.T.);
#102=FACE_OUTER_BOUND('',#162,.T.);
#103=FACE_OUTER_BOUND('',#163,.T.);
#104=FACE_OUTER_BOUND('',#164,.T.);
#105=FACE_OUTER_BOUND('',#165,.T.);
#106=FACE_OUTER_BOUND('',#166,.T.);
#107=FACE_OUTER_BOUND('',#167,.T.);
#108=FACE_OUTER_BOUND('',#170,.T.);
#109=FACE_OUTER_BOUND('',#173,.T.);
#110=FACE_OUTER_BOUND('',#174,.T.);
#111=FACE_OUTER_BOUND('',#175,.T.);
#112=FACE_OUTER_BOUND('',#176,.T.);
#113=FACE_OUTER_BOUND('',#177,.T.);
#114=FACE_OUTER_BOUND('',#178,.T.);
#115=FACE_OUTER_BOUND('',#179,.T.);
#116=FACE_OUTER_BOUND('',#182,.T.);
#117=FACE_OUTER_BOUND('',#185,.T.);
#118=FACE_OUTER_BOUND('',#186,.T.);
#119=FACE_OUTER_BOUND('',#187,.T.);
#120=FACE_OUTER_BOUND('',#188,.T.);
#121=FACE_OUTER_BOUND('',#189,.T.);
#122=FACE_OUTER_BOUND('',#190,.T.);
#123=FACE_OUTER_BOUND('',#191,.T.);
#124=FACE_OUTER_BOUND('',#194,.T.);
#125=FACE_OUTER_BOUND('',#197,.T.);
#126=FACE_OUTER_BOUND('',#198,.T.);
#127=FACE_OUTER_BOUND('',#199,.T.);
#128=FACE_OUTER_BOUND('',#200,.T.);
#129=FACE_OUTER_BOUND('',#201,.T.);
#130=FACE_OUTER_BOUND('',#202,.T.);
#131=FACE_OUTER_BOUND('',#203,.T.);
#132=FACE_OUTER_BOUND('',#206,.T.);
#133=FACE_OUTER_BOUND('',#209,.T.);
#134=FACE_OUTER_BOUND('',#210,.T.);
#135=FACE_OUTER_BOUND('',#211,.T.);
#136=FACE_OUTER_BOUND('',#212,.T.);
#137=FACE_OUTER_BOUND('',#213,.T.);
#138=FACE_OUTER_BOUND('',#214,.T.);
#139=FACE_OUTER_BOUND('',#215,.T.);
#140=FACE_OUTER_BOUND('',#216,.T.);
#141=FACE_OUTER_BOUND('',#217,.T.);
#142=FACE_OUTER_BOUND('',#218,.T.);
#143=FACE_OUTER_BOUND('',#219,.T.);
#144=FACE_OUTER_BOUND('',#220,.T.);
#145=FACE_OUTER_BOUND('',#221,.T.);
#146=FACE_OUTER_BOUND('',#222,.T.);
#147=FACE_OUTER_BOUND('',#223,.T.);
#148=FACE_OUTER_BOUND('',#225,.T.);
#149=FACE_OUTER_BOUND('',#227,.T.);
#150=FACE_OUTER_BOUND('',#228,.T.);
#151=FACE_OUTER_BOUND('',#229,.T.);
#152=FACE_OUTER_BOUND('',#231,.T.);
#153=FACE_OUTER_BOUND('',#233,.T.);
#154=FACE_OUTER_BOUND('',#234,.T.);
#155=FACE_OUTER_BOUND('',#235,.T.);
#156=FACE_OUTER_BOUND('',#237,.T.);
#157=FACE_OUTER_BOUND('',#239,.T.);
#158=FACE_OUTER_BOUND('',#240,.T.);
#159=FACE_OUTER_BOUND('',#241,.T.);
#160=FACE_OUTER_BOUND('',#243,.T.);
#161=EDGE_LOOP('',(#601,#602,#603,#604));
#162=EDGE_LOOP('',(#605,#606,#607,#608));
#163=EDGE_LOOP('',(#609,#610,#611,#612));
#164=EDGE_LOOP('',(#613,#614,#615,#616));
#165=EDGE_LOOP('',(#617,#618,#619,#620));
#166=EDGE_LOOP('',(#621,#622,#623,#624));
#167=EDGE_LOOP('',(#625,#626,#627,#628));
#168=EDGE_LOOP('',(#629));
#169=EDGE_LOOP('',(#630));
#170=EDGE_LOOP('',(#631,#632,#633,#634));
#171=EDGE_LOOP('',(#635));
#172=EDGE_LOOP('',(#636));
#173=EDGE_LOOP('',(#637,#638,#639,#640));
#174=EDGE_LOOP('',(#641,#642,#643,#644));
#175=EDGE_LOOP('',(#645,#646,#647,#648));
#176=EDGE_LOOP('',(#649,#650,#651,#652));
#177=EDGE_LOOP('',(#653,#654,#655,#656));
#178=EDGE_LOOP('',(#657,#658,#659,#660));
#179=EDGE_LOOP('',(#661,#662,#663,#664));
#180=EDGE_LOOP('',(#665));
#181=EDGE_LOOP('',(#666));
#182=EDGE_LOOP('',(#667,#668,#669,#670));
#183=EDGE_LOOP('',(#671));
#184=EDGE_LOOP('',(#672));
#185=EDGE_LOOP('',(#673,#674,#675,#676));
#186=EDGE_LOOP('',(#677,#678,#679,#680));
#187=EDGE_LOOP('',(#681,#682,#683,#684));
#188=EDGE_LOOP('',(#685,#686,#687,#688));
#189=EDGE_LOOP('',(#689,#690,#691,#692));
#190=EDGE_LOOP('',(#693,#694,#695,#696));
#191=EDGE_LOOP('',(#697,#698,#699,#700));
#192=EDGE_LOOP('',(#701));
#193=EDGE_LOOP('',(#702));
#194=EDGE_LOOP('',(#703,#704,#705,#706));
#195=EDGE_LOOP('',(#707));
#196=EDGE_LOOP('',(#708));
#197=EDGE_LOOP('',(#709,#710,#711,#712));
#198=EDGE_LOOP('',(#713,#714,#715,#716));
#199=EDGE_LOOP('',(#717,#718,#719,#720));
#200=EDGE_LOOP('',(#721,#722,#723,#724));
#201=EDGE_LOOP('',(#725,#726,#727,#728));
#202=EDGE_LOOP('',(#729,#730,#731,#732));
#203=EDGE_LOOP('',(#733,#734,#735,#736));
#204=EDGE_LOOP('',(#737));
#205=EDGE_LOOP('',(#738));
#206=EDGE_LOOP('',(#739,#740,#741,#742));
#207=EDGE_LOOP('',(#743));
#208=EDGE_LOOP('',(#744));
#209=EDGE_LOOP('',(#745,#746,#747,#748));
#210=EDGE_LOOP('',(#749));
#211=EDGE_LOOP('',(#750));
#212=EDGE_LOOP('',(#751,#752,#753,#754));
#213=EDGE_LOOP('',(#755));
#214=EDGE_LOOP('',(#756));
#215=EDGE_LOOP('',(#757,#758,#759,#760));
#216=EDGE_LOOP('',(#761));
#217=EDGE_LOOP('',(#762));
#218=EDGE_LOOP('',(#763,#764,#765,#766));
#219=EDGE_LOOP('',(#767));
#220=EDGE_LOOP('',(#768));
#221=EDGE_LOOP('',(#769,#770,#771,#772));
#222=EDGE_LOOP('',(#773,#774,#775,#776));
#223=EDGE_LOOP('',(#777));
#224=EDGE_LOOP('',(#778));
#225=EDGE_LOOP('',(#779));
#226=EDGE_LOOP('',(#780));
#227=EDGE_LOOP('',(#781,#782,#783,#784));
#228=EDGE_LOOP('',(#785,#786,#787,#788));
#229=EDGE_LOOP('',(#789));
#230=EDGE_LOOP('',(#790));
#231=EDGE_LOOP('',(#791));
#232=EDGE_LOOP('',(#792));
#233=EDGE_LOOP('',(#793,#794,#795,#796));
#234=EDGE_LOOP('',(#797,#798,#799,#800));
#235=EDGE_LOOP('',(#801));
#236=EDGE_LOOP('',(#802));
#237=EDGE_LOOP('',(#803));
#238=EDGE_LOOP('',(#804));
#239=EDGE_LOOP('',(#805,#806,#807,#808));
#240=EDGE_LOOP('',(#809,#810,#811,#812));
#241=EDGE_LOOP('',(#813));
#242=EDGE_LOOP('',(#814));
#243=EDGE_LOOP('',(#815));
#244=EDGE_LOOP('',(#816));
#245=LINE('',#1297,#313);
#246=LINE('',#1303,#314);
#247=LINE('',#1308,#315);
#248=LINE('',#1310,#316);
#249=LINE('',#1312,#317);
#250=LINE('',#1313,#318);
#251=LINE('',#1316,#319);
#252=LINE('',#1318,#320);
#253=LINE('',#1319,#321);
#254=LINE('',#1322,#322);
#255=LINE('',#1324,#323);
#256=LINE('',#1325,#324);
#257=LINE('',#1327,#325);
#258=LINE('',#1328,#326);
#259=LINE('',#1335,#327);
#260=LINE('',#1341,#328);
#261=LINE('',#1346,#329);
#262=LINE('',#1348,#330);
#263=LINE('',#1350,#331);
#264=LINE('',#1351,#332);
#265=LINE('',#1354,#333);
#266=LINE('',#1356,#334);
#267=LINE('',#1357,#335);
#268=LINE('',#1360,#336);
#269=LINE('',#1362,#337);
#270=LINE('',#1363,#338);
#271=LINE('',#1365,#339);
#272=LINE('',#1366,#340);
#273=LINE('',#1373,#341);
#274=LINE('',#1379,#342);
#275=LINE('',#1384,#343);
#276=LINE('',#1386,#344);
#277=LINE('',#1388,#345);
#278=LINE('',#1389,#346);
#279=LINE('',#1392,#347);
#280=LINE('',#1394,#348);
#281=LINE('',#1395,#349);
#282=LINE('',#1398,#350);
#283=LINE('',#1400,#351);
#284=LINE('',#1401,#352);
#285=LINE('',#1403,#353);
#286=LINE('',#1404,#354);
#287=LINE('',#1411,#355);
#288=LINE('',#1417,#356);
#289=LINE('',#1422,#357);
#290=LINE('',#1424,#358);
#291=LINE('',#1426,#359);
#292=LINE('',#1427,#360);
#293=LINE('',#1430,#361);
#294=LINE('',#1432,#362);
#295=LINE('',#1433,#363);
#296=LINE('',#1436,#364);
#297=LINE('',#1438,#365);
#298=LINE('',#1439,#366);
#299=LINE('',#1441,#367);
#300=LINE('',#1442,#368);
#301=LINE('',#1449,#369);
#302=LINE('',#1457,#370);
#303=LINE('',#1465,#371);
#304=LINE('',#1473,#372);
#305=LINE('',#1481,#373);
#306=LINE('',#1487,#374);
#307=LINE('',#1495,#375);
#308=LINE('',#1501,#376);
#309=LINE('',#1509,#377);
#310=LINE('',#1515,#378);
#311=LINE('',#1523,#379);
#312=LINE('',#1529,#380);
#313=VECTOR('',#1028,1.8);
#314=VECTOR('',#1035,2.8);
#315=VECTOR('',#1040,10.);
#316=VECTOR('',#1041,10.);
#317=VECTOR('',#1042,10.);
#318=VECTOR('',#1043,10.);
#319=VECTOR('',#1046,10.);
#320=VECTOR('',#1047,10.);
#321=VECTOR('',#1048,10.);
#322=VECTOR('',#1051,10.);
#323=VECTOR('',#1052,10.);
#324=VECTOR('',#1053,10.);
#325=VECTOR('',#1056,10.);
#326=VECTOR('',#1057,10.);
#327=VECTOR('',#1066,2.8);
#328=VECTOR('',#1073,2.8);
#329=VECTOR('',#1078,10.);
#330=VECTOR('',#1079,10.);
#331=VECTOR('',#1080,10.);
#332=VECTOR('',#1081,10.);
#333=VECTOR('',#1084,10.);
#334=VECTOR('',#1085,10.);
#335=VECTOR('',#1086,10.);
#336=VECTOR('',#1089,10.);
#337=VECTOR('',#1090,10.);
#338=VECTOR('',#1091,10.);
#339=VECTOR('',#1094,10.);
#340=VECTOR('',#1095,10.);
#341=VECTOR('',#1104,1.8);
#342=VECTOR('',#1111,2.8);
#343=VECTOR('',#1116,10.);
#344=VECTOR('',#1117,10.);
#345=VECTOR('',#1118,10.);
#346=VECTOR('',#1119,10.);
#347=VECTOR('',#1122,10.);
#348=VECTOR('',#1123,10.);
#349=VECTOR('',#1124,10.);
#350=VECTOR('',#1127,10.);
#351=VECTOR('',#1128,10.);
#352=VECTOR('',#1129,10.);
#353=VECTOR('',#1132,10.);
#354=VECTOR('',#1133,10.);
#355=VECTOR('',#1142,1.8);
#356=VECTOR('',#1149,1.8);
#357=VECTOR('',#1154,10.);
#358=VECTOR('',#1155,10.);
#359=VECTOR('',#1156,10.);
#360=VECTOR('',#1157,10.);
#361=VECTOR('',#1160,10.);
#362=VECTOR('',#1161,10.);
#363=VECTOR('',#1162,10.);
#364=VECTOR('',#1165,10.);
#365=VECTOR('',#1166,10.);
#366=VECTOR('',#1167,10.);
#367=VECTOR('',#1170,10.);
#368=VECTOR('',#1171,10.);
#369=VECTOR('',#1180,1.5);
#370=VECTOR('',#1191,2.5);
#371=VECTOR('',#1202,2.5);
#372=VECTOR('',#1213,1.5);
#373=VECTOR('',#1224,1.75);
#374=VECTOR('',#1231,3.);
#375=VECTOR('',#1242,2.75);
#376=VECTOR('',#1249,4.);
#377=VECTOR('',#1260,2.75);
#378=VECTOR('',#1267,4.);
#379=VECTOR('',#1278,1.75);
#380=VECTOR('',#1285,3.);
#381=CIRCLE('',#923,1.8);
#382=CIRCLE('',#924,1.8);
#383=CIRCLE('',#926,2.8);
#384=CIRCLE('',#927,2.8);
#385=CIRCLE('',#935,2.8);
#386=CIRCLE('',#936,2.8);
#387=CIRCLE('',#938,2.8);
#388=CIRCLE('',#939,2.8);
#389=CIRCLE('',#947,1.8);
#390=CIRCLE('',#948,1.8);
#391=CIRCLE('',#950,2.8);
#392=CIRCLE('',#951,2.8);
#393=CIRCLE('',#959,1.8);
#394=CIRCLE('',#960,1.8);
#395=CIRCLE('',#962,1.8);
#396=CIRCLE('',#963,1.8);
#397=CIRCLE('',#971,1.5);
#398=CIRCLE('',#972,1.5);
#399=CIRCLE('',#976,2.5);
#400=CIRCLE('',#977,2.5);
#401=CIRCLE('',#981,2.5);
#402=CIRCLE('',#982,2.5);
#403=CIRCLE('',#986,1.5);
#404=CIRCLE('',#987,1.5);
#405=CIRCLE('',#991,1.75);
#406=CIRCLE('',#992,1.75);
#407=CIRCLE('',#994,3.);
#408=CIRCLE('',#995,3.);
#409=CIRCLE('',#999,2.75);
#410=CIRCLE('',#1000,2.75);
#411=CIRCLE('',#1002,4.);
#412=CIRCLE('',#1003,4.);
#413=CIRCLE('',#1007,2.75);
#414=CIRCLE('',#1008,2.75);
#415=CIRCLE('',#1010,4.);
#416=CIRCLE('',#1011,4.);
#417=CIRCLE('',#1015,1.75);
#418=CIRCLE('',#1016,1.75);
#419=CIRCLE('',#1018,3.);
#420=CIRCLE('',#1019,3.);
#421=VERTEX_POINT('',#1294);
#422=VERTEX_POINT('',#1296);
#423=VERTEX_POINT('',#1300);
#424=VERTEX_POINT('',#1302);
#425=VERTEX_POINT('',#1306);
#426=VERTEX_POINT('',#1307);
#427=VERTEX_POINT('',#1309);
#428=VERTEX_POINT('',#1311);
#429=VERTEX_POINT('',#1315);
#430=VERTEX_POINT('',#1317);
#431=VERTEX_POINT('',#1321);
#432=VERTEX_POINT('',#1323);
#433=VERTEX_POINT('',#1332);
#434=VERTEX_POINT('',#1334);
#435=VERTEX_POINT('',#1338);
#436=VERTEX_POINT('',#1340);
#437=VERTEX_POINT('',#1344);
#438=VERTEX_POINT('',#1345);
#439=VERTEX_POINT('',#1347);
#440=VERTEX_POINT('',#1349);
#441=VERTEX_POINT('',#1353);
#442=VERTEX_POINT('',#1355);
#443=VERTEX_POINT('',#1359);
#444=VERTEX_POINT('',#1361);
#445=VERTEX_POINT('',#1370);
#446=VERTEX_POINT('',#1372);
#447=VERTEX_POINT('',#1376);
#448=VERTEX_POINT('',#1378);
#449=VERTEX_POINT('',#1382);
#450=VERTEX_POINT('',#1383);
#451=VERTEX_POINT('',#1385);
#452=VERTEX_POINT('',#1387);
#453=VERTEX_POINT('',#1391);
#454=VERTEX_POINT('',#1393);
#455=VERTEX_POINT('',#1397);
#456=VERTEX_POINT('',#1399);
#457=VERTEX_POINT('',#1408);
#458=VERTEX_POINT('',#1410);
#459=VERTEX_POINT('',#1414);
#460=VERTEX_POINT('',#1416);
#461=VERTEX_POINT('',#1420);
#462=VERTEX_POINT('',#1421);
#463=VERTEX_POINT('',#1423);
#464=VERTEX_POINT('',#1425);
#465=VERTEX_POINT('',#1429);
#466=VERTEX_POINT('',#1431);
#467=VERTEX_POINT('',#1435);
#468=VERTEX_POINT('',#1437);
#469=VERTEX_POINT('',#1446);
#470=VERTEX_POINT('',#1448);
#471=VERTEX_POINT('',#1454);
#472=VERTEX_POINT('',#1456);
#473=VERTEX_POINT('',#1462);
#474=VERTEX_POINT('',#1464);
#475=VERTEX_POINT('',#1470);
#476=VERTEX_POINT('',#1472);
#477=VERTEX_POINT('',#1478);
#478=VERTEX_POINT('',#1480);
#479=VERTEX_POINT('',#1484);
#480=VERTEX_POINT('',#1486);
#481=VERTEX_POINT('',#1492);
#482=VERTEX_POINT('',#1494);
#483=VERTEX_POINT('',#1498);
#484=VERTEX_POINT('',#1500);
#485=VERTEX_POINT('',#1506);
#486=VERTEX_POINT('',#1508);
#487=VERTEX_POINT('',#1512);
#488=VERTEX_POINT('',#1514);
#489=VERTEX_POINT('',#1520);
#490=VERTEX_POINT('',#1522);
#491=VERTEX_POINT('',#1526);
#492=VERTEX_POINT('',#1528);
#493=EDGE_CURVE('',#421,#421,#381,.T.);
#494=EDGE_CURVE('',#421,#422,#245,.T.);
#495=EDGE_CURVE('',#422,#422,#382,.T.);
#496=EDGE_CURVE('',#423,#423,#383,.T.);
#497=EDGE_CURVE('',#423,#424,#246,.T.);
#498=EDGE_CURVE('',#424,#424,#384,.T.);
#499=EDGE_CURVE('',#425,#426,#247,.T.);
#500=EDGE_CURVE('',#426,#427,#248,.T.);
#501=EDGE_CURVE('',#428,#427,#249,.T.);
#502=EDGE_CURVE('',#425,#428,#250,.T.);
#503=EDGE_CURVE('',#429,#425,#251,.T.);
#504=EDGE_CURVE('',#430,#428,#252,.T.);
#505=EDGE_CURVE('',#429,#430,#253,.T.);
#506=EDGE_CURVE('',#431,#429,#254,.T.);
#507=EDGE_CURVE('',#432,#430,#255,.T.);
#508=EDGE_CURVE('',#431,#432,#256,.T.);
#509=EDGE_CURVE('',#426,#431,#257,.T.);
#510=EDGE_CURVE('',#427,#432,#258,.T.);
#511=EDGE_CURVE('',#433,#433,#385,.T.);
#512=EDGE_CURVE('',#433,#434,#259,.T.);
#513=EDGE_CURVE('',#434,#434,#386,.T.);
#514=EDGE_CURVE('',#435,#435,#387,.T.);
#515=EDGE_CURVE('',#435,#436,#260,.T.);
#516=EDGE_CURVE('',#436,#436,#388,.T.);
#517=EDGE_CURVE('',#437,#438,#261,.T.);
#518=EDGE_CURVE('',#438,#439,#262,.T.);
#519=EDGE_CURVE('',#440,#439,#263,.T.);
#520=EDGE_CURVE('',#437,#440,#264,.T.);
#521=EDGE_CURVE('',#441,#437,#265,.T.);
#522=EDGE_CURVE('',#442,#440,#266,.T.);
#523=EDGE_CURVE('',#441,#442,#267,.T.);
#524=EDGE_CURVE('',#443,#441,#268,.T.);
#525=EDGE_CURVE('',#444,#442,#269,.T.);
#526=EDGE_CURVE('',#443,#444,#270,.T.);
#527=EDGE_CURVE('',#438,#443,#271,.T.);
#528=EDGE_CURVE('',#439,#444,#272,.T.);
#529=EDGE_CURVE('',#445,#445,#389,.T.);
#530=EDGE_CURVE('',#445,#446,#273,.T.);
#531=EDGE_CURVE('',#446,#446,#390,.T.);
#532=EDGE_CURVE('',#447,#447,#391,.T.);
#533=EDGE_CURVE('',#447,#448,#274,.T.);
#534=EDGE_CURVE('',#448,#448,#392,.T.);
#535=EDGE_CURVE('',#449,#450,#275,.T.);
#536=EDGE_CURVE('',#449,#451,#276,.T.);
#537=EDGE_CURVE('',#452,#451,#277,.T.);
#538=EDGE_CURVE('',#450,#452,#278,.T.);
#539=EDGE_CURVE('',#450,#453,#279,.T.);
#540=EDGE_CURVE('',#454,#452,#280,.T.);
#541=EDGE_CURVE('',#453,#454,#281,.T.);
#542=EDGE_CURVE('',#453,#455,#282,.T.);
#543=EDGE_CURVE('',#456,#454,#283,.T.);
#544=EDGE_CURVE('',#455,#456,#284,.T.);
#545=EDGE_CURVE('',#455,#449,#285,.T.);
#546=EDGE_CURVE('',#451,#456,#286,.T.);
#547=EDGE_CURVE('',#457,#457,#393,.T.);
#548=EDGE_CURVE('',#457,#458,#287,.T.);
#549=EDGE_CURVE('',#458,#458,#394,.T.);
#550=EDGE_CURVE('',#459,#459,#395,.T.);
#551=EDGE_CURVE('',#459,#460,#288,.T.);
#552=EDGE_CURVE('',#460,#460,#396,.T.);
#553=EDGE_CURVE('',#461,#462,#289,.T.);
#554=EDGE_CURVE('',#461,#463,#290,.T.);
#555=EDGE_CURVE('',#464,#463,#291,.T.);
#556=EDGE_CURVE('',#462,#464,#292,.T.);
#557=EDGE_CURVE('',#462,#465,#293,.T.);
#558=EDGE_CURVE('',#466,#464,#294,.T.);
#559=EDGE_CURVE('',#465,#466,#295,.T.);
#560=EDGE_CURVE('',#465,#467,#296,.T.);
#561=EDGE_CURVE('',#468,#466,#297,.T.);
#562=EDGE_CURVE('',#467,#468,#298,.T.);
#563=EDGE_CURVE('',#467,#461,#299,.T.);
#564=EDGE_CURVE('',#463,#468,#300,.T.);
#565=EDGE_CURVE('',#469,#469,#397,.T.);
#566=EDGE_CURVE('',#469,#470,#301,.T.);
#567=EDGE_CURVE('',#470,#470,#398,.T.);
#568=EDGE_CURVE('',#471,#471,#399,.T.);
#569=EDGE_CURVE('',#471,#472,#302,.T.);
#570=EDGE_CURVE('',#472,#472,#400,.T.);
#571=EDGE_CURVE('',#473,#473,#401,.T.);
#572=EDGE_CURVE('',#473,#474,#303,.T.);
#573=EDGE_CURVE('',#474,#474,#402,.T.);
#574=EDGE_CURVE('',#475,#475,#403,.T.);
#575=EDGE_CURVE('',#475,#476,#304,.T.);
#576=EDGE_CURVE('',#476,#476,#404,.T.);
#577=EDGE_CURVE('',#477,#477,#405,.T.);
#578=EDGE_CURVE('',#477,#478,#305,.T.);
#579=EDGE_CURVE('',#478,#478,#406,.T.);
#580=EDGE_CURVE('',#479,#479,#407,.T.);
#581=EDGE_CURVE('',#479,#480,#306,.T.);
#582=EDGE_CURVE('',#480,#480,#408,.T.);
#583=EDGE_CURVE('',#481,#481,#409,.T.);
#584=EDGE_CURVE('',#481,#482,#307,.T.);
#585=EDGE_CURVE('',#482,#482,#410,.T.);
#586=EDGE_CURVE('',#483,#483,#411,.T.);
#587=EDGE_CURVE('',#483,#484,#308,.T.);
#588=EDGE_CURVE('',#484,#484,#412,.T.);
#589=EDGE_CURVE('',#485,#485,#413,.T.);
#590=EDGE_CURVE('',#485,#486,#309,.T.);
#591=EDGE_CURVE('',#486,#486,#414,.T.);
#592=EDGE_CURVE('',#487,#487,#415,.T.);
#593=EDGE_CURVE('',#487,#488,#310,.T.);
#594=EDGE_CURVE('',#488,#488,#416,.T.);
#595=EDGE_CURVE('',#489,#489,#417,.T.);
#596=EDGE_CURVE('',#489,#490,#311,.T.);
#597=EDGE_CURVE('',#490,#490,#418,.T.);
#598=EDGE_CURVE('',#491,#491,#419,.T.);
#599=EDGE_CURVE('',#491,#492,#312,.T.);
#600=EDGE_CURVE('',#492,#492,#420,.T.);
#601=ORIENTED_EDGE('',*,*,#493,.F.);
#602=ORIENTED_EDGE('',*,*,#494,.T.);
#603=ORIENTED_EDGE('',*,*,#495,.T.);
#604=ORIENTED_EDGE('',*,*,#494,.F.);
#605=ORIENTED_EDGE('',*,*,#496,.F.);
#606=ORIENTED_EDGE('',*,*,#497,.T.);
#607=ORIENTED_EDGE('',*,*,#498,.T.);
#608=ORIENTED_EDGE('',*,*,#497,.F.);
#609=ORIENTED_EDGE('',*,*,#499,.T.);
#610=ORIENTED_EDGE('',*,*,#500,.T.);
#611=ORIENTED_EDGE('',*,*,#501,.F.);
#612=ORIENTED_EDGE('',*,*,#502,.F.);
#613=ORIENTED_EDGE('',*,*,#503,.T.);
#614=ORIENTED_EDGE('',*,*,#502,.T.);
#615=ORIENTED_EDGE('',*,*,#504,.F.);
#616=ORIENTED_EDGE('',*,*,#505,.F.);
#617=ORIENTED_EDGE('',*,*,#506,.T.);
#618=ORIENTED_EDGE('',*,*,#505,.T.);
#619=ORIENTED_EDGE('',*,*,#507,.F.);
#620=ORIENTED_EDGE('',*,*,#508,.F.);
#621=ORIENTED_EDGE('',*,*,#509,.T.);
#622=ORIENTED_EDGE('',*,*,#508,.T.);
#623=ORIENTED_EDGE('',*,*,#510,.F.);
#624=ORIENTED_EDGE('',*,*,#500,.F.);
#625=ORIENTED_EDGE('',*,*,#510,.T.);
#626=ORIENTED_EDGE('',*,*,#507,.T.);
#627=ORIENTED_EDGE('',*,*,#504,.T.);
#628=ORIENTED_EDGE('',*,*,#501,.T.);
#629=ORIENTED_EDGE('',*,*,#496,.T.);
#630=ORIENTED_EDGE('',*,*,#493,.T.);
#631=ORIENTED_EDGE('',*,*,#509,.F.);
#632=ORIENTED_EDGE('',*,*,#499,.F.);
#633=ORIENTED_EDGE('',*,*,#503,.F.);
#634=ORIENTED_EDGE('',*,*,#506,.F.);
#635=ORIENTED_EDGE('',*,*,#498,.F.);
#636=ORIENTED_EDGE('',*,*,#495,.F.);
#637=ORIENTED_EDGE('',*,*,#511,.F.);
#638=ORIENTED_EDGE('',*,*,#512,.T.);
#639=ORIENTED_EDGE('',*,*,#513,.T.);
#640=ORIENTED_EDGE('',*,*,#512,.F.);
#641=ORIENTED_EDGE('',*,*,#514,.F.);
#642=ORIENTED_EDGE('',*,*,#515,.T.);
#643=ORIENTED_EDGE('',*,*,#516,.T.);
#644=ORIENTED_EDGE('',*,*,#515,.F.);
#645=ORIENTED_EDGE('',*,*,#517,.T.);
#646=ORIENTED_EDGE('',*,*,#518,.T.);
#647=ORIENTED_EDGE('',*,*,#519,.F.);
#648=ORIENTED_EDGE('',*,*,#520,.F.);
#649=ORIENTED_EDGE('',*,*,#521,.T.);
#650=ORIENTED_EDGE('',*,*,#520,.T.);
#651=ORIENTED_EDGE('',*,*,#522,.F.);
#652=ORIENTED_EDGE('',*,*,#523,.F.);
#653=ORIENTED_EDGE('',*,*,#524,.T.);
#654=ORIENTED_EDGE('',*,*,#523,.T.);
#655=ORIENTED_EDGE('',*,*,#525,.F.);
#656=ORIENTED_EDGE('',*,*,#526,.F.);
#657=ORIENTED_EDGE('',*,*,#527,.T.);
#658=ORIENTED_EDGE('',*,*,#526,.T.);
#659=ORIENTED_EDGE('',*,*,#528,.F.);
#660=ORIENTED_EDGE('',*,*,#518,.F.);
#661=ORIENTED_EDGE('',*,*,#528,.T.);
#662=ORIENTED_EDGE('',*,*,#525,.T.);
#663=ORIENTED_EDGE('',*,*,#522,.T.);
#664=ORIENTED_EDGE('',*,*,#519,.T.);
#665=ORIENTED_EDGE('',*,*,#514,.T.);
#666=ORIENTED_EDGE('',*,*,#511,.T.);
#667=ORIENTED_EDGE('',*,*,#527,.F.);
#668=ORIENTED_EDGE('',*,*,#517,.F.);
#669=ORIENTED_EDGE('',*,*,#521,.F.);
#670=ORIENTED_EDGE('',*,*,#524,.F.);
#671=ORIENTED_EDGE('',*,*,#516,.F.);
#672=ORIENTED_EDGE('',*,*,#513,.F.);
#673=ORIENTED_EDGE('',*,*,#529,.F.);
#674=ORIENTED_EDGE('',*,*,#530,.T.);
#675=ORIENTED_EDGE('',*,*,#531,.T.);
#676=ORIENTED_EDGE('',*,*,#530,.F.);
#677=ORIENTED_EDGE('',*,*,#532,.F.);
#678=ORIENTED_EDGE('',*,*,#533,.T.);
#679=ORIENTED_EDGE('',*,*,#534,.T.);
#680=ORIENTED_EDGE('',*,*,#533,.F.);
#681=ORIENTED_EDGE('',*,*,#535,.F.);
#682=ORIENTED_EDGE('',*,*,#536,.T.);
#683=ORIENTED_EDGE('',*,*,#537,.F.);
#684=ORIENTED_EDGE('',*,*,#538,.F.);
#685=ORIENTED_EDGE('',*,*,#539,.F.);
#686=ORIENTED_EDGE('',*,*,#538,.T.);
#687=ORIENTED_EDGE('',*,*,#540,.F.);
#688=ORIENTED_EDGE('',*,*,#541,.F.);
#689=ORIENTED_EDGE('',*,*,#542,.F.);
#690=ORIENTED_EDGE('',*,*,#541,.T.);
#691=ORIENTED_EDGE('',*,*,#543,.F.);
#692=ORIENTED_EDGE('',*,*,#544,.F.);
#693=ORIENTED_EDGE('',*,*,#545,.F.);
#694=ORIENTED_EDGE('',*,*,#544,.T.);
#695=ORIENTED_EDGE('',*,*,#546,.F.);
#696=ORIENTED_EDGE('',*,*,#536,.F.);
#697=ORIENTED_EDGE('',*,*,#546,.T.);
#698=ORIENTED_EDGE('',*,*,#543,.T.);
#699=ORIENTED_EDGE('',*,*,#540,.T.);
#700=ORIENTED_EDGE('',*,*,#537,.T.);
#701=ORIENTED_EDGE('',*,*,#532,.T.);
#702=ORIENTED_EDGE('',*,*,#529,.T.);
#703=ORIENTED_EDGE('',*,*,#545,.T.);
#704=ORIENTED_EDGE('',*,*,#535,.T.);
#705=ORIENTED_EDGE('',*,*,#539,.T.);
#706=ORIENTED_EDGE('',*,*,#542,.T.);
#707=ORIENTED_EDGE('',*,*,#534,.F.);
#708=ORIENTED_EDGE('',*,*,#531,.F.);
#709=ORIENTED_EDGE('',*,*,#547,.F.);
#710=ORIENTED_EDGE('',*,*,#548,.T.);
#711=ORIENTED_EDGE('',*,*,#549,.T.);
#712=ORIENTED_EDGE('',*,*,#548,.F.);
#713=ORIENTED_EDGE('',*,*,#550,.F.);
#714=ORIENTED_EDGE('',*,*,#551,.T.);
#715=ORIENTED_EDGE('',*,*,#552,.T.);
#716=ORIENTED_EDGE('',*,*,#551,.F.);
#717=ORIENTED_EDGE('',*,*,#553,.F.);
#718=ORIENTED_EDGE('',*,*,#554,.T.);
#719=ORIENTED_EDGE('',*,*,#555,.F.);
#720=ORIENTED_EDGE('',*,*,#556,.F.);
#721=ORIENTED_EDGE('',*,*,#557,.F.);
#722=ORIENTED_EDGE('',*,*,#556,.T.);
#723=ORIENTED_EDGE('',*,*,#558,.F.);
#724=ORIENTED_EDGE('',*,*,#559,.F.);
#725=ORIENTED_EDGE('',*,*,#560,.F.);
#726=ORIENTED_EDGE('',*,*,#559,.T.);
#727=ORIENTED_EDGE('',*,*,#561,.F.);
#728=ORIENTED_EDGE('',*,*,#562,.F.);
#729=ORIENTED_EDGE('',*,*,#563,.F.);
#730=ORIENTED_EDGE('',*,*,#562,.T.);
#731=ORIENTED_EDGE('',*,*,#564,.F.);
#732=ORIENTED_EDGE('',*,*,#554,.F.);
#733=ORIENTED_EDGE('',*,*,#564,.T.);
#734=ORIENTED_EDGE('',*,*,#561,.T.);
#735=ORIENTED_EDGE('',*,*,#558,.T.);
#736=ORIENTED_EDGE('',*,*,#555,.T.);
#737=ORIENTED_EDGE('',*,*,#550,.T.);
#738=ORIENTED_EDGE('',*,*,#547,.T.);
#739=ORIENTED_EDGE('',*,*,#563,.T.);
#740=ORIENTED_EDGE('',*,*,#553,.T.);
#741=ORIENTED_EDGE('',*,*,#557,.T.);
#742=ORIENTED_EDGE('',*,*,#560,.T.);
#743=ORIENTED_EDGE('',*,*,#552,.F.);
#744=ORIENTED_EDGE('',*,*,#549,.F.);
#745=ORIENTED_EDGE('',*,*,#565,.F.);
#746=ORIENTED_EDGE('',*,*,#566,.T.);
#747=ORIENTED_EDGE('',*,*,#567,.T.);
#748=ORIENTED_EDGE('',*,*,#566,.F.);
#749=ORIENTED_EDGE('',*,*,#565,.T.);
#750=ORIENTED_EDGE('',*,*,#567,.F.);
#751=ORIENTED_EDGE('',*,*,#568,.F.);
#752=ORIENTED_EDGE('',*,*,#569,.T.);
#753=ORIENTED_EDGE('',*,*,#570,.T.);
#754=ORIENTED_EDGE('',*,*,#569,.F.);
#755=ORIENTED_EDGE('',*,*,#568,.T.);
#756=ORIENTED_EDGE('',*,*,#570,.F.);
#757=ORIENTED_EDGE('',*,*,#571,.F.);
#758=ORIENTED_EDGE('',*,*,#572,.T.);
#759=ORIENTED_EDGE('',*,*,#573,.T.);
#760=ORIENTED_EDGE('',*,*,#572,.F.);
#761=ORIENTED_EDGE('',*,*,#571,.T.);
#762=ORIENTED_EDGE('',*,*,#573,.F.);
#763=ORIENTED_EDGE('',*,*,#574,.F.);
#764=ORIENTED_EDGE('',*,*,#575,.T.);
#765=ORIENTED_EDGE('',*,*,#576,.T.);
#766=ORIENTED_EDGE('',*,*,#575,.F.);
#767=ORIENTED_EDGE('',*,*,#574,.T.);
#768=ORIENTED_EDGE('',*,*,#576,.F.);
#769=ORIENTED_EDGE('',*,*,#577,.F.);
#770=ORIENTED_EDGE('',*,*,#578,.T.);
#771=ORIENTED_EDGE('',*,*,#579,.T.);
#772=ORIENTED_EDGE('',*,*,#578,.F.);
#773=ORIENTED_EDGE('',*,*,#580,.F.);
#774=ORIENTED_EDGE('',*,*,#581,.T.);
#775=ORIENTED_EDGE('',*,*,#582,.T.);
#776=ORIENTED_EDGE('',*,*,#581,.F.);
#777=ORIENTED_EDGE('',*,*,#580,.T.);
#778=ORIENTED_EDGE('',*,*,#577,.T.);
#779=ORIENTED_EDGE('',*,*,#582,.F.);
#780=ORIENTED_EDGE('',*,*,#579,.F.);
#781=ORIENTED_EDGE('',*,*,#583,.F.);
#782=ORIENTED_EDGE('',*,*,#584,.T.);
#783=ORIENTED_EDGE('',*,*,#585,.T.);
#784=ORIENTED_EDGE('',*,*,#584,.F.);
#785=ORIENTED_EDGE('',*,*,#586,.F.);
#786=ORIENTED_EDGE('',*,*,#587,.T.);
#787=ORIENTED_EDGE('',*,*,#588,.T.);
#788=ORIENTED_EDGE('',*,*,#587,.F.);
#789=ORIENTED_EDGE('',*,*,#586,.T.);
#790=ORIENTED_EDGE('',*,*,#583,.T.);
#791=ORIENTED_EDGE('',*,*,#588,.F.);
#792=ORIENTED_EDGE('',*,*,#585,.F.);
#793=ORIENTED_EDGE('',*,*,#589,.F.);
#794=ORIENTED_EDGE('',*,*,#590,.T.);
#795=ORIENTED_EDGE('',*,*,#591,.T.);
#796=ORIENTED_EDGE('',*,*,#590,.F.);
#797=ORIENTED_EDGE('',*,*,#592,.F.);
#798=ORIENTED_EDGE('',*,*,#593,.T.);
#799=ORIENTED_EDGE('',*,*,#594,.T.);
#800=ORIENTED_EDGE('',*,*,#593,.F.);
#801=ORIENTED_EDGE('',*,*,#592,.T.);
#802=ORIENTED_EDGE('',*,*,#589,.T.);
#803=ORIENTED_EDGE('',*,*,#594,.F.);
#804=ORIENTED_EDGE('',*,*,#591,.F.);
#805=ORIENTED_EDGE('',*,*,#595,.F.);
#806=ORIENTED_EDGE('',*,*,#596,.T.);
#807=ORIENTED_EDGE('',*,*,#597,.T.);
#808=ORIENTED_EDGE('',*,*,#596,.F.);
#809=ORIENTED_EDGE('',*,*,#598,.F.);
#810=ORIENTED_EDGE('',*,*,#599,.T.);
#811=ORIENTED_EDGE('',*,*,#600,.T.);
#812=ORIENTED_EDGE('',*,*,#599,.F.);
#813=ORIENTED_EDGE('',*,*,#598,.T.);
#814=ORIENTED_EDGE('',*,*,#595,.T.);
#815=ORIENTED_EDGE('',*,*,#600,.F.);
#816=ORIENTED_EDGE('',*,*,#597,.F.);
#817=CYLINDRICAL_SURFACE('',#922,1.8);
#818=CYLINDRICAL_SURFACE('',#925,2.8);
#819=CYLINDRICAL_SURFACE('',#934,2.8);
#820=CYLINDRICAL_SURFACE('',#937,2.8);
#821=CYLINDRICAL_SURFACE('',#946,1.8);
#822=CYLINDRICAL_SURFACE('',#949,2.8);
#823=CYLINDRICAL_SURFACE('',#958,1.8);
#824=CYLINDRICAL_SURFACE('',#961,1.8);
#825=CYLINDRICAL_SURFACE('',#970,1.5);
#826=CYLINDRICAL_SURFACE('',#975,2.5);
#827=CYLINDRICAL_SURFACE('',#980,2.5);
#828=CYLINDRICAL_SURFACE('',#985,1.5);
#829=CYLINDRICAL_SURFACE('',#990,1.75);
#830=CYLINDRICAL_SURFACE('',#993,3.);
#831=CYLINDRICAL_SURFACE('',#998,2.75);
#832=CYLINDRICAL_SURFACE('',#1001,4.);
#833=CYLINDRICAL_SURFACE('',#1006,2.75);
#834=CYLINDRICAL_SURFACE('',#1009,4.);
#835=CYLINDRICAL_SURFACE('',#1014,1.75);
#836=CYLINDRICAL_SURFACE('',#1017,3.);
#837=ADVANCED_FACE('',(#101),#817,.F.);
#838=ADVANCED_FACE('',(#102),#818,.F.);
#839=ADVANCED_FACE('',(#103),#61,.T.);
#840=ADVANCED_FACE('',(#104),#62,.T.);
#841=ADVANCED_FACE('',(#105),#63,.T.);
#842=ADVANCED_FACE('',(#106),#64,.T.);
#843=ADVANCED_FACE('',(#107,#37,#38),#65,.T.);
#844=ADVANCED_FACE('',(#108,#39,#40),#66,.F.);
#845=ADVANCED_FACE('',(#109),#819,.F.);
#846=ADVANCED_FACE('',(#110),#820,.F.);
#847=ADVANCED_FACE('',(#111),#67,.T.);
#848=ADVANCED_FACE('',(#112),#68,.T.);
#849=ADVANCED_FACE('',(#113),#69,.T.);
#850=ADVANCED_FACE('',(#114),#70,.T.);
#851=ADVANCED_FACE('',(#115,#41,#42),#71,.T.);
#852=ADVANCED_FACE('',(#116,#43,#44),#72,.F.);
#853=ADVANCED_FACE('',(#117),#821,.F.);
#854=ADVANCED_FACE('',(#118),#822,.F.);
#855=ADVANCED_FACE('',(#119),#73,.T.);
#856=ADVANCED_FACE('',(#120),#74,.T.);
#857=ADVANCED_FACE('',(#121),#75,.T.);
#858=ADVANCED_FACE('',(#122),#76,.T.);
#859=ADVANCED_FACE('',(#123,#45,#46),#77,.T.);
#860=ADVANCED_FACE('',(#124,#47,#48),#78,.F.);
#861=ADVANCED_FACE('',(#125),#823,.F.);
#862=ADVANCED_FACE('',(#126),#824,.F.);
#863=ADVANCED_FACE('',(#127),#79,.T.);
#864=ADVANCED_FACE('',(#128),#80,.T.);
#865=ADVANCED_FACE('',(#129),#81,.T.);
#866=ADVANCED_FACE('',(#130),#82,.T.);
#867=ADVANCED_FACE('',(#131,#49,#50),#83,.T.);
#868=ADVANCED_FACE('',(#132,#51,#52),#84,.F.);
#869=ADVANCED_FACE('',(#133),#825,.T.);
#870=ADVANCED_FACE('',(#134),#85,.T.);
#871=ADVANCED_FACE('',(#135),#86,.F.);
#872=ADVANCED_FACE('',(#136),#826,.T.);
#873=ADVANCED_FACE('',(#137),#87,.T.);
#874=ADVANCED_FACE('',(#138),#88,.F.);
#875=ADVANCED_FACE('',(#139),#827,.T.);
#876=ADVANCED_FACE('',(#140),#89,.T.);
#877=ADVANCED_FACE('',(#141),#90,.F.);
#878=ADVANCED_FACE('',(#142),#828,.T.);
#879=ADVANCED_FACE('',(#143),#91,.T.);
#880=ADVANCED_FACE('',(#144),#92,.F.);
#881=ADVANCED_FACE('',(#145),#829,.F.);
#882=ADVANCED_FACE('',(#146),#830,.T.);
#883=ADVANCED_FACE('',(#147,#53),#93,.T.);
#884=ADVANCED_FACE('',(#148,#54),#94,.F.);
#885=ADVANCED_FACE('',(#149),#831,.F.);
#886=ADVANCED_FACE('',(#150),#832,.T.);
#887=ADVANCED_FACE('',(#151,#55),#95,.T.);
#888=ADVANCED_FACE('',(#152,#56),#96,.F.);
#889=ADVANCED_FACE('',(#153),#833,.F.);
#890=ADVANCED_FACE('',(#154),#834,.T.);
#891=ADVANCED_FACE('',(#155,#57),#97,.T.);
#892=ADVANCED_FACE('',(#156,#58),#98,.F.);
#893=ADVANCED_FACE('',(#157),#835,.F.);
#894=ADVANCED_FACE('',(#158),#836,.T.);
#895=ADVANCED_FACE('',(#159,#59),#99,.T.);
#896=ADVANCED_FACE('',(#160,#60),#100,.F.);
#897=CLOSED_SHELL('',(#837,#838,#839,#840,#841,#842,#843,#844));
#898=CLOSED_SHELL('',(#845,#846,#847,#848,#849,#850,#851,#852));
#899=CLOSED_SHELL('',(#853,#854,#855,#856,#857,#858,#859,#860));
#900=CLOSED_SHELL('',(#861,#862,#863,#864,#865,#866,#867,#868));
#901=CLOSED_SHELL('',(#869,#870,#871));
#902=CLOSED_SHELL('',(#872,#873,#874));
#903=CLOSED_SHELL('',(#875,#876,#877));
#904=CLOSED_SHELL('',(#878,#879,#880));
#905=CLOSED_SHELL('',(#881,#882,#883,#884));
#906=CLOSED_SHELL('',(#885,#886,#887,#888));
#907=CLOSED_SHELL('',(#889,#890,#891,#892));
#908=CLOSED_SHELL('',(#893,#894,#895,#896));
#909=DERIVED_UNIT_ELEMENT(#911,1.);
#910=DERIVED_UNIT_ELEMENT(#1538,-3.);
#911=(
MASS_UNIT()
NAMED_UNIT(*)
SI_UNIT(.KILO.,.GRAM.)
);
#912=DERIVED_UNIT((#909,#910));
#913=MEASURE_REPRESENTATION_ITEM('density measure',
POSITIVE_RATIO_MEASURE(7850.),#912);
#914=PROPERTY_DEFINITION_REPRESENTATION(#919,#916);
#915=PROPERTY_DEFINITION_REPRESENTATION(#920,#917);
#916=REPRESENTATION('material name',(#918),#1535);
#917=REPRESENTATION('density',(#913),#1535);
#918=DESCRIPTIVE_REPRESENTATION_ITEM('Steel','Steel');
#919=PROPERTY_DEFINITION('material property','material name',#1545);
#920=PROPERTY_DEFINITION('material property','density of part',#1545);
#921=AXIS2_PLACEMENT_3D('',#1292,#1022,#1023);
#922=AXIS2_PLACEMENT_3D('',#1293,#1024,#1025);
#923=AXIS2_PLACEMENT_3D('',#1295,#1026,#1027);
#924=AXIS2_PLACEMENT_3D('',#1298,#1029,#1030);
#925=AXIS2_PLACEMENT_3D('',#1299,#1031,#1032);
#926=AXIS2_PLACEMENT_3D('',#1301,#1033,#1034);
#927=AXIS2_PLACEMENT_3D('',#1304,#1036,#1037);
#928=AXIS2_PLACEMENT_3D('',#1305,#1038,#1039);
#929=AXIS2_PLACEMENT_3D('',#1314,#1044,#1045);
#930=AXIS2_PLACEMENT_3D('',#1320,#1049,#1050);
#931=AXIS2_PLACEMENT_3D('',#1326,#1054,#1055);
#932=AXIS2_PLACEMENT_3D('',#1329,#1058,#1059);
#933=AXIS2_PLACEMENT_3D('',#1330,#1060,#1061);
#934=AXIS2_PLACEMENT_3D('',#1331,#1062,#1063);
#935=AXIS2_PLACEMENT_3D('',#1333,#1064,#1065);
#936=AXIS2_PLACEMENT_3D('',#1336,#1067,#1068);
#937=AXIS2_PLACEMENT_3D('',#1337,#1069,#1070);
#938=AXIS2_PLACEMENT_3D('',#1339,#1071,#1072);
#939=AXIS2_PLACEMENT_3D('',#1342,#1074,#1075);
#940=AXIS2_PLACEMENT_3D('',#1343,#1076,#1077);
#941=AXIS2_PLACEMENT_3D('',#1352,#1082,#1083);
#942=AXIS2_PLACEMENT_3D('',#1358,#1087,#1088);
#943=AXIS2_PLACEMENT_3D('',#1364,#1092,#1093);
#944=AXIS2_PLACEMENT_3D('',#1367,#1096,#1097);
#945=AXIS2_PLACEMENT_3D('',#1368,#1098,#1099);
#946=AXIS2_PLACEMENT_3D('',#1369,#1100,#1101);
#947=AXIS2_PLACEMENT_3D('',#1371,#1102,#1103);
#948=AXIS2_PLACEMENT_3D('',#1374,#1105,#1106);
#949=AXIS2_PLACEMENT_3D('',#1375,#1107,#1108);
#950=AXIS2_PLACEMENT_3D('',#1377,#1109,#1110);
#951=AXIS2_PLACEMENT_3D('',#1380,#1112,#1113);
#952=AXIS2_PLACEMENT_3D('',#1381,#1114,#1115);
#953=AXIS2_PLACEMENT_3D('',#1390,#1120,#1121);
#954=AXIS2_PLACEMENT_3D('',#1396,#1125,#1126);
#955=AXIS2_PLACEMENT_3D('',#1402,#1130,#1131);
#956=AXIS2_PLACEMENT_3D('',#1405,#1134,#1135);
#957=AXIS2_PLACEMENT_3D('',#1406,#1136,#1137);
#958=AXIS2_PLACEMENT_3D('',#1407,#1138,#1139);
#959=AXIS2_PLACEMENT_3D('',#1409,#1140,#1141);
#960=AXIS2_PLACEMENT_3D('',#1412,#1143,#1144);
#961=AXIS2_PLACEMENT_3D('',#1413,#1145,#1146);
#962=AXIS2_PLACEMENT_3D('',#1415,#1147,#1148);
#963=AXIS2_PLACEMENT_3D('',#1418,#1150,#1151);
#964=AXIS2_PLACEMENT_3D('',#1419,#1152,#1153);
#965=AXIS2_PLACEMENT_3D('',#1428,#1158,#1159);
#966=AXIS2_PLACEMENT_3D('',#1434,#1163,#1164);
#967=AXIS2_PLACEMENT_3D('',#1440,#1168,#1169);
#968=AXIS2_PLACEMENT_3D('',#1443,#1172,#1173);
#969=AXIS2_PLACEMENT_3D('',#1444,#1174,#1175);
#970=AXIS2_PLACEMENT_3D('',#1445,#1176,#1177);
#971=AXIS2_PLACEMENT_3D('',#1447,#1178,#1179);
#972=AXIS2_PLACEMENT_3D('',#1450,#1181,#1182);
#973=AXIS2_PLACEMENT_3D('',#1451,#1183,#1184);
#974=AXIS2_PLACEMENT_3D('',#1452,#1185,#1186);
#975=AXIS2_PLACEMENT_3D('',#1453,#1187,#1188);
#976=AXIS2_PLACEMENT_3D('',#1455,#1189,#1190);
#977=AXIS2_PLACEMENT_3D('',#1458,#1192,#1193);
#978=AXIS2_PLACEMENT_3D('',#1459,#1194,#1195);
#979=AXIS2_PLACEMENT_3D('',#1460,#1196,#1197);
#980=AXIS2_PLACEMENT_3D('',#1461,#1198,#1199);
#981=AXIS2_PLACEMENT_3D('',#1463,#1200,#1201);
#982=AXIS2_PLACEMENT_3D('',#1466,#1203,#1204);
#983=AXIS2_PLACEMENT_3D('',#1467,#1205,#1206);
#984=AXIS2_PLACEMENT_3D('',#1468,#1207,#1208);
#985=AXIS2_PLACEMENT_3D('',#1469,#1209,#1210);
#986=AXIS2_PLACEMENT_3D('',#1471,#1211,#1212);
#987=AXIS2_PLACEMENT_3D('',#1474,#1214,#1215);
#988=AXIS2_PLACEMENT_3D('',#1475,#1216,#1217);
#989=AXIS2_PLACEMENT_3D('',#1476,#1218,#1219);
#990=AXIS2_PLACEMENT_3D('',#1477,#1220,#1221);
#991=AXIS2_PLACEMENT_3D('',#1479,#1222,#1223);
#992=AXIS2_PLACEMENT_3D('',#1482,#1225,#1226);
#993=AXIS2_PLACEMENT_3D('',#1483,#1227,#1228);
#994=AXIS2_PLACEMENT_3D('',#1485,#1229,#1230);
#995=AXIS2_PLACEMENT_3D('',#1488,#1232,#1233);
#996=AXIS2_PLACEMENT_3D('',#1489,#1234,#1235);
#997=AXIS2_PLACEMENT_3D('',#1490,#1236,#1237);
#998=AXIS2_PLACEMENT_3D('',#1491,#1238,#1239);
#999=AXIS2_PLACEMENT_3D('',#1493,#1240,#1241);
#1000=AXIS2_PLACEMENT_3D('',#1496,#1243,#1244);
#1001=AXIS2_PLACEMENT_3D('',#1497,#1245,#1246);
#1002=AXIS2_PLACEMENT_3D('',#1499,#1247,#1248);
#1003=AXIS2_PLACEMENT_3D('',#1502,#1250,#1251);
#1004=AXIS2_PLACEMENT_3D('',#1503,#1252,#1253);
#1005=AXIS2_PLACEMENT_3D('',#1504,#1254,#1255);
#1006=AXIS2_PLACEMENT_3D('',#1505,#1256,#1257);
#1007=AXIS2_PLACEMENT_3D('',#1507,#1258,#1259);
#1008=AXIS2_PLACEMENT_3D('',#1510,#1261,#1262);
#1009=AXIS2_PLACEMENT_3D('',#1511,#1263,#1264);
#1010=AXIS2_PLACEMENT_3D('',#1513,#1265,#1266);
#1011=AXIS2_PLACEMENT_3D('',#1516,#1268,#1269);
#1012=AXIS2_PLACEMENT_3D('',#1517,#1270,#1271);
#1013=AXIS2_PLACEMENT_3D('',#1518,#1272,#1273);
#1014=AXIS2_PLACEMENT_3D('',#1519,#1274,#1275);
#1015=AXIS2_PLACEMENT_3D('',#1521,#1276,#1277);
#1016=AXIS2_PLACEMENT_3D('',#1524,#1279,#1280);
#1017=AXIS2_PLACEMENT_3D('',#1525,#1281,#1282);
#1018=AXIS2_PLACEMENT_3D('',#1527,#1283,#1284);
#1019=AXIS2_PLACEMENT_3D('',#1530,#1286,#1287);
#1020=AXIS2_PLACEMENT_3D('',#1531,#1288,#1289);
#1021=AXIS2_PLACEMENT_3D('',#1532,#1290,#1291);
#1022=DIRECTION('axis',(0.,0.,1.));
#1023=DIRECTION('refdir',(1.,0.,0.));
#1024=DIRECTION('center_axis',(0.,0.,1.));
#1025=DIRECTION('ref_axis',(1.,0.,0.));
#1026=DIRECTION('center_axis',(0.,0.,-1.));
#1027=DIRECTION('ref_axis',(1.,0.,0.));
#1028=DIRECTION('',(0.,0.,-1.));
#1029=DIRECTION('center_axis',(0.,0.,-1.));
#1030=DIRECTION('ref_axis',(1.,0.,0.));
#1031=DIRECTION('center_axis',(0.,0.,1.));
#1032=DIRECTION('ref_axis',(1.,0.,0.));
#1033=DIRECTION('center_axis',(0.,0.,-1.));
#1034=DIRECTION('ref_axis',(1.,0.,0.));
#1035=DIRECTION('',(0.,0.,-1.));
#1036=DIRECTION('center_axis',(0.,0.,-1.));
#1037=DIRECTION('ref_axis',(1.,0.,0.));
#1038=DIRECTION('center_axis',(0.,-1.,0.));
#1039=DIRECTION('ref_axis',(1.,0.,0.));
#1040=DIRECTION('',(1.,0.,0.));
#1041=DIRECTION('',(0.,0.,1.));
#1042=DIRECTION('',(1.,0.,0.));
#1043=DIRECTION('',(0.,0.,1.));
#1044=DIRECTION('center_axis',(-1.,0.,0.));
#1045=DIRECTION('ref_axis',(0.,-1.,0.));
#1046=DIRECTION('',(0.,-1.,0.));
#1047=DIRECTION('',(0.,-1.,0.));
#1048=DIRECTION('',(0.,0.,1.));
#1049=DIRECTION('center_axis',(0.,1.,0.));
#1050=DIRECTION('ref_axis',(-1.,0.,0.));
#1051=DIRECTION('',(-1.,0.,0.));
#1052=DIRECTION('',(-1.,0.,0.));
#1053=DIRECTION('',(0.,0.,1.));
#1054=DIRECTION('center_axis',(1.,0.,0.));
#1055=DIRECTION('ref_axis',(0.,1.,0.));
#1056=DIRECTION('',(0.,1.,0.));
#1057=DIRECTION('',(0.,1.,0.));
#1058=DIRECTION('center_axis',(0.,0.,1.));
#1059=DIRECTION('ref_axis',(1.,0.,0.));
#1060=DIRECTION('center_axis',(0.,0.,1.));
#1061=DIRECTION('ref_axis',(1.,0.,0.));
#1062=DIRECTION('center_axis',(0.,0.,1.));
#1063=DIRECTION('ref_axis',(1.,0.,0.));
#1064=DIRECTION('center_axis',(0.,0.,-1.));
#1065=DIRECTION('ref_axis',(1.,0.,0.));
#1066=DIRECTION('',(0.,0.,-1.));
#1067=DIRECTION('center_axis',(0.,0.,-1.));
#1068=DIRECTION('ref_axis',(1.,0.,0.));
#1069=DIRECTION('center_axis',(0.,0.,1.));
#1070=DIRECTION('ref_axis',(1.,0.,0.));
#1071=DIRECTION('center_axis',(0.,0.,-1.));
#1072=DIRECTION('ref_axis',(1.,0.,0.));
#1073=DIRECTION('',(0.,0.,-1.));
#1074=DIRECTION('center_axis',(0.,0.,-1.));
#1075=DIRECTION('ref_axis',(1.,0.,0.));
#1076=DIRECTION('center_axis',(0.,1.,0.));
#1077=DIRECTION('ref_axis',(-1.,0.,0.));
#1078=DIRECTION('',(-1.,0.,0.));
#1079=DIRECTION('',(0.,0.,1.));
#1080=DIRECTION('',(-1.,0.,0.));
#1081=DIRECTION('',(0.,0.,1.));
#1082=DIRECTION('center_axis',(1.,0.,0.));
#1083=DIRECTION('ref_axis',(0.,1.,0.));
#1084=DIRECTION('',(0.,1.,0.));
#1085=DIRECTION('',(0.,1.,0.));
#1086=DIRECTION('',(0.,0.,1.));
#1087=DIRECTION('center_axis',(0.,-1.,0.));
#1088=DIRECTION('ref_axis',(1.,0.,0.));
#1089=DIRECTION('',(1.,0.,0.));
#1090=DIRECTION('',(1.,0.,0.));
#1091=DIRECTION('',(0.,0.,1.));
#1092=DIRECTION('center_axis',(-0.999999999999997,7.45058059080058E-8,0.));
#1093=DIRECTION('ref_axis',(-7.45058059080057E-8,-0.999999999999997,0.));
#1094=DIRECTION('',(-7.45058059080057E-8,-0.999999999999997,0.));
#1095=DIRECTION('',(-7.45058059080057E-8,-0.999999999999997,0.));
#1096=DIRECTION('center_axis',(0.,0.,1.));
#1097=DIRECTION('ref_axis',(1.,0.,0.));
#1098=DIRECTION('center_axis',(0.,0.,1.));
#1099=DIRECTION('ref_axis',(1.,0.,0.));
#1100=DIRECTION('center_axis',(0.,0.,1.));
#1101=DIRECTION('ref_axis',(1.,0.,0.));
#1102=DIRECTION('center_axis',(0.,0.,-1.));
#1103=DIRECTION('ref_axis',(1.,0.,0.));
#1104=DIRECTION('',(0.,0.,-1.));
#1105=DIRECTION('center_axis',(0.,0.,-1.));
#1106=DIRECTION('ref_axis',(1.,0.,0.));
#1107=DIRECTION('center_axis',(0.,0.,1.));
#1108=DIRECTION('ref_axis',(1.,0.,0.));
#1109=DIRECTION('center_axis',(0.,0.,-1.));
#1110=DIRECTION('ref_axis',(1.,0.,0.));
#1111=DIRECTION('',(0.,0.,-1.));
#1112=DIRECTION('center_axis',(0.,0.,-1.));
#1113=DIRECTION('ref_axis',(1.,0.,0.));
#1114=DIRECTION('center_axis',(-1.,0.,0.));
#1115=DIRECTION('ref_axis',(0.,-1.,0.));
#1116=DIRECTION('',(0.,1.,0.));
#1117=DIRECTION('',(0.,0.,1.));
#1118=DIRECTION('',(0.,-1.,0.));
#1119=DIRECTION('',(0.,0.,1.));
#1120=DIRECTION('center_axis',(0.,1.,0.));
#1121=DIRECTION('ref_axis',(-1.,0.,0.));
#1122=DIRECTION('',(1.,0.,0.));
#1123=DIRECTION('',(-1.,0.,0.));
#1124=DIRECTION('',(0.,0.,1.));
#1125=DIRECTION('center_axis',(1.,0.,0.));
#1126=DIRECTION('ref_axis',(0.,1.,0.));
#1127=DIRECTION('',(0.,-1.,0.));
#1128=DIRECTION('',(0.,1.,0.));
#1129=DIRECTION('',(0.,0.,1.));
#1130=DIRECTION('center_axis',(0.,-1.,0.));
#1131=DIRECTION('ref_axis',(1.,0.,0.));
#1132=DIRECTION('',(-1.,0.,0.));
#1133=DIRECTION('',(1.,0.,0.));
#1134=DIRECTION('center_axis',(0.,0.,1.));
#1135=DIRECTION('ref_axis',(1.,0.,0.));
#1136=DIRECTION('center_axis',(0.,0.,1.));
#1137=DIRECTION('ref_axis',(1.,0.,0.));
#1138=DIRECTION('center_axis',(0.,0.,1.));
#1139=DIRECTION('ref_axis',(1.,0.,0.));
#1140=DIRECTION('center_axis',(0.,0.,-1.));
#1141=DIRECTION('ref_axis',(1.,0.,0.));
#1142=DIRECTION('',(0.,0.,-1.));
#1143=DIRECTION('center_axis',(0.,0.,-1.));
#1144=DIRECTION('ref_axis',(1.,0.,0.));
#1145=DIRECTION('center_axis',(0.,0.,1.));
#1146=DIRECTION('ref_axis',(1.,0.,0.));
#1147=DIRECTION('center_axis',(0.,0.,-1.));
#1148=DIRECTION('ref_axis',(1.,0.,0.));
#1149=DIRECTION('',(0.,0.,-1.));
#1150=DIRECTION('center_axis',(0.,0.,-1.));
#1151=DIRECTION('ref_axis',(1.,0.,0.));
#1152=DIRECTION('center_axis',(-1.,0.,0.));
#1153=DIRECTION('ref_axis',(0.,-1.,0.));
#1154=DIRECTION('',(0.,1.,0.));
#1155=DIRECTION('',(0.,0.,1.));
#1156=DIRECTION('',(0.,-1.,0.));
#1157=DIRECTION('',(0.,0.,1.));
#1158=DIRECTION('center_axis',(0.,1.,0.));
#1159=DIRECTION('ref_axis',(-1.,0.,0.));
#1160=DIRECTION('',(1.,0.,0.));
#1161=DIRECTION('',(-1.,0.,0.));
#1162=DIRECTION('',(0.,0.,1.));
#1163=DIRECTION('center_axis',(1.,0.,0.));
#1164=DIRECTION('ref_axis',(0.,1.,0.));
#1165=DIRECTION('',(0.,-1.,0.));
#1166=DIRECTION('',(0.,1.,0.));
#1167=DIRECTION('',(0.,0.,1.));
#1168=DIRECTION('center_axis',(0.,-1.,0.));
#1169=DIRECTION('ref_axis',(1.,0.,0.));
#1170=DIRECTION('',(-1.,0.,0.));
#1171=DIRECTION('',(1.,0.,0.));
#1172=DIRECTION('center_axis',(0.,0.,1.));
#1173=DIRECTION('ref_axis',(1.,0.,0.));
#1174=DIRECTION('center_axis',(0.,0.,1.));
#1175=DIRECTION('ref_axis',(1.,0.,0.));
#1176=DIRECTION('center_axis',(0.,0.,1.));
#1177=DIRECTION('ref_axis',(1.,0.,0.));
#1178=DIRECTION('center_axis',(0.,0.,1.));
#1179=DIRECTION('ref_axis',(1.,0.,0.));
#1180=DIRECTION('',(0.,0.,-1.));
#1181=DIRECTION('center_axis',(0.,0.,1.));
#1182=DIRECTION('ref_axis',(1.,0.,0.));
#1183=DIRECTION('center_axis',(0.,0.,1.));
#1184=DIRECTION('ref_axis',(1.,0.,0.));
#1185=DIRECTION('center_axis',(0.,0.,1.));
#1186=DIRECTION('ref_axis',(1.,0.,0.));
#1187=DIRECTION('center_axis',(0.,0.,1.));
#1188=DIRECTION('ref_axis',(1.,0.,0.));
#1189=DIRECTION('center_axis',(0.,0.,1.));
#1190=DIRECTION('ref_axis',(1.,0.,0.));
#1191=DIRECTION('',(0.,0.,-1.));
#1192=DIRECTION('center_axis',(0.,0.,1.));
#1193=DIRECTION('ref_axis',(1.,0.,0.));
#1194=DIRECTION('center_axis',(0.,0.,1.));
#1195=DIRECTION('ref_axis',(1.,0.,0.));
#1196=DIRECTION('center_axis',(0.,0.,1.));
#1197=DIRECTION('ref_axis',(1.,0.,0.));
#1198=DIRECTION('center_axis',(0.,0.,1.));
#1199=DIRECTION('ref_axis',(1.,0.,0.));
#1200=DIRECTION('center_axis',(0.,0.,1.));
#1201=DIRECTION('ref_axis',(1.,0.,0.));
#1202=DIRECTION('',(0.,0.,-1.));
#1203=DIRECTION('center_axis',(0.,0.,1.));
#1204=DIRECTION('ref_axis',(1.,0.,0.));
#1205=DIRECTION('center_axis',(0.,0.,1.));
#1206=DIRECTION('ref_axis',(1.,0.,0.));
#1207=DIRECTION('center_axis',(0.,0.,1.));
#1208=DIRECTION('ref_axis',(1.,0.,0.));
#1209=DIRECTION('center_axis',(0.,0.,1.));
#1210=DIRECTION('ref_axis',(1.,0.,0.));
#1211=DIRECTION('center_axis',(0.,0.,1.));
#1212=DIRECTION('ref_axis',(1.,0.,0.));
#1213=DIRECTION('',(0.,0.,-1.));
#1214=DIRECTION('center_axis',(0.,0.,1.));
#1215=DIRECTION('ref_axis',(1.,0.,0.));
#1216=DIRECTION('center_axis',(0.,0.,1.));
#1217=DIRECTION('ref_axis',(1.,0.,0.));
#1218=DIRECTION('center_axis',(0.,0.,1.));
#1219=DIRECTION('ref_axis',(1.,0.,0.));
#1220=DIRECTION('center_axis',(0.,0.,1.));
#1221=DIRECTION('ref_axis',(1.,0.,0.));
#1222=DIRECTION('center_axis',(0.,0.,-1.));
#1223=DIRECTION('ref_axis',(1.,0.,0.));
#1224=DIRECTION('',(0.,0.,-1.));
#1225=DIRECTION('center_axis',(0.,0.,-1.));
#1226=DIRECTION('ref_axis',(1.,0.,0.));
#1227=DIRECTION('center_axis',(0.,0.,1.));
#1228=DIRECTION('ref_axis',(1.,0.,0.));
#1229=DIRECTION('center_axis',(0.,0.,1.));
#1230=DIRECTION('ref_axis',(1.,0.,0.));
#1231=DIRECTION('',(0.,0.,-1.));
#1232=DIRECTION('center_axis',(0.,0.,1.));
#1233=DIRECTION('ref_axis',(1.,0.,0.));
#1234=DIRECTION('center_axis',(0.,0.,1.));
#1235=DIRECTION('ref_axis',(1.,0.,0.));
#1236=DIRECTION('center_axis',(0.,0.,1.));
#1237=DIRECTION('ref_axis',(1.,0.,0.));
#1238=DIRECTION('center_axis',(0.,0.,1.));
#1239=DIRECTION('ref_axis',(1.,0.,0.));
#1240=DIRECTION('center_axis',(0.,0.,-1.));
#1241=DIRECTION('ref_axis',(1.,0.,0.));
#1242=DIRECTION('',(0.,0.,-1.));
#1243=DIRECTION('center_axis',(0.,0.,-1.));
#1244=DIRECTION('ref_axis',(1.,0.,0.));
#1245=DIRECTION('center_axis',(0.,0.,1.));
#1246=DIRECTION('ref_axis',(1.,0.,0.));
#1247=DIRECTION('center_axis',(0.,0.,1.));
#1248=DIRECTION('ref_axis',(1.,0.,0.));
#1249=DIRECTION('',(0.,0.,-1.));
#1250=DIRECTION('center_axis',(0.,0.,1.));
#1251=DIRECTION('ref_axis',(1.,0.,0.));
#1252=DIRECTION('center_axis',(0.,0.,1.));
#1253=DIRECTION('ref_axis',(1.,0.,0.));
#1254=DIRECTION('center_axis',(0.,0.,1.));
#1255=DIRECTION('ref_axis',(1.,0.,0.));
#1256=DIRECTION('center_axis',(0.,0.,1.));
#1257=DIRECTION('ref_axis',(1.,0.,0.));
#1258=DIRECTION('center_axis',(0.,0.,-1.));
#1259=DIRECTION('ref_axis',(1.,0.,0.));
#1260=DIRECTION('',(0.,0.,-1.));
#1261=DIRECTION('center_axis',(0.,0.,-1.));
#1262=DIRECTION('ref_axis',(1.,0.,0.));
#1263=DIRECTION('center_axis',(0.,0.,1.));
#1264=DIRECTION('ref_axis',(1.,0.,0.));
#1265=DIRECTION('center_axis',(0.,0.,1.));
#1266=DIRECTION('ref_axis',(1.,0.,0.));
#1267=DIRECTION('',(0.,0.,-1.));
#1268=DIRECTION('center_axis',(0.,0.,1.));
#1269=DIRECTION('ref_axis',(1.,0.,0.));
#1270=DIRECTION('center_axis',(0.,0.,1.));
#1271=DIRECTION('ref_axis',(1.,0.,0.));
#1272=DIRECTION('center_axis',(0.,0.,1.));
#1273=DIRECTION('ref_axis',(1.,0.,0.));
#1274=DIRECTION('center_axis',(0.,0.,1.));
#1275=DIRECTION('ref_axis',(1.,0.,0.));
#1276=DIRECTION('center_axis',(0.,0.,-1.));
#1277=DIRECTION('ref_axis',(1.,0.,0.));
#1278=DIRECTION('',(0.,0.,-1.));
#1279=DIRECTION('center_axis',(0.,0.,-1.));
#1280=DIRECTION('ref_axis',(1.,0.,0.));
#1281=DIRECTION('center_axis',(0.,0.,1.));
#1282=DIRECTION('ref_axis',(1.,0.,0.));
#1283=DIRECTION('center_axis',(0.,0.,1.));
#1284=DIRECTION('ref_axis',(1.,0.,0.));
#1285=DIRECTION('',(0.,0.,-1.));
#1286=DIRECTION('center_axis',(0.,0.,1.));
#1287=DIRECTION('ref_axis',(1.,0.,0.));
#1288=DIRECTION('center_axis',(0.,0.,1.));
#1289=DIRECTION('ref_axis',(1.,0.,0.));
#1290=DIRECTION('center_axis',(0.,0.,1.));
#1291=DIRECTION('ref_axis',(1.,0.,0.));
#1292=CARTESIAN_POINT('',(0.,0.,0.));
#1293=CARTESIAN_POINT('Origin',(-22.5000003352761,-13.0000001937151,0.));
#1294=CARTESIAN_POINT('',(-24.3000003352761,-13.0000001937151,5.));
#1295=CARTESIAN_POINT('Origin',(-22.5000003352761,-13.0000001937151,5.));
#1296=CARTESIAN_POINT('',(-24.3000003352761,-13.0000001937151,0.));
#1297=CARTESIAN_POINT('',(-24.3000003352761,-13.0000001937151,0.));
#1298=CARTESIAN_POINT('Origin',(-22.5000003352761,-13.0000001937151,0.));
#1299=CARTESIAN_POINT('Origin',(-22.5000003352761,5.00000007450581,0.));
#1300=CARTESIAN_POINT('',(-25.3000003352761,5.00000007450581,5.));
#1301=CARTESIAN_POINT('Origin',(-22.5000003352761,5.00000007450581,5.));
#1302=CARTESIAN_POINT('',(-25.3000003352761,5.00000007450581,0.));
#1303=CARTESIAN_POINT('',(-25.3000003352761,5.00000007450581,0.));
#1304=CARTESIAN_POINT('Origin',(-22.5000003352761,5.00000007450581,0.));
#1305=CARTESIAN_POINT('Origin',(-26.0000002831221,-16.0000002384186,0.));
#1306=CARTESIAN_POINT('',(-26.0000002831221,-16.0000002384186,0.));
#1307=CARTESIAN_POINT('',(-19.0000002831221,-16.0000002384186,0.));
#1308=CARTESIAN_POINT('',(-26.0000002831221,-16.0000002384186,0.));
#1309=CARTESIAN_POINT('',(-19.0000002831221,-16.0000002384186,5.));
#1310=CARTESIAN_POINT('',(-19.0000002831221,-16.0000002384186,0.));
#1311=CARTESIAN_POINT('',(-26.0000002831221,-16.0000002384186,5.));
#1312=CARTESIAN_POINT('',(-26.0000002831221,-16.0000002384186,5.));
#1313=CARTESIAN_POINT('',(-26.0000002831221,-16.0000002384186,0.));
#1314=CARTESIAN_POINT('Origin',(-26.0000002831221,10.0000001490116,0.));
#1315=CARTESIAN_POINT('',(-26.0000002831221,10.0000001490116,0.));
#1316=CARTESIAN_POINT('',(-26.0000002831221,10.0000001490116,0.));
#1317=CARTESIAN_POINT('',(-26.0000002831221,10.0000001490116,5.));
#1318=CARTESIAN_POINT('',(-26.0000002831221,10.0000001490116,5.));
#1319=CARTESIAN_POINT('',(-26.0000002831221,10.0000001490116,0.));
#1320=CARTESIAN_POINT('Origin',(-19.0000002831221,10.0000001490116,0.));
#1321=CARTESIAN_POINT('',(-19.0000002831221,10.0000001490116,0.));
#1322=CARTESIAN_POINT('',(-19.0000002831221,10.0000001490116,0.));
#1323=CARTESIAN_POINT('',(-19.0000002831221,10.0000001490116,5.));
#1324=CARTESIAN_POINT('',(-19.0000002831221,10.0000001490116,5.));
#1325=CARTESIAN_POINT('',(-19.0000002831221,10.0000001490116,0.));
#1326=CARTESIAN_POINT('Origin',(-19.0000002831221,-16.0000002384186,0.));
#1327=CARTESIAN_POINT('',(-19.0000002831221,-16.0000002384186,0.));
#1328=CARTESIAN_POINT('',(-19.0000002831221,-16.0000002384186,5.));
#1329=CARTESIAN_POINT('Origin',(-22.5000002831221,-3.00000004470348,5.));
#1330=CARTESIAN_POINT('Origin',(-22.5000002831221,-3.00000004470348,0.));
#1331=CARTESIAN_POINT('Origin',(5.00000007450581,5.00000007450581,0.));
#1332=CARTESIAN_POINT('',(2.2000000745058,5.00000007450581,5.));
#1333=CARTESIAN_POINT('Origin',(5.00000007450581,5.00000007450581,5.));
#1334=CARTESIAN_POINT('',(2.20000007450581,5.00000007450581,0.));
#1335=CARTESIAN_POINT('',(2.20000007450581,5.00000007450581,0.));
#1336=CARTESIAN_POINT('Origin',(5.00000007450581,5.00000007450581,0.));
#1337=CARTESIAN_POINT('Origin',(45.0000007450581,5.00000006208817,0.));
#1338=CARTESIAN_POINT('',(42.2000007450581,5.00000006208817,5.));
#1339=CARTESIAN_POINT('Origin',(45.0000007450581,5.00000006208817,5.));
#1340=CARTESIAN_POINT('',(42.2000007450581,5.00000006208817,0.));
#1341=CARTESIAN_POINT('',(42.2000007450581,5.00000006208817,0.));
#1342=CARTESIAN_POINT('Origin',(45.0000007450581,5.00000006208817,0.));
#1343=CARTESIAN_POINT('Origin',(50.0000007450581,10.,0.));
#1344=CARTESIAN_POINT('',(50.0000007450581,10.,0.));
#1345=CARTESIAN_POINT('',(7.4505805908006E-7,10.,0.));
#1346=CARTESIAN_POINT('',(50.0000007450581,10.,0.));
#1347=CARTESIAN_POINT('',(7.45058059692383E-7,10.,5.));
#1348=CARTESIAN_POINT('',(7.4505805908006E-7,10.,0.));
#1349=CARTESIAN_POINT('',(50.0000007450581,10.,5.));
#1350=CARTESIAN_POINT('',(50.0000007450581,10.,5.));
#1351=CARTESIAN_POINT('',(50.0000007450581,10.,0.));
#1352=CARTESIAN_POINT('Origin',(50.0000007450581,0.,0.));
#1353=CARTESIAN_POINT('',(50.0000007450581,0.,0.));
#1354=CARTESIAN_POINT('',(50.0000007450581,0.,0.));
#1355=CARTESIAN_POINT('',(50.0000007450581,0.,5.));
#1356=CARTESIAN_POINT('',(50.0000007450581,0.,5.));
#1357=CARTESIAN_POINT('',(50.0000007450581,0.,0.));
#1358=CARTESIAN_POINT('Origin',(0.,0.,0.));
#1359=CARTESIAN_POINT('',(0.,0.,0.));
#1360=CARTESIAN_POINT('',(0.,0.,0.));
#1361=CARTESIAN_POINT('',(0.,0.,5.));
#1362=CARTESIAN_POINT('',(0.,0.,5.));
#1363=CARTESIAN_POINT('',(0.,0.,0.));
#1364=CARTESIAN_POINT('Origin',(7.4505805908006E-7,10.,0.));
#1365=CARTESIAN_POINT('',(7.4505805908006E-7,10.,0.));
#1366=CARTESIAN_POINT('',(7.4505805908006E-7,10.,5.));
#1367=CARTESIAN_POINT('Origin',(25.000000372529,5.,5.));
#1368=CARTESIAN_POINT('Origin',(25.000000372529,5.,0.));
#1369=CARTESIAN_POINT('Origin',(-11.5000001713634,-13.0000001937151,0.));
#1370=CARTESIAN_POINT('',(-13.3000001713634,-13.0000001937151,5.));
#1371=CARTESIAN_POINT('Origin',(-11.5000001713634,-13.0000001937151,5.));
#1372=CARTESIAN_POINT('',(-13.3000001713634,-13.0000001937151,0.));
#1373=CARTESIAN_POINT('',(-13.3000001713634,-13.0000001937151,0.));
#1374=CARTESIAN_POINT('Origin',(-11.5000001713634,-13.0000001937151,0.));
#1375=CARTESIAN_POINT('Origin',(-11.5000001713634,5.00000007450581,0.));
#1376=CARTESIAN_POINT('',(-14.3000001713634,5.00000007450581,5.));
#1377=CARTESIAN_POINT('Origin',(-11.5000001713634,5.00000007450581,5.));
#1378=CARTESIAN_POINT('',(-14.3000001713634,5.00000007450581,0.));
#1379=CARTESIAN_POINT('',(-14.3000001713634,5.00000007450581,0.));
#1380=CARTESIAN_POINT('Origin',(-11.5000001713634,5.00000007450581,0.));
#1381=CARTESIAN_POINT('Origin',(-15.0000002235174,10.0000001490116,0.));
#1382=CARTESIAN_POINT('',(-15.0000002235174,-16.0000002384186,0.));
#1383=CARTESIAN_POINT('',(-15.0000002235174,10.0000001490116,0.));
#1384=CARTESIAN_POINT('',(-15.0000002235174,-16.0000002384186,0.));
#1385=CARTESIAN_POINT('',(-15.0000002235174,-16.0000002384186,5.));
#1386=CARTESIAN_POINT('',(-15.0000002235174,-16.0000002384186,0.));
#1387=CARTESIAN_POINT('',(-15.0000002235174,10.0000001490116,5.));
#1388=CARTESIAN_POINT('',(-15.0000002235174,-16.0000002384186,5.));
#1389=CARTESIAN_POINT('',(-15.0000002235174,10.0000001490116,0.));
#1390=CARTESIAN_POINT('Origin',(-8.00000011920929,10.0000001490116,0.));
#1391=CARTESIAN_POINT('',(-8.00000011920929,10.0000001490116,0.));
#1392=CARTESIAN_POINT('',(-15.0000002235174,10.0000001490116,0.));
#1393=CARTESIAN_POINT('',(-8.00000011920929,10.0000001490116,5.));
#1394=CARTESIAN_POINT('',(-15.0000002235174,10.0000001490116,5.));
#1395=CARTESIAN_POINT('',(-8.00000011920929,10.0000001490116,0.));
#1396=CARTESIAN_POINT('Origin',(-8.00000011920929,-16.0000002384186,0.));
#1397=CARTESIAN_POINT('',(-8.00000011920929,-16.0000002384186,0.));
#1398=CARTESIAN_POINT('',(-8.00000011920929,10.0000001490116,0.));
#1399=CARTESIAN_POINT('',(-8.00000011920929,-16.0000002384186,5.));
#1400=CARTESIAN_POINT('',(-8.00000011920929,10.0000001490116,5.));
#1401=CARTESIAN_POINT('',(-8.00000011920929,-16.0000002384186,0.));
#1402=CARTESIAN_POINT('Origin',(-15.0000002235174,-16.0000002384186,0.));
#1403=CARTESIAN_POINT('',(-8.00000011920929,-16.0000002384186,0.));
#1404=CARTESIAN_POINT('',(-8.00000011920929,-16.0000002384186,5.));
#1405=CARTESIAN_POINT('Origin',(-11.5000001713634,-3.00000004470348,5.));
#1406=CARTESIAN_POINT('Origin',(-11.5000001713634,-3.00000004470348,0.));
#1407=CARTESIAN_POINT('Origin',(5.00000007450581,-13.0000001937151,0.));
#1408=CARTESIAN_POINT('',(3.20000007450581,-13.0000001937151,5.));
#1409=CARTESIAN_POINT('Origin',(5.00000007450581,-13.0000001937151,5.));
#1410=CARTESIAN_POINT('',(3.20000007450581,-13.0000001937151,0.));
#1411=CARTESIAN_POINT('',(3.20000007450581,-13.0000001937151,0.));
#1412=CARTESIAN_POINT('Origin',(5.00000007450581,-13.0000001937151,0.));
#1413=CARTESIAN_POINT('Origin',(45.0000006705523,-13.0000001937151,0.));
#1414=CARTESIAN_POINT('',(43.2000006705523,-13.0000001937151,5.));
#1415=CARTESIAN_POINT('Origin',(45.0000006705523,-13.0000001937151,5.));
#1416=CARTESIAN_POINT('',(43.2000006705523,-13.0000001937151,0.));
#1417=CARTESIAN_POINT('',(43.2000006705523,-13.0000001937151,0.));
#1418=CARTESIAN_POINT('Origin',(45.0000006705523,-13.0000001937151,0.));
#1419=CARTESIAN_POINT('Origin',(0.,-10.,0.));
#1420=CARTESIAN_POINT('',(0.,-16.000000089407,0.));
#1421=CARTESIAN_POINT('',(0.,-10.,0.));
#1422=CARTESIAN_POINT('',(0.,-16.000000089407,0.));
#1423=CARTESIAN_POINT('',(0.,-16.000000089407,5.));
#1424=CARTESIAN_POINT('',(0.,-16.000000089407,0.));
#1425=CARTESIAN_POINT('',(0.,-10.,5.));
#1426=CARTESIAN_POINT('',(0.,-16.000000089407,5.));
#1427=CARTESIAN_POINT('',(0.,-10.,0.));
#1428=CARTESIAN_POINT('Origin',(50.,-10.,0.));
#1429=CARTESIAN_POINT('',(50.,-10.,0.));
#1430=CARTESIAN_POINT('',(0.,-10.,0.));
#1431=CARTESIAN_POINT('',(50.,-10.,5.));
#1432=CARTESIAN_POINT('',(0.,-10.,5.));
#1433=CARTESIAN_POINT('',(50.,-10.,0.));
#1434=CARTESIAN_POINT('Origin',(50.,-16.000000089407,0.));
#1435=CARTESIAN_POINT('',(50.,-16.000000089407,0.));
#1436=CARTESIAN_POINT('',(50.,-10.,0.));
#1437=CARTESIAN_POINT('',(50.,-16.000000089407,5.));
#1438=CARTESIAN_POINT('',(50.,-10.,5.));
#1439=CARTESIAN_POINT('',(50.,-16.000000089407,0.));
#1440=CARTESIAN_POINT('Origin',(0.,-16.000000089407,0.));
#1441=CARTESIAN_POINT('',(50.,-16.000000089407,0.));
#1442=CARTESIAN_POINT('',(50.,-16.000000089407,5.));
#1443=CARTESIAN_POINT('Origin',(25.,-13.0000000447035,5.));
#1444=CARTESIAN_POINT('Origin',(25.,-13.0000000447035,0.));
#1445=CARTESIAN_POINT('Origin',(6.,-20.0000002980232,0.));
#1446=CARTESIAN_POINT('',(4.5,-20.0000002980232,18.));
#1447=CARTESIAN_POINT('Origin',(6.,-20.0000002980232,18.));
#1448=CARTESIAN_POINT('',(4.5,-20.0000002980232,0.));
#1449=CARTESIAN_POINT('',(4.5,-20.0000002980232,0.));
#1450=CARTESIAN_POINT('Origin',(6.,-20.0000002980232,0.));
#1451=CARTESIAN_POINT('Origin',(6.,-20.0000002980232,18.));
#1452=CARTESIAN_POINT('Origin',(6.,-20.0000002980232,0.));
#1453=CARTESIAN_POINT('Origin',(0.,-27.0000002980232,0.));
#1454=CARTESIAN_POINT('',(-2.5,-27.0000002980232,18.));
#1455=CARTESIAN_POINT('Origin',(0.,-27.0000002980232,18.));
#1456=CARTESIAN_POINT('',(-2.5,-27.0000002980232,0.));
#1457=CARTESIAN_POINT('',(-2.5,-27.0000002980232,0.));
#1458=CARTESIAN_POINT('Origin',(0.,-27.0000002980232,0.));
#1459=CARTESIAN_POINT('Origin',(0.,-27.0000002980232,18.));
#1460=CARTESIAN_POINT('Origin',(0.,-27.0000002980232,0.));
#1461=CARTESIAN_POINT('Origin',(0.,-20.0000002980232,0.));
#1462=CARTESIAN_POINT('',(-2.5,-20.0000002980232,18.));
#1463=CARTESIAN_POINT('Origin',(0.,-20.0000002980232,18.));
#1464=CARTESIAN_POINT('',(-2.5,-20.0000002980232,0.));
#1465=CARTESIAN_POINT('',(-2.5,-20.0000002980232,0.));
#1466=CARTESIAN_POINT('Origin',(0.,-20.0000002980232,0.));
#1467=CARTESIAN_POINT('Origin',(0.,-20.0000002980232,18.));
#1468=CARTESIAN_POINT('Origin',(0.,-20.0000002980232,0.));
#1469=CARTESIAN_POINT('Origin',(6.00000008940697,-27.0000004023314,0.));
#1470=CARTESIAN_POINT('',(4.50000008940697,-27.0000004023314,18.));
#1471=CARTESIAN_POINT('Origin',(6.00000008940697,-27.0000004023314,18.));
#1472=CARTESIAN_POINT('',(4.50000008940697,-27.0000004023314,0.));
#1473=CARTESIAN_POINT('',(4.50000008940697,-27.0000004023314,0.));
#1474=CARTESIAN_POINT('Origin',(6.00000008940697,-27.0000004023314,0.));
#1475=CARTESIAN_POINT('Origin',(6.00000008940697,-27.0000004023314,18.));
#1476=CARTESIAN_POINT('Origin',(6.00000008940697,-27.0000004023314,0.));
#1477=CARTESIAN_POINT('Origin',(11.0000001639128,-37.000000551343,0.));
#1478=CARTESIAN_POINT('',(9.25000016391277,-37.000000551343,3.));
#1479=CARTESIAN_POINT('Origin',(11.0000001639128,-37.000000551343,3.));
#1480=CARTESIAN_POINT('',(9.25000016391277,-37.000000551343,0.));
#1481=CARTESIAN_POINT('',(9.25000016391277,-37.000000551343,0.));
#1482=CARTESIAN_POINT('Origin',(11.0000001639128,-37.000000551343,0.));
#1483=CARTESIAN_POINT('Origin',(11.0000001639128,-37.000000551343,0.));
#1484=CARTESIAN_POINT('',(8.00000016391277,-37.000000551343,3.));
#1485=CARTESIAN_POINT('Origin',(11.0000001639128,-37.000000551343,3.));
#1486=CARTESIAN_POINT('',(8.00000016391277,-37.000000551343,0.));
#1487=CARTESIAN_POINT('',(8.00000016391277,-37.000000551343,0.));
#1488=CARTESIAN_POINT('Origin',(11.0000001639128,-37.000000551343,0.));
#1489=CARTESIAN_POINT('Origin',(11.0000001639128,-37.000000551343,3.));
#1490=CARTESIAN_POINT('Origin',(11.0000001639128,-37.000000551343,0.));
#1491=CARTESIAN_POINT('Origin',(0.,-48.0000002980232,0.));
#1492=CARTESIAN_POINT('',(-2.75,-48.0000002980232,3.));
#1493=CARTESIAN_POINT('Origin',(0.,-48.0000002980232,3.));
#1494=CARTESIAN_POINT('',(-2.75,-48.0000002980232,0.));
#1495=CARTESIAN_POINT('',(-2.75,-48.0000002980232,0.));
#1496=CARTESIAN_POINT('Origin',(0.,-48.0000002980232,0.));
#1497=CARTESIAN_POINT('Origin',(0.,-48.0000002980232,0.));
#1498=CARTESIAN_POINT('',(-4.,-48.0000002980232,3.));
#1499=CARTESIAN_POINT('Origin',(0.,-48.0000002980232,3.));
#1500=CARTESIAN_POINT('',(-4.,-48.0000002980232,0.));
#1501=CARTESIAN_POINT('',(-4.,-48.0000002980232,0.));
#1502=CARTESIAN_POINT('Origin',(0.,-48.0000002980232,0.));
#1503=CARTESIAN_POINT('Origin',(0.,-48.0000002980232,3.));
#1504=CARTESIAN_POINT('Origin',(0.,-48.0000002980232,0.));
#1505=CARTESIAN_POINT('Origin',(0.,-37.0000002980232,0.));
#1506=CARTESIAN_POINT('',(-2.75,-37.0000002980232,3.));
#1507=CARTESIAN_POINT('Origin',(0.,-37.0000002980232,3.));
#1508=CARTESIAN_POINT('',(-2.75,-37.0000002980232,0.));
#1509=CARTESIAN_POINT('',(-2.75,-37.0000002980232,0.));
#1510=CARTESIAN_POINT('Origin',(0.,-37.0000002980232,0.));
#1511=CARTESIAN_POINT('Origin',(0.,-37.0000002980232,0.));
#1512=CARTESIAN_POINT('',(-4.,-37.0000002980232,3.));
#1513=CARTESIAN_POINT('Origin',(0.,-37.0000002980232,3.));
#1514=CARTESIAN_POINT('',(-4.,-37.0000002980232,0.));
#1515=CARTESIAN_POINT('',(-4.,-37.0000002980232,0.));
#1516=CARTESIAN_POINT('Origin',(0.,-37.0000002980232,0.));
#1517=CARTESIAN_POINT('Origin',(0.,-37.0000002980232,3.));
#1518=CARTESIAN_POINT('Origin',(0.,-37.0000002980232,0.));
#1519=CARTESIAN_POINT('Origin',(11.0000001639128,-47.0000007003546,0.));
#1520=CARTESIAN_POINT('',(9.25000016391277,-47.0000007003546,3.));
#1521=CARTESIAN_POINT('Origin',(11.0000001639128,-47.0000007003546,3.));
#1522=CARTESIAN_POINT('',(9.25000016391277,-47.0000007003546,0.));
#1523=CARTESIAN_POINT('',(9.25000016391277,-47.0000007003546,0.));
#1524=CARTESIAN_POINT('Origin',(11.0000001639128,-47.0000007003546,0.));
#1525=CARTESIAN_POINT('Origin',(11.0000001639128,-47.0000007003546,0.));
#1526=CARTESIAN_POINT('',(8.00000016391277,-47.0000007003546,3.));
#1527=CARTESIAN_POINT('Origin',(11.0000001639128,-47.0000007003546,3.));
#1528=CARTESIAN_POINT('',(8.00000016391277,-47.0000007003546,0.));
#1529=CARTESIAN_POINT('',(8.00000016391277,-47.0000007003546,0.));
#1530=CARTESIAN_POINT('Origin',(11.0000001639128,-47.0000007003546,0.));
#1531=CARTESIAN_POINT('Origin',(11.0000001639128,-47.0000007003546,3.));
#1532=CARTESIAN_POINT('Origin',(11.0000001639128,-47.0000007003546,0.));
#1533=UNCERTAINTY_MEASURE_WITH_UNIT(LENGTH_MEASURE(0.01),#1537,
'DISTANCE_ACCURACY_VALUE',
'Maximum model space distance between geometric entities at asserted c
onnectivities');
#1534=UNCERTAINTY_MEASURE_WITH_UNIT(LENGTH_MEASURE(0.01),#1537,
'DISTANCE_ACCURACY_VALUE',
'Maximum model space distance between geometric entities at asserted c
onnectivities');
#1535=(
GEOMETRIC_REPRESENTATION_CONTEXT(3)
GLOBAL_UNCERTAINTY_ASSIGNED_CONTEXT((#1533))
GLOBAL_UNIT_ASSIGNED_CONTEXT((#1537,#1539,#1540))
REPRESENTATION_CONTEXT('','3D')
);
#1536=(
GEOMETRIC_REPRESENTATION_CONTEXT(3)
GLOBAL_UNCERTAINTY_ASSIGNED_CONTEXT((#1534))
GLOBAL_UNIT_ASSIGNED_CONTEXT((#1537,#1539,#1540))
REPRESENTATION_CONTEXT('','3D')
);
#1537=(
LENGTH_UNIT()
NAMED_UNIT(*)
SI_UNIT(.MILLI.,.METRE.)
);
#1538=(
LENGTH_UNIT()
NAMED_UNIT(*)
SI_UNIT($,.METRE.)
);
#1539=(
NAMED_UNIT(*)
PLANE_ANGLE_UNIT()
SI_UNIT($,.RADIAN.)
);
#1540=(
NAMED_UNIT(*)
SI_UNIT($,.STERADIAN.)
SOLID_ANGLE_UNIT()
);
#1541=SHAPE_DEFINITION_REPRESENTATION(#1542,#1543);
#1542=PRODUCT_DEFINITION_SHAPE('',$,#1545);
#1543=SHAPE_REPRESENTATION('',(#921),#1535);
#1544=PRODUCT_DEFINITION_CONTEXT('part definition',#1549,'design');
#1545=PRODUCT_DEFINITION('2026-07-21-14-07-24-724',
'Steering_Mech_V2 v3',#1546,#1544);
#1546=PRODUCT_DEFINITION_FORMATION('',$,#1551);
#1547=PRODUCT_RELATED_PRODUCT_CATEGORY('Steering_Mech_V2 v3',
'Steering_Mech_V2 v3',(#1551));
#1548=APPLICATION_PROTOCOL_DEFINITION('international standard',
'automotive_design',2009,#1549);
#1549=APPLICATION_CONTEXT(
'Core Data for Automotive Mechanical Design Process');
#1550=PRODUCT_CONTEXT('part definition',#1549,'mechanical');
#1551=PRODUCT('2026-07-21-14-07-24-724','Steering_Mech_V2 v3',$,(#1550));
#1552=PRESENTATION_STYLE_ASSIGNMENT((#1553));
#1553=SURFACE_STYLE_USAGE(.BOTH.,#1554);
#1554=SURFACE_SIDE_STYLE('',(#1555));
#1555=SURFACE_STYLE_FILL_AREA(#1556);
#1556=FILL_AREA_STYLE('Steel - Satin',(#1557));
#1557=FILL_AREA_STYLE_COLOUR('Steel - Satin',#1558);
#1558=COLOUR_RGB('Steel - Satin',0.627450980392157,0.627450980392157,0.627450980392157);
ENDSEC;
END-ISO-10303-21;
