G04*
G04 #@! TF.GenerationSoftware,Altium Limited,Altium Designer,25.8.1 (18)*
G04*
G04 Layer_Color=2752767*
%FSLAX44Y44*%
%MOMM*%
G71*
G04*
G04 #@! TF.SameCoordinates,7DF7E9D0-5C5A-48D3-858C-9FB4A562FECE*
G04*
G04*
G04 #@! TF.FilePolarity,Positive*
G04*
G01*
G75*
%ADD12C,0.1270*%
%ADD63C,0.1693*%
D12*
X622300Y853440D02*
Y863600D01*
X632460D01*
Y853440D01*
X622300D01*
X1027430Y670560D02*
Y680720D01*
X1037590D01*
Y670560D01*
X1027430D01*
X952500Y624240D02*
Y634400D01*
X962660D01*
Y624240D01*
X952500D01*
X800100D02*
Y634400D01*
X810260D01*
Y624240D01*
X800100D01*
X546100D02*
Y634400D01*
X556260D01*
Y624240D01*
X546100D01*
X520700D02*
Y634400D01*
X530860D01*
Y624240D01*
X520700D01*
X495300D02*
Y634400D01*
X505460D01*
Y624240D01*
X495300D01*
X469900D02*
Y634400D01*
X480060D01*
Y624240D01*
X469900D01*
X687070Y956310D02*
Y966470D01*
X697230D01*
Y956310D01*
X687070D01*
X589280Y334010D02*
X591820Y336550D01*
X594360D01*
X591820Y339090D01*
X594360Y341630D01*
X591820D01*
X589280Y344170D01*
X586740Y341630D01*
X584200D01*
X586740Y339090D01*
X584200Y336550D01*
X586740D01*
X589280Y334010D01*
X1101090Y502920D02*
Y513080D01*
X1111250D01*
Y502920D01*
X1101090D01*
X695250Y327660D02*
X697790Y330200D01*
X700330D01*
X697790Y332740D01*
X700330Y335280D01*
X697790D01*
X695250Y337820D01*
X692710Y335280D01*
X690170D01*
X692710Y332740D01*
X690170Y330200D01*
X692710D01*
X695250Y327660D01*
X539280Y334010D02*
X541820Y336550D01*
X544360D01*
X541820Y339090D01*
X544360Y341630D01*
X541820D01*
X539280Y344170D01*
X536740Y341630D01*
X534200D01*
X536740Y339090D01*
X534200Y336550D01*
X536740D01*
X539280Y334010D01*
X730250Y327660D02*
X732790Y330200D01*
X735330D01*
X732790Y332740D01*
X735330Y335280D01*
X732790D01*
X730250Y337820D01*
X727710Y335280D01*
X725170D01*
X727710Y332740D01*
X725170Y330200D01*
X727710D01*
X730250Y327660D01*
X1027430Y645160D02*
Y655320D01*
X1037590D01*
Y645160D01*
X1027430D01*
Y822960D02*
Y833120D01*
X1037590D01*
Y822960D01*
X1027430D01*
Y797560D02*
Y807720D01*
X1037590D01*
Y797560D01*
X1027430D01*
Y721360D02*
Y731520D01*
X1037590D01*
Y721360D01*
X1027430D01*
Y772160D02*
Y782320D01*
X1037590D01*
Y772160D01*
X1027430D01*
Y746760D02*
Y756920D01*
X1037590D01*
Y746760D01*
X1027430D01*
Y695960D02*
Y706120D01*
X1037590D01*
Y695960D01*
X1027430D01*
X770890Y951230D02*
Y961390D01*
X781050D01*
Y951230D01*
X770890D01*
X821690D02*
Y961390D01*
X831850D01*
Y951230D01*
X821690D01*
X872490D02*
Y961390D01*
X882650D01*
Y951230D01*
X872490D01*
X847090D02*
Y961390D01*
X857250D01*
Y951230D01*
X847090D01*
X796290D02*
Y961390D01*
X806450D01*
Y951230D01*
X796290D01*
X687070Y930910D02*
Y941070D01*
X697230D01*
Y930910D01*
X687070D01*
X952500Y853440D02*
Y863600D01*
X962660D01*
Y853440D01*
X952500D01*
X927100D02*
Y863600D01*
X937260D01*
Y853440D01*
X927100D01*
X901700D02*
Y863600D01*
X911860D01*
Y853440D01*
X901700D01*
X876300D02*
Y863600D01*
X886460D01*
Y853440D01*
X876300D01*
X850900D02*
Y863600D01*
X861060D01*
Y853440D01*
X850900D01*
X825500D02*
Y863600D01*
X835660D01*
Y853440D01*
X825500D01*
X800100D02*
Y863600D01*
X810260D01*
Y853440D01*
X800100D01*
X749300D02*
Y863600D01*
X759460D01*
Y853440D01*
X749300D01*
X723900D02*
Y863600D01*
X734060D01*
Y853440D01*
X723900D01*
X698500D02*
Y863600D01*
X708660D01*
Y853440D01*
X698500D01*
X673100D02*
Y863600D01*
X683260D01*
Y853440D01*
X673100D01*
X596900D02*
Y863600D01*
X607060D01*
Y853440D01*
X596900D01*
X571500D02*
Y863600D01*
X581660D01*
Y853440D01*
X571500D01*
X546100D02*
Y863600D01*
X556260D01*
Y853440D01*
X546100D01*
X520700D02*
Y863600D01*
X530860D01*
Y853440D01*
X520700D01*
X495300D02*
Y863600D01*
X505460D01*
Y853440D01*
X495300D01*
X469900D02*
Y863600D01*
X480060D01*
Y853440D01*
X469900D01*
X647700D02*
Y863600D01*
X657860D01*
Y853440D01*
X647700D01*
X774700D02*
Y863600D01*
X784860D01*
Y853440D01*
X774700D01*
X1101090Y477520D02*
Y487680D01*
X1111250D01*
Y477520D01*
X1101090D01*
X901700Y624240D02*
Y634400D01*
X911860D01*
Y624240D01*
X901700D01*
X309330Y486410D02*
X311870Y488950D01*
X314410D01*
X311870Y491490D01*
X314410Y494030D01*
X311870D01*
X309330Y496570D01*
X306790Y494030D01*
X304250D01*
X306790Y491490D01*
X304250Y488950D01*
X306790D01*
X309330Y486410D01*
X399330D02*
X401870Y488950D01*
X404410D01*
X401870Y491490D01*
X404410Y494030D01*
X401870D01*
X399330Y496570D01*
X396790Y494030D01*
X394250D01*
X396790Y491490D01*
X394250Y488950D01*
X396790D01*
X399330Y486410D01*
X749300Y624240D02*
Y634400D01*
X759460D01*
Y624240D01*
X749300D01*
X596900D02*
Y634400D01*
X607060D01*
Y624240D01*
X596900D01*
X927100D02*
Y634400D01*
X937260D01*
Y624240D01*
X927100D01*
X647700D02*
Y634400D01*
X657860D01*
Y624240D01*
X647700D01*
X723900D02*
Y634400D01*
X734060D01*
Y624240D01*
X723900D01*
X1158240Y749300D02*
X1153160Y759460D01*
X1163320D01*
X1158240Y749300D01*
X876300Y624240D02*
Y634400D01*
X886460D01*
Y624240D01*
X876300D01*
X850900D02*
Y634400D01*
X861060D01*
Y624240D01*
X850900D01*
X698500D02*
Y634400D01*
X708660D01*
Y624240D01*
X698500D01*
X673100D02*
Y634400D01*
X683260D01*
Y624240D01*
X673100D01*
X622300D02*
Y634400D01*
X632460D01*
Y624240D01*
X622300D01*
X571500D02*
Y634400D01*
X581660D01*
Y624240D01*
X571500D01*
X825500D02*
Y634400D01*
X835660D01*
Y624240D01*
X825500D01*
X774700D02*
Y634400D01*
X784860D01*
Y624240D01*
X774700D01*
X396790Y674370D02*
X399330Y676910D01*
X401870D01*
X399330Y679450D01*
X401870Y681990D01*
X399330D01*
X396790Y684530D01*
X394250Y681990D01*
X391710D01*
X394250Y679450D01*
X391710Y676910D01*
X394250D01*
X396790Y674370D01*
X1101090Y426720D02*
Y436880D01*
X1111250D01*
Y426720D01*
X1101090D01*
X390440Y872490D02*
X392980Y875030D01*
X395520D01*
X392980Y877570D01*
X395520Y880110D01*
X392980D01*
X390440Y882650D01*
X387900Y880110D01*
X385360D01*
X387900Y877570D01*
X385360Y875030D01*
X387900D01*
X390440Y872490D01*
X1101090Y452120D02*
Y462280D01*
X1111250D01*
Y452120D01*
X1101090D01*
Y401320D02*
Y411480D01*
X1111250D01*
Y401320D01*
X1101090D01*
X306790Y674370D02*
X309330Y676910D01*
X311870D01*
X309330Y679450D01*
X311870Y681990D01*
X309330D01*
X306790Y684530D01*
X304250Y681990D01*
X301710D01*
X304250Y679450D01*
X301710Y676910D01*
X304250D01*
X306790Y674370D01*
X300440Y872490D02*
X302980Y875030D01*
X305520D01*
X302980Y877570D01*
X305520Y880110D01*
X302980D01*
X300440Y882650D01*
X297900Y880110D01*
X295360D01*
X297900Y877570D01*
X295360Y875030D01*
X297900D01*
X300440Y872490D01*
X1183640Y749300D02*
X1178560Y759460D01*
X1188720D01*
X1183640Y749300D01*
X1132840D02*
X1127760Y759460D01*
X1137920D01*
X1132840Y749300D01*
X950567Y353282D02*
X945487Y363442D01*
X955647D01*
X950567Y353282D01*
X609600Y930910D02*
X604520Y941070D01*
X614680D01*
X609600Y930910D01*
X1201420Y684530D02*
X1196340Y694690D01*
X1206500D01*
X1201420Y684530D01*
X538480Y881380D02*
X533400Y891540D01*
X543560D01*
X538480Y881380D01*
X948690Y295910D02*
X943610Y306070D01*
X953770D01*
X948690Y295910D01*
X1092160Y796290D02*
X1094700Y801370D01*
X1092160Y806450D01*
X1097240Y803910D01*
X1102320Y806450D01*
X1099780Y801370D01*
X1102320Y796290D01*
X1097240Y798830D01*
X1092160Y796290D01*
X601980Y883920D02*
X604520Y889000D01*
X601980Y894080D01*
X607060Y891540D01*
X612140Y894080D01*
X609600Y889000D01*
X612140Y883920D01*
X607060Y886460D01*
X601980Y883920D01*
X681990Y422910D02*
X684530Y427990D01*
X681990Y433070D01*
X687070Y430530D01*
X692150Y433070D01*
X689610Y427990D01*
X692150Y422910D01*
X687070Y425450D01*
X681990Y422910D01*
X629920Y406400D02*
X632460Y411480D01*
X629920Y416560D01*
X635000Y414020D01*
X640080Y416560D01*
X637540Y411480D01*
X640080Y406400D01*
X635000Y408940D01*
X629920Y406400D01*
X557530Y429260D02*
X560070Y434340D01*
X557530Y439420D01*
X562610Y436880D01*
X567690Y439420D01*
X565150Y434340D01*
X567690Y429260D01*
X562610Y431800D01*
X557530Y429260D01*
X631190Y810260D02*
X633730Y815340D01*
X631190Y820420D01*
X636270Y817880D01*
X641350Y820420D01*
X638810Y815340D01*
X641350Y810260D01*
X636270Y812800D01*
X631190Y810260D01*
X1061720Y631190D02*
X1064260Y636270D01*
X1061720Y641350D01*
X1066800Y638810D01*
X1071880Y641350D01*
X1069340Y636270D01*
X1071880Y631190D01*
X1066800Y633730D01*
X1061720Y631190D01*
X829310Y695960D02*
X831850Y701040D01*
X829310Y706120D01*
X834390Y703580D01*
X839470Y706120D01*
X836930Y701040D01*
X839470Y695960D01*
X834390Y698500D01*
X829310Y695960D01*
X873760Y700663D02*
X876300Y705743D01*
X873760Y710823D01*
X878840Y708283D01*
X883920Y710823D01*
X881380Y705743D01*
X883920Y700663D01*
X878840Y703203D01*
X873760Y700663D01*
X524510Y715010D02*
X527050Y720090D01*
X524510Y725170D01*
X529590Y722630D01*
X534670Y725170D01*
X532130Y720090D01*
X534670Y715010D01*
X529590Y717550D01*
X524510Y715010D01*
X579120Y716280D02*
X581660Y721360D01*
X579120Y726440D01*
X584200Y723900D01*
X589280Y726440D01*
X586740Y721360D01*
X589280Y716280D01*
X584200Y718820D01*
X579120Y716280D01*
X501650Y728980D02*
X504190Y734060D01*
X501650Y739140D01*
X506730Y736600D01*
X511810Y739140D01*
X509270Y734060D01*
X511810Y728980D01*
X506730Y731520D01*
X501650Y728980D01*
X716280Y662940D02*
X718820Y668020D01*
X716280Y673100D01*
X721360Y670560D01*
X726440Y673100D01*
X723900Y668020D01*
X726440Y662940D01*
X721360Y665480D01*
X716280Y662940D01*
X899160Y690273D02*
X901700Y695353D01*
X899160Y700433D01*
X904240Y697893D01*
X909320Y700433D01*
X906780Y695353D01*
X909320Y690273D01*
X904240Y692813D01*
X899160Y690273D01*
D63*
X387270Y402950D02*
G03*
X387270Y402950I-5080J0D01*
G01*
X385250Y582930D02*
G03*
X385250Y582930I-5080J0D01*
G01*
X386000Y770530D02*
G03*
X386000Y770530I-5080J0D01*
G01*
X906460Y330200D02*
G03*
X906460Y330200I-5080J0D01*
G01*
X382500Y793030D02*
G03*
X382500Y793030I-5080J0D01*
G01*
X381750Y605430D02*
G03*
X381750Y605430I-5080J0D01*
G01*
X383770Y425450D02*
G03*
X383770Y425450I-5080J0D01*
G01*
X351270Y438950D02*
G03*
X351270Y438950I-5080J0D01*
G01*
X318770Y425450D02*
G03*
X318770Y425450I-5080J0D01*
G01*
Y380450D02*
G03*
X318770Y380450I-5080J0D01*
G01*
X383770D02*
G03*
X383770Y380450I-5080J0D01*
G01*
X382500Y748030D02*
G03*
X382500Y748030I-5080J0D01*
G01*
X381750Y560430D02*
G03*
X381750Y560430I-5080J0D01*
G01*
X886460Y330200D02*
G03*
X886460Y330200I-5080J0D01*
G01*
X317500Y748030D02*
G03*
X317500Y748030I-5080J0D01*
G01*
Y793030D02*
G03*
X317500Y793030I-5080J0D01*
G01*
X350000Y806530D02*
G03*
X350000Y806530I-5080J0D01*
G01*
X316750Y560430D02*
G03*
X316750Y560430I-5080J0D01*
G01*
Y605430D02*
G03*
X316750Y605430I-5080J0D01*
G01*
X349250Y618930D02*
G03*
X349250Y618930I-5080J0D01*
G01*
M02*
