G04*
G04 #@! TF.GenerationSoftware,Altium Limited,Altium Designer,25.8.1 (18)*
G04*
G04 Layer_Color=32768*
%FSLAX44Y44*%
%MOMM*%
G71*
G04*
G04 #@! TF.SameCoordinates,7DF7E9D0-5C5A-48D3-858C-9FB4A562FECE*
G04*
G04*
G04 #@! TF.FilePolarity,Positive*
G04*
G01*
G75*
%ADD47C,0.1000*%
%ADD62C,0.0500*%
G36*
X1211240Y738880D02*
X1105240D01*
Y769880D01*
X1211240D01*
Y738880D01*
D02*
G37*
D47*
X1112640Y871800D02*
Y880800D01*
X1108140Y876300D02*
X1117140D01*
X557530Y901010D02*
Y910010D01*
X553030Y905510D02*
X562030D01*
X476250Y909900D02*
Y918900D01*
X471750Y914400D02*
X480750D01*
X349330Y491490D02*
X359330D01*
X354330Y486490D02*
Y496490D01*
X351790Y674450D02*
Y684450D01*
X346790Y679450D02*
X356790D01*
X345440Y872570D02*
Y882570D01*
X340440Y877570D02*
X350440D01*
X1117640Y922020D02*
X1122640D01*
X1120140Y919520D02*
Y924520D01*
X891380Y319700D02*
Y329700D01*
X886380Y324700D02*
X896380D01*
D62*
X616780Y339090D02*
G03*
X616780Y339090I-52500J0D01*
G01*
X758500Y332740D02*
G03*
X758500Y332740I-45750J0D01*
G01*
X717060Y432380D02*
Y504880D01*
X751060D01*
Y432380D02*
Y504880D01*
X717060Y432380D02*
X751060D01*
X593550Y426040D02*
Y483460D01*
X578300D02*
X593550D01*
X578300D02*
Y596890D01*
X691700D01*
Y483460D02*
Y596890D01*
X676450Y483460D02*
X691700D01*
X676450Y426040D02*
Y483460D01*
X593550Y426040D02*
X676450D01*
X1096140Y866300D02*
X1129140D01*
X1096140Y886300D02*
X1129140D01*
Y866300D02*
Y886300D01*
X1096140Y866300D02*
Y886300D01*
X1047060Y632490D02*
Y845790D01*
X1017960D02*
X1047060D01*
X1017960Y632490D02*
Y845790D01*
Y632490D02*
X1047060D01*
X758220Y970860D02*
X895320D01*
X758220Y941760D02*
Y970860D01*
Y941760D02*
X895320D01*
Y970860D01*
X706700Y918240D02*
Y979140D01*
X677600D02*
X706700D01*
X677600Y918240D02*
Y979140D01*
Y918240D02*
X706700D01*
X544030Y898010D02*
X571030D01*
X544030Y913010D02*
X571030D01*
Y898010D02*
Y913010D01*
X544030Y898010D02*
Y913010D01*
X975330Y843970D02*
Y873070D01*
X457230D02*
X975330D01*
X457230Y843970D02*
Y873070D01*
Y843970D02*
X975330D01*
X462750Y906900D02*
X489750D01*
X462750Y921900D02*
X489750D01*
Y906900D02*
Y921900D01*
X462750Y906900D02*
Y921900D01*
X407080Y478490D02*
Y504490D01*
X301580D02*
X407080D01*
X301580Y478490D02*
X407080D01*
X301580D02*
Y504490D01*
X975330Y614770D02*
Y643870D01*
X457230D02*
X975330D01*
X457230Y614770D02*
Y643870D01*
Y614770D02*
X975330D01*
X299040Y666450D02*
Y692450D01*
Y666450D02*
X404540D01*
X299040Y692450D02*
X404540D01*
Y666450D02*
Y692450D01*
X292690Y864570D02*
Y890570D01*
Y864570D02*
X398190D01*
X292690Y890570D02*
X398190D01*
Y864570D02*
Y890570D01*
X1115140Y910770D02*
X1125140D01*
X1115140D02*
Y933270D01*
X1125140D01*
Y910770D02*
Y933270D01*
X860880Y301200D02*
X921880D01*
Y348200D01*
X860880Y301200D02*
Y348200D01*
X921880D01*
X1091620Y525750D02*
X1120720D01*
Y388650D02*
Y525750D01*
X1091620Y388650D02*
X1120720D01*
X1091620D02*
Y525750D01*
M02*
