M48
;Layer_Color=9474304
;FILE_FORMAT=4:4
METRIC,LZ
;TYPE=PLATED
T01F00S00C0.7112
T02F00S00C0.8000
T03F00S00C0.8500
T04F00S00C1.0000
T05F00S00C1.0200
%
T01
X0083439Y0070104
X0087884Y00705743
X0090424Y00695353
X010668Y0063627
X0072136Y0066802
X005842Y0072136
X0052959Y0072009
X0050673Y0073406
X0056261Y0043434
X00635Y0041148
X0068707Y0042799
X0063627Y0081534
X0060706Y00889
X0109724Y0080137
T02
X0094869Y0030099
X00950567Y00358362
X0120142Y0068961
X0118364Y0075438
X0115824
X0113284
X006096Y0093599
X0053848Y0088646
T03
X0053928Y0033909
X0058928
X0069525Y0033274
X0073025
X0039933Y0049149
X0030933
X0030679Y0067945
X0039679
X0039044Y0087757
X0030044
T04
X0031369Y0038045
X0037869
X0088138Y003302
X0090138
X0038219Y0040295
X0037869Y0042545
X0034619Y0043895
X0031369Y0042545
X0031167Y0056043
Y0060543
X0034417Y0061893
X0037667Y0060543
X0038017Y0058293
X0037667Y0056043
X0037742Y0074803
X0038092Y0077053
X0037742Y0079303
X0031242
Y0074803
X0034492Y0080653
T05
X0080518Y0062932
X0083058
X0085598
X0088138
X0090678
X0093218
X0095758
X0103251Y0065024
Y0067564
Y0070104
Y0072644
Y0075184
Y0077724
X0110617Y00508
Y004826
Y004572
Y004318
Y004064
X0077978Y0062932
X0075438
X0072898
X0070358
X0067818
X0065278
X0062738
X0060198
X0057658
X0055118
X0052578
X0050038
X0047498
Y0085852
X0050038
X0052578
X0055118
X0057658
X0060198
X0062738
X0065278
X0067818
X0070358
X0072898
X0075438
X0077978
X0077597Y0095631
X0069215Y0096139
Y0093599
X0080137Y0095631
X0082677
X0085217
X0087757
X0088138Y0085852
X0090678
X0093218
X0095758
X0085598
X0083058
X0080518
X0103251Y0082804
Y0080264
M30
