G04*
G04 #@! TF.GenerationSoftware,Altium Limited,Altium Designer,25.8.1 (18)*
G04*
G04 Layer_Color=128*
%FSLAX44Y44*%
%MOMM*%
G71*
G04*
G04 #@! TF.SameCoordinates,7DF7E9D0-5C5A-48D3-858C-9FB4A562FECE*
G04*
G04*
G04 #@! TF.FilePolarity,Positive*
G04*
G01*
G75*
%ADD12C,0.1270*%
D12*
X622280Y858520D02*
X632480D01*
X627380Y853420D02*
Y863620D01*
X377190Y402950D02*
X387190D01*
X382190Y397950D02*
Y407950D01*
X375170Y582930D02*
X385170D01*
X380170Y577930D02*
Y587930D01*
X375920Y770530D02*
X385920D01*
X380920Y765530D02*
Y775530D01*
X1027410Y675640D02*
X1037610D01*
X1032510Y670540D02*
Y680740D01*
X896380Y330200D02*
X906380D01*
X901380Y325200D02*
Y335200D01*
X952480Y629320D02*
X962680D01*
X957580Y624220D02*
Y634420D01*
X800080Y629320D02*
X810280D01*
X805180Y624220D02*
Y634420D01*
X546080Y629320D02*
X556280D01*
X551180Y624220D02*
Y634420D01*
X520680Y629320D02*
X530880D01*
X525780Y624220D02*
Y634420D01*
X495280Y629320D02*
X505480D01*
X500380Y624220D02*
Y634420D01*
X469880Y629320D02*
X480080D01*
X474980Y624220D02*
Y634420D01*
X687050Y961390D02*
X697250D01*
X692150Y956290D02*
Y966490D01*
X372420Y793030D02*
X382420D01*
X377420Y788030D02*
Y798030D01*
X371670Y605430D02*
X381670D01*
X376670Y600430D02*
Y610430D01*
X585030Y339090D02*
X593530D01*
X589280Y334840D02*
Y343340D01*
X373690Y425450D02*
X383690D01*
X378690Y420450D02*
Y430450D01*
X1101070Y508000D02*
X1111270D01*
X1106170Y502900D02*
Y513100D01*
X691000Y332740D02*
X699500D01*
X695250Y328490D02*
Y336990D01*
X341190Y438950D02*
X351190D01*
X346190Y433950D02*
Y443950D01*
X308690Y425450D02*
X318690D01*
X313690Y420450D02*
Y430450D01*
X308690Y380450D02*
X318690D01*
X313690Y375450D02*
Y385450D01*
X373690Y380450D02*
X383690D01*
X378690Y375450D02*
Y385450D01*
X535030Y339090D02*
X543530D01*
X539280Y334840D02*
Y343340D01*
X726000Y332740D02*
X734500D01*
X730250Y328490D02*
Y336990D01*
X1027410Y650240D02*
X1037610D01*
X1032510Y645140D02*
Y655340D01*
X1027410Y828040D02*
X1037610D01*
X1032510Y822940D02*
Y833140D01*
X1027410Y802640D02*
X1037610D01*
X1032510Y797540D02*
Y807740D01*
X1027410Y726440D02*
X1037610D01*
X1032510Y721340D02*
Y731540D01*
X1027410Y777240D02*
X1037610D01*
X1032510Y772140D02*
Y782340D01*
X1027410Y751840D02*
X1037610D01*
X1032510Y746740D02*
Y756940D01*
X1027410Y701040D02*
X1037610D01*
X1032510Y695940D02*
Y706140D01*
X770870Y956310D02*
X781070D01*
X775970Y951210D02*
Y961410D01*
X821670Y956310D02*
X831870D01*
X826770Y951210D02*
Y961410D01*
X872470Y956310D02*
X882670D01*
X877570Y951210D02*
Y961410D01*
X847070Y956310D02*
X857270D01*
X852170Y951210D02*
Y961410D01*
X796270Y956310D02*
X806470D01*
X801370Y951210D02*
Y961410D01*
X687050Y935990D02*
X697250D01*
X692150Y930890D02*
Y941090D01*
X952480Y858520D02*
X962680D01*
X957580Y853420D02*
Y863620D01*
X927080Y858520D02*
X937280D01*
X932180Y853420D02*
Y863620D01*
X901680Y858520D02*
X911880D01*
X906780Y853420D02*
Y863620D01*
X876280Y858520D02*
X886480D01*
X881380Y853420D02*
Y863620D01*
X850880Y858520D02*
X861080D01*
X855980Y853420D02*
Y863620D01*
X825480Y858520D02*
X835680D01*
X830580Y853420D02*
Y863620D01*
X800080Y858520D02*
X810280D01*
X805180Y853420D02*
Y863620D01*
X749280Y858520D02*
X759480D01*
X754380Y853420D02*
Y863620D01*
X723880Y858520D02*
X734080D01*
X728980Y853420D02*
Y863620D01*
X698480Y858520D02*
X708680D01*
X703580Y853420D02*
Y863620D01*
X673080Y858520D02*
X683280D01*
X678180Y853420D02*
Y863620D01*
X596880Y858520D02*
X607080D01*
X601980Y853420D02*
Y863620D01*
X571480Y858520D02*
X581680D01*
X576580Y853420D02*
Y863620D01*
X546080Y858520D02*
X556280D01*
X551180Y853420D02*
Y863620D01*
X520680Y858520D02*
X530880D01*
X525780Y853420D02*
Y863620D01*
X495280Y858520D02*
X505480D01*
X500380Y853420D02*
Y863620D01*
X469880Y858520D02*
X480080D01*
X474980Y853420D02*
Y863620D01*
X647680Y858520D02*
X657880D01*
X652780Y853420D02*
Y863620D01*
X774680Y858520D02*
X784880D01*
X779780Y853420D02*
Y863620D01*
X1101070Y482600D02*
X1111270D01*
X1106170Y477500D02*
Y487700D01*
X901680Y629320D02*
X911880D01*
X906780Y624220D02*
Y634420D01*
X305080Y491490D02*
X313580D01*
X309330Y487240D02*
Y495740D01*
X395080Y491490D02*
X403580D01*
X399330Y487240D02*
Y495740D01*
X749280Y629320D02*
X759480D01*
X754380Y624220D02*
Y634420D01*
X596880Y629320D02*
X607080D01*
X601980Y624220D02*
Y634420D01*
X927080Y629320D02*
X937280D01*
X932180Y624220D02*
Y634420D01*
X647680Y629320D02*
X657880D01*
X652780Y624220D02*
Y634420D01*
X723880Y629320D02*
X734080D01*
X728980Y624220D02*
Y634420D01*
X1154240Y754380D02*
X1162240D01*
X1158240Y750380D02*
Y758380D01*
X876280Y629320D02*
X886480D01*
X881380Y624220D02*
Y634420D01*
X850880Y629320D02*
X861080D01*
X855980Y624220D02*
Y634420D01*
X698480Y629320D02*
X708680D01*
X703580Y624220D02*
Y634420D01*
X673080Y629320D02*
X683280D01*
X678180Y624220D02*
Y634420D01*
X622280Y629320D02*
X632480D01*
X627380Y624220D02*
Y634420D01*
X571480Y629320D02*
X581680D01*
X576580Y624220D02*
Y634420D01*
X825480Y629320D02*
X835680D01*
X830580Y624220D02*
Y634420D01*
X774680Y629320D02*
X784880D01*
X779780Y624220D02*
Y634420D01*
X392540Y679450D02*
X401040D01*
X396790Y675200D02*
Y683700D01*
X1101070Y431800D02*
X1111270D01*
X1106170Y426700D02*
Y436900D01*
X386190Y877570D02*
X394690D01*
X390440Y873320D02*
Y881820D01*
X1101070Y457200D02*
X1111270D01*
X1106170Y452100D02*
Y462300D01*
X1101070Y406400D02*
X1111270D01*
X1106170Y401300D02*
Y411500D01*
X372420Y748030D02*
X382420D01*
X377420Y743030D02*
Y753030D01*
X371670Y560430D02*
X381670D01*
X376670Y555430D02*
Y565430D01*
X302540Y679450D02*
X311040D01*
X306790Y675200D02*
Y683700D01*
X296190Y877570D02*
X304690D01*
X300440Y873320D02*
Y881820D01*
X876380Y330200D02*
X886380D01*
X881380Y325200D02*
Y335200D01*
X307420Y748030D02*
X317420D01*
X312420Y743030D02*
Y753030D01*
X307420Y793030D02*
X317420D01*
X312420Y788030D02*
Y798030D01*
X339920Y806530D02*
X349920D01*
X344920Y801530D02*
Y811530D01*
X306670Y560430D02*
X316670D01*
X311670Y555430D02*
Y565430D01*
X306670Y605430D02*
X316670D01*
X311670Y600430D02*
Y610430D01*
X339170Y618930D02*
X349170D01*
X344170Y613930D02*
Y623930D01*
X1179640Y754380D02*
X1187640D01*
X1183640Y750380D02*
Y758380D01*
X1128840Y754380D02*
X1136840D01*
X1132840Y750380D02*
Y758380D01*
X946567Y358362D02*
X954566D01*
X950567Y354362D02*
Y362362D01*
X605600Y935990D02*
X613600D01*
X609600Y931990D02*
Y939990D01*
X1197420Y689610D02*
X1205420D01*
X1201420Y685610D02*
Y693610D01*
X534480Y886460D02*
X542480D01*
X538480Y882460D02*
Y890460D01*
X944690Y300990D02*
X952690D01*
X948690Y296990D02*
Y304990D01*
X1093684Y801370D02*
X1100796D01*
X1097240Y797814D02*
Y804926D01*
X603504Y889000D02*
X610616D01*
X607060Y885444D02*
Y892556D01*
X683514Y427990D02*
X690626D01*
X687070Y424434D02*
Y431546D01*
X631444Y411480D02*
X638556D01*
X635000Y407924D02*
Y415036D01*
X559054Y434340D02*
X566166D01*
X562610Y430784D02*
Y437896D01*
X632714Y815340D02*
X639826D01*
X636270Y811784D02*
Y818896D01*
X1063244Y636270D02*
X1070356D01*
X1066800Y632714D02*
Y639826D01*
X830834Y701040D02*
X837946D01*
X834390Y697484D02*
Y704596D01*
X875284Y705743D02*
X882396D01*
X878840Y702187D02*
Y709299D01*
X526034Y720090D02*
X533146D01*
X529590Y716534D02*
Y723646D01*
X580644Y721360D02*
X587756D01*
X584200Y717804D02*
Y724916D01*
X503174Y734060D02*
X510286D01*
X506730Y730504D02*
Y737616D01*
X717804Y668020D02*
X724916D01*
X721360Y664464D02*
Y671576D01*
X900684Y695353D02*
X907796D01*
X904240Y691797D02*
Y698909D01*
M02*
