G04*
G04 #@! TF.GenerationSoftware,Altium Limited,Altium Designer,25.8.1 (18)*
G04*
G04 Layer_Color=16711935*
%FSLAX44Y44*%
%MOMM*%
G71*
G04*
G04 #@! TF.SameCoordinates,7DF7E9D0-5C5A-48D3-858C-9FB4A562FECE*
G04*
G04*
G04 #@! TF.FilePolarity,Positive*
G04*
G01*
G75*
%ADD10C,0.2000*%
%ADD12C,0.1270*%
%ADD13C,0.1524*%
%ADD47C,0.1000*%
D10*
X598000Y421490D02*
G03*
X598000Y421490I-1000J0D01*
G01*
X507780Y339090D02*
G03*
X507780Y339090I-1000J0D01*
G01*
X1033510Y628490D02*
G03*
X1033510Y628490I-1000J0D01*
G01*
X900320Y956310D02*
G03*
X900320Y956310I-1000J0D01*
G01*
X693150Y914240D02*
G03*
X693150Y914240I-1000J0D01*
G01*
X980780Y858520D02*
G03*
X980780Y858520I-1000J0D01*
G01*
Y629320D02*
G03*
X980780Y629320I-1000J0D01*
G01*
X1107170Y529750D02*
G03*
X1107170Y529750I-1000J0D01*
G01*
D12*
X614280Y339090D02*
G03*
X614280Y339090I-50000J0D01*
G01*
X584200Y575170D02*
X584200Y485960D01*
X685800D01*
Y575170D01*
X584200Y575170D02*
X685800Y575170D01*
D13*
X870712Y418846D02*
X901954Y450088D01*
X870712Y543814D02*
X901954Y512572D01*
X776986Y543814D02*
X901954D01*
X776986Y418846D02*
Y543814D01*
Y418846D02*
X901954D01*
Y543814D01*
D47*
X753500Y332740D02*
G03*
X753500Y332740I-40750J0D01*
G01*
X721560Y442630D02*
Y494630D01*
X746560D01*
Y442630D02*
Y494630D01*
X721560Y442630D02*
X746560D01*
X721560Y450630D02*
X729560Y442630D01*
X1104140Y871800D02*
X1121140D01*
X1104140Y880800D02*
X1121140D01*
Y871800D02*
Y880800D01*
X1104140Y871800D02*
Y880800D01*
X1020460Y843290D02*
X1044560D01*
X1020460Y634990D02*
Y843290D01*
Y634990D02*
X1044560D01*
Y843290D01*
X1020460D02*
X1044560D01*
X1020460Y634990D02*
Y843290D01*
Y634990D02*
X1044560D01*
X760720Y944260D02*
Y968360D01*
Y944260D02*
X892820D01*
Y968360D01*
X760720D02*
X892820D01*
X760720Y944260D02*
Y968360D01*
Y944260D02*
X892820D01*
Y968360D01*
X680100Y976640D02*
X704200D01*
X680100Y920740D02*
Y976640D01*
Y920740D02*
X704200D01*
Y976640D01*
X680100D02*
X704200D01*
X680100Y920740D02*
Y976640D01*
Y920740D02*
X704200D01*
X549030Y901010D02*
X566030D01*
X549030Y910010D02*
X566030D01*
Y901010D02*
Y910010D01*
X549030Y901010D02*
Y910010D01*
X972830Y846470D02*
Y870570D01*
X459730D02*
X972830D01*
X459730Y846470D02*
Y870570D01*
Y846470D02*
X972830D01*
X467750Y909900D02*
X484750D01*
X467750Y918900D02*
X484750D01*
Y909900D02*
Y918900D01*
X467750Y909900D02*
Y918900D01*
X322830Y479490D02*
Y503490D01*
X385830D01*
X322830Y479490D02*
X385830D01*
Y503490D01*
X972830Y617270D02*
Y641370D01*
X459730D02*
X972830D01*
X459730Y617270D02*
Y641370D01*
Y617270D02*
X972830D01*
X383290Y667450D02*
Y691450D01*
X320290Y667450D02*
X383290D01*
X320290Y691450D02*
X383290D01*
X320290Y667450D02*
Y691450D01*
X376940Y865570D02*
Y889570D01*
X313940Y865570D02*
X376940D01*
X313940Y889570D02*
X376940D01*
X313940Y865570D02*
Y889570D01*
X1116140Y914020D02*
Y930020D01*
X1124141Y914019D02*
Y930019D01*
X1116140Y930020D02*
X1124140D01*
X1116141Y914019D02*
X1124141D01*
X861880Y302200D02*
X920880D01*
Y347200D01*
X861880Y302200D02*
Y347200D01*
X920880D01*
X1094120Y523250D02*
X1118220D01*
Y391150D02*
Y523250D01*
X1094120Y391150D02*
X1118220D01*
X1094120D02*
Y523250D01*
X1118220D01*
Y391150D02*
Y523250D01*
X1094120Y391150D02*
X1118220D01*
X1108240Y766880D02*
X1208240D01*
X1108240Y741880D02*
Y766880D01*
Y741880D02*
X1208240D01*
Y766880D01*
M02*
